<svg xmlns="http://www.w3.org/2000/svg" xmlns:v="https://svgstorm.com"
viewBox = "0 0 1627 180"
width="1627"
height="180">
<g fill="None" fill-opacity="0.0" stroke="#0062E0" stroke-opacity="1.00" stroke-width="0.3"><path d="
M 0.00 180.00 
L 1627.00 180.00
L 1627.00 0.00
L 0.00 0.00
L 0.00 180.00
M 819.00 24.00 
C 829.99 28.26 840.76 32.11 851.00 38.00
C 857.28 41.61 863.27 43.46 869.68 46.32 C 876.09 49.19 883.46 54.23 882.00 62.00 C 880.54 69.77 875.05 73.06 869.25 77.25 C 863.45 81.44 858.74 84.35 853.25 88.25 C 847.77 92.16 842.58 95.87 836.92 99.92 C 831.26 103.96 826.09 107.05 820.25 111.25 C 814.42 115.46 810.92 118.47 804.25 122.25 C 797.59 126.04 795.36 132.25 786.00 132.00 C 776.64 131.75 778.38 119.41 779.00 113.00
C 779.00 98.41 780.92 83.19 783.00 69.00 C 785.08 54.81 784.17 39.25 789.00 26.00
C 795.01 9.50 809.74 19.16 819.00 24.00
M 756.00 56.00 
C 755.06 55.76 753.95 56.19 753.00 56.00
C 752.38 52.42 754.62 49.60 754.00 46.00
C 746.77 46.06 740.06 48.14 733.00 49.00
C 723.83 50.74 714.27 51.43 705.00 53.00
C 698.97 54.02 692.83 54.18 687.00 56.00
C 686.60 65.47 684.00 75.06 683.00 84.00
C 681.73 97.09 677.84 112.07 679.00 125.00
C 679.26 125.25 680.00 125.00 680.00 125.00
C 697.68 120.85 717.90 117.65 736.00 116.00
C 739.31 115.70 742.69 116.23 746.00 116.00
C 745.81 108.80 748.83 102.38 748.00 95.00
C 744.24 96.53 739.79 95.47 736.00 97.00
C 731.69 97.79 727.42 98.57 723.00 99.00
C 724.83 91.23 726.07 83.27 726.00 75.00
C 729.46 75.21 732.40 73.30 736.00 74.00
C 739.99 73.51 743.73 72.87 748.00 73.00
C 756.26 72.00 765.29 68.81 774.00 68.00
C 770.69 86.10 772.91 110.98 763.25 126.25 C 753.58 141.51 726.88 141.39 711.00 143.00 C 695.12 144.61 664.10 157.28 657.25 137.75 C 650.39 118.23 664.70 95.12 662.00 75.00
C 662.68 68.93 663.34 60.96 665.00 55.00
C 670.93 33.73 689.19 32.33 708.00 30.00
C 720.68 26.86 733.97 26.20 747.00 24.00
C 751.84 23.18 756.75 20.50 762.00 22.00 C 767.25 23.50 768.96 22.47 773.75 28.25 C 778.53 34.04 779.76 52.17 771.00 53.00 C 762.23 53.82 763.13 57.79 756.00 56.00
M 833.00 131.00 
C 837.42 133.73 830.69 139.38 827.33 136.67 C 823.97 133.96 830.46 129.43 833.00 131.00
M 847.00 147.00 
C 836.10 148.09 843.84 171.97 830.00 166.00
C 833.47 158.79 835.85 149.99 833.00 143.00
C 839.54 144.27 837.60 135.87 839.00 132.00
C 841.84 131.00 849.86 130.85 846.07 136.07 C 842.29 141.30 846.50 142.26 847.00 147.00
M 863.00 139.00 
C 865.23 143.78 856.76 151.06 852.78 147.22 C 848.80 143.38 859.79 138.27 863.00 139.00
M 816.00 147.00 
C 812.67 148.15 806.94 154.25 809.00 159.00
C 810.87 161.86 815.93 158.55 818.00 158.00
C 816.16 173.25 799.56 164.16 802.93 152.93 C 806.30 141.70 820.62 135.83 821.00 150.00
C 819.05 149.89 817.24 148.21 816.00 147.00
M 832.00 142.00 
C 827.15 149.34 831.62 169.86 819.00 166.00
C 820.45 158.30 823.49 150.99 824.00 143.00
C 826.74 143.03 829.08 141.37 832.00 142.00
M 869.00 159.00 
C 868.28 171.68 851.56 164.83 847.00 159.00
C 846.83 161.28 843.65 162.48 842.00 164.00
C 840.70 158.73 849.87 151.21 855.00 153.00 C 860.14 154.79 860.74 165.61 869.00 159.00 Z"/>
</g>
<g fill="None" fill-opacity="0.0" stroke="#D4F2FD" stroke-opacity="1.00" stroke-width="0.3"><path d="
M 789.00 26.00 
C 795.95 13.65 808.67 19.99 819.00 24.00
C 809.74 19.16 795.01 9.50 789.00 26.00 Z"/>
</g>
<g fill="None" fill-opacity="0.0" stroke="#FAFDFD" stroke-opacity="1.00" stroke-width="0.3"><path d="
M 789.00 26.00 
C 784.17 39.25 785.08 54.81 783.00 69.00 C 780.92 83.19 779.00 98.41 779.00 113.00
C 779.00 119.70 779.44 133.49 788.67 130.67 C 797.90 127.85 796.97 123.61 804.23 120.23 C 811.49 116.84 815.22 111.80 821.03 108.03 C 826.85 104.26 832.90 101.09 837.30 96.30 C 841.71 91.52 852.38 90.08 852.00 84.00
C 861.22 83.51 864.61 76.89 871.10 73.10 C 877.59 69.31 884.68 61.02 879.00 53.00
C 868.77 48.46 858.56 45.40 851.00 38.00
C 840.76 32.11 829.99 28.26 819.00 24.00
C 808.67 19.99 795.95 13.65 789.00 26.00
M 853.00 62.00 
C 856.00 66.95 840.33 72.68 836.31 76.30 C 832.28 79.93 822.36 87.33 818.00 89.00
C 812.33 91.17 806.63 95.48 801.00 99.00
C 800.26 93.72 802.25 89.17 802.00 84.00
C 802.27 80.56 803.51 77.72 804.00 75.00
C 804.96 62.89 805.45 51.88 807.00 40.00
C 822.03 47.03 837.66 54.21 853.00 62.00 Z"/>
</g>
<g fill="None" fill-opacity="0.0" stroke="#CBEBFA" stroke-opacity="1.00" stroke-width="0.3"><path d="
M 747.00 24.00 
C 752.67 24.05 758.86 24.85 765.07 24.93 C 771.29 25.01 774.56 32.21 775.33 36.67 C 776.09 41.14 776.43 52.37 771.25 51.39 C 766.07 50.42 759.99 56.50 756.00 56.00
C 763.13 57.79 762.23 53.82 771.00 53.00 C 779.76 52.17 778.53 34.04 773.75 28.25 C 768.96 22.47 767.25 23.50 762.00 22.00 C 756.75 20.50 751.84 23.18 747.00 24.00 Z"/>
</g>
<g fill="None" fill-opacity="0.0" stroke="#FBFDFD" stroke-opacity="1.00" stroke-width="0.3"><path d="
M 708.00 30.00 
C 699.93 32.00 688.21 32.34 680.92 36.92 C 673.63 41.50 668.53 48.10 665.00 55.00
C 663.34 60.96 662.68 68.93 662.00 75.00
C 662.14 74.56 663.40 73.21 664.00 73.00
C 665.84 94.04 654.05 114.41 658.19 134.25 C 662.34 154.09 692.50 144.95 709.00 142.00 C 725.50 139.05 749.06 140.62 760.68 126.68 C 772.30 112.74 767.81 87.39 773.00 70.00
C 764.58 70.81 756.37 74.28 748.00 73.00
C 743.73 72.87 739.99 73.51 736.00 74.00
C 726.09 77.30 725.82 85.62 726.00 97.00
C 728.93 96.31 733.56 94.73 736.00 97.00
C 739.79 95.47 744.24 96.53 748.00 95.00
C 748.83 102.38 745.81 108.80 746.00 116.00
C 742.69 116.23 739.31 115.70 736.00 116.00
C 730.75 116.99 723.89 121.29 718.31 120.35 C 712.72 119.41 702.28 124.18 697.33 123.33 C 692.38 122.48 685.26 129.10 680.00 125.00
C 680.00 125.00 679.26 125.25 679.00 125.00
C 674.17 120.33 680.32 109.90 679.93 103.93 C 679.54 97.96 681.98 86.97 683.00 84.00
C 684.00 75.06 686.60 65.47 687.00 56.00
C 692.83 54.18 698.97 54.02 705.00 53.00
C 713.87 50.42 724.05 48.84 733.00 49.00
C 740.06 48.14 746.77 46.06 754.00 46.00
C 754.62 49.60 752.38 52.42 753.00 56.00
C 753.95 56.19 755.06 55.76 756.00 56.00
C 759.99 56.50 766.07 50.42 771.25 51.39 C 776.43 52.37 776.09 41.14 775.33 36.67 C 774.56 32.21 771.29 25.01 765.07 24.93 C 758.86 24.85 752.67 24.05 747.00 24.00
C 733.97 26.20 720.68 26.86 708.00 30.00 Z"/>
</g>
<g fill="None" fill-opacity="0.0" stroke="#D7F3FD" stroke-opacity="1.00" stroke-width="0.3"><path d="
M 665.00 55.00 
C 668.53 48.10 673.63 41.50 680.92 36.92 C 688.21 32.34 699.93 32.00 708.00 30.00
C 689.19 32.33 670.93 33.73 665.00 55.00 Z"/>
</g>
<g fill="None" fill-opacity="0.0" stroke="#DAF4FD" stroke-opacity="1.00" stroke-width="0.3"><path d="
M 779.00 113.00 
C 778.38 119.41 776.64 131.75 786.00 132.00 C 795.36 132.25 797.59 126.04 804.25 122.25 C 810.92 118.47 814.42 115.46 820.25 111.25 C 826.09 107.05 831.26 103.96 836.92 99.92 C 842.58 95.87 847.77 92.16 853.25 88.25 C 858.74 84.35 863.45 81.44 869.25 77.25 C 875.05 73.06 880.54 69.77 882.00 62.00 C 883.46 54.23 876.09 49.19 869.68 46.32 C 863.27 43.46 857.28 41.61 851.00 38.00
C 858.56 45.40 868.77 48.46 879.00 53.00
C 884.68 61.02 877.59 69.31 871.10 73.10 C 864.61 76.89 861.22 83.51 852.00 84.00
C 852.38 90.08 841.71 91.52 837.30 96.30 C 832.90 101.09 826.85 104.26 821.03 108.03 C 815.22 111.80 811.49 116.84 804.23 120.23 C 796.97 123.61 797.90 127.85 788.67 130.67 C 779.44 133.49 779.00 119.70 779.00 113.00 Z"/>
</g>
<g fill="None" fill-opacity="0.0" stroke="#0D63D8" stroke-opacity="1.00" stroke-width="0.3"><path d="
M 804.00 75.00 
C 803.76 77.99 802.42 81.50 802.00 84.00
C 802.25 89.17 800.26 93.72 801.00 99.00
C 806.63 95.48 812.33 91.17 818.00 89.00
C 829.37 80.80 841.54 70.83 853.00 62.00
C 837.66 54.21 822.03 47.03 807.00 40.00
C 805.45 51.88 804.96 62.89 804.00 75.00 Z"/>
</g>
<g fill="None" fill-opacity="0.0" stroke="#D3F2FE" stroke-opacity="1.00" stroke-width="0.3"><path d="
M 705.00 53.00 
C 714.27 51.43 723.83 50.74 733.00 49.00
C 724.05 48.84 713.87 50.42 705.00 53.00 Z"/>
</g>
<g fill="None" fill-opacity="0.0" stroke="#DCF6FD" stroke-opacity="1.00" stroke-width="0.3"><path d="
M 818.00 89.00 
C 822.36 87.33 832.28 79.93 836.31 76.30 C 840.33 72.68 856.00 66.95 853.00 62.00
C 841.54 70.83 829.37 80.80 818.00 89.00 Z"/>
</g>
<g fill="None" fill-opacity="0.0" stroke="#D3F0FC" stroke-opacity="1.00" stroke-width="0.3"><path d="
M 748.00 73.00 
C 756.37 74.28 764.58 70.81 773.00 70.00
C 767.81 87.39 772.30 112.74 760.68 126.68 C 749.06 140.62 725.50 139.05 709.00 142.00 C 692.50 144.95 662.34 154.09 658.19 134.25 C 654.05 114.41 665.84 94.04 664.00 73.00
C 663.40 73.21 662.14 74.56 662.00 75.00
C 664.70 95.12 650.39 118.23 657.25 137.75 C 664.10 157.28 695.12 144.61 711.00 143.00 C 726.88 141.39 753.58 141.51 763.25 126.25 C 772.91 110.98 770.69 86.10 774.00 68.00
C 765.29 68.81 756.26 72.00 748.00 73.00 Z"/>
</g>
<g fill="None" fill-opacity="0.0" stroke="#D4F3FD" stroke-opacity="1.00" stroke-width="0.3"><path d="
M 736.00 97.00 
C 733.56 94.73 728.93 96.31 726.00 97.00
C 725.82 85.62 726.09 77.30 736.00 74.00
C 732.40 73.30 729.46 75.21 726.00 75.00
C 726.07 83.27 724.83 91.23 723.00 99.00
C 727.42 98.57 731.69 97.79 736.00 97.00 Z"/>
</g>
<g fill="None" fill-opacity="0.0" stroke="#9CCAF3" stroke-opacity="1.00" stroke-width="0.3"><path d="
M 802.00 84.00 
C 802.42 81.50 803.76 77.99 804.00 75.00
C 803.51 77.72 802.27 80.56 802.00 84.00 Z"/>
</g>
<g fill="None" fill-opacity="0.0" stroke="#D7F3FD" stroke-opacity="1.00" stroke-width="0.3"><path d="
M 679.00 125.00 
C 677.84 112.07 681.73 97.09 683.00 84.00
C 681.98 86.97 679.54 97.96 679.93 103.93 C 680.32 109.90 674.17 120.33 679.00 125.00 Z"/>
</g>
<g fill="None" fill-opacity="0.0" stroke="#D1EFFC" stroke-opacity="1.00" stroke-width="0.3"><path d="
M 680.00 125.00 
C 685.26 129.10 692.38 122.48 697.33 123.33 C 702.28 124.18 712.72 119.41 718.31 120.35 C 723.89 121.29 730.75 116.99 736.00 116.00
C 717.90 117.65 697.68 120.85 680.00 125.00 Z"/>
</g>
<g fill="None" fill-opacity="0.0" stroke="#D7F6FE" stroke-opacity="1.00" stroke-width="0.3"><path d="
M 833.00 131.00 
C 830.46 129.43 823.97 133.96 827.33 136.67 C 830.69 139.38 837.42 133.73 833.00 131.00 Z"/>
</g>
<g fill="None" fill-opacity="0.0" stroke="#E5F9FD" stroke-opacity="1.00" stroke-width="0.3"><path d="
M 847.00 147.00 
C 846.50 142.26 842.29 141.30 846.07 136.07 C 849.86 130.85 841.84 131.00 839.00 132.00
C 837.60 135.87 839.54 144.27 833.00 143.00
C 835.85 149.99 833.47 158.79 830.00 166.00
C 843.84 171.97 836.10 148.09 847.00 147.00 Z"/>
</g>
<g fill="None" fill-opacity="0.0" stroke="#D9F7FD" stroke-opacity="1.00" stroke-width="0.3"><path d="
M 863.00 139.00 
C 859.79 138.27 848.80 143.38 852.78 147.22 C 856.76 151.06 865.23 143.78 863.00 139.00 Z"/>
</g>
<g fill="None" fill-opacity="0.0" stroke="#C6F2FE" stroke-opacity="1.00" stroke-width="0.3"><path d="
M 809.00 159.00 
C 810.78 163.10 814.38 158.89 817.00 161.00
C 810.36 171.26 802.41 160.58 804.78 152.78 C 807.15 144.97 816.95 138.33 820.00 148.00
C 818.46 148.37 817.60 146.57 816.00 147.00
C 817.24 148.21 819.05 149.89 821.00 150.00
C 820.62 135.83 806.30 141.70 802.93 152.93 C 799.56 164.16 816.16 173.25 818.00 158.00
C 815.93 158.55 810.87 161.86 809.00 159.00 Z"/>
</g>
<g fill="None" fill-opacity="0.0" stroke="#E0F7FD" stroke-opacity="1.00" stroke-width="0.3"><path d="
M 832.00 142.00 
C 829.08 141.37 826.74 143.03 824.00 143.00
C 823.49 150.99 820.45 158.30 819.00 166.00
C 831.62 169.86 827.15 149.34 832.00 142.00 Z"/>
</g>
<g fill="None" fill-opacity="0.0" stroke="#F1FBFD" stroke-opacity="1.00" stroke-width="0.3"><path d="
M 809.00 159.00 
C 806.94 154.25 812.67 148.15 816.00 147.00
C 817.60 146.57 818.46 148.37 820.00 148.00
C 816.95 138.33 807.15 144.97 804.78 152.78 C 802.41 160.58 810.36 171.26 817.00 161.00
C 814.38 158.89 810.78 163.10 809.00 159.00 Z"/>
</g>
<g fill="None" fill-opacity="0.0" stroke="#E0F9FD" stroke-opacity="1.00" stroke-width="0.3"><path d="
M 869.00 159.00 
C 860.74 165.61 860.14 154.79 855.00 153.00 C 849.87 151.21 840.70 158.73 842.00 164.00
C 843.65 162.48 846.83 161.28 847.00 159.00
C 851.56 164.83 868.28 171.68 869.00 159.00 Z"/>
</g>
<g fill="#0062E0" fill-opacity="1.00" stroke="None">
<path d="
M 0.00 180.00 
L 1627.00 180.00
L 1627.00 0.00
L 0.00 0.00
L 0.00 180.00
M 819.00 24.00 
C 829.99 28.26 840.76 32.11 851.00 38.00
C 857.28 41.61 863.27 43.46 869.68 46.32 C 876.09 49.19 883.46 54.23 882.00 62.00 C 880.54 69.77 875.05 73.06 869.25 77.25 C 863.45 81.44 858.74 84.35 853.25 88.25 C 847.77 92.16 842.58 95.87 836.92 99.92 C 831.26 103.96 826.09 107.05 820.25 111.25 C 814.42 115.46 810.92 118.47 804.25 122.25 C 797.59 126.04 795.36 132.25 786.00 132.00 C 776.64 131.75 778.38 119.41 779.00 113.00
C 779.00 98.41 780.92 83.19 783.00 69.00 C 785.08 54.81 784.17 39.25 789.00 26.00
C 795.01 9.50 809.74 19.16 819.00 24.00
M 756.00 56.00 
C 755.06 55.76 753.95 56.19 753.00 56.00
C 752.38 52.42 754.62 49.60 754.00 46.00
C 746.77 46.06 740.06 48.14 733.00 49.00
C 723.83 50.74 714.27 51.43 705.00 53.00
C 698.97 54.02 692.83 54.18 687.00 56.00
C 686.60 65.47 684.00 75.06 683.00 84.00
C 681.73 97.09 677.84 112.07 679.00 125.00
C 679.26 125.25 680.00 125.00 680.00 125.00
C 697.68 120.85 717.90 117.65 736.00 116.00
C 739.31 115.70 742.69 116.23 746.00 116.00
C 745.81 108.80 748.83 102.38 748.00 95.00
C 744.24 96.53 739.79 95.47 736.00 97.00
C 731.69 97.79 727.42 98.57 723.00 99.00
C 724.83 91.23 726.07 83.27 726.00 75.00
C 729.46 75.21 732.40 73.30 736.00 74.00
C 739.99 73.51 743.73 72.87 748.00 73.00
C 756.26 72.00 765.29 68.81 774.00 68.00
C 770.69 86.10 772.91 110.98 763.25 126.25 C 753.58 141.51 726.88 141.39 711.00 143.00 C 695.12 144.61 664.10 157.28 657.25 137.75 C 650.39 118.23 664.70 95.12 662.00 75.00
C 662.68 68.93 663.34 60.96 665.00 55.00
C 670.93 33.73 689.19 32.33 708.00 30.00
C 720.68 26.86 733.97 26.20 747.00 24.00
C 751.84 23.18 756.75 20.50 762.00 22.00 C 767.25 23.50 768.96 22.47 773.75 28.25 C 778.53 34.04 779.76 52.17 771.00 53.00 C 762.23 53.82 763.13 57.79 756.00 56.00
M 833.00 131.00 
C 837.42 133.73 830.69 139.38 827.33 136.67 C 823.97 133.96 830.46 129.43 833.00 131.00
M 847.00 147.00 
C 836.10 148.09 843.84 171.97 830.00 166.00
C 833.47 158.79 835.85 149.99 833.00 143.00
C 839.54 144.27 837.60 135.87 839.00 132.00
C 841.84 131.00 849.86 130.85 846.07 136.07 C 842.29 141.30 846.50 142.26 847.00 147.00
M 863.00 139.00 
C 865.23 143.78 856.76 151.06 852.78 147.22 C 848.80 143.38 859.79 138.27 863.00 139.00
M 816.00 147.00 
C 812.67 148.15 806.94 154.25 809.00 159.00
C 810.87 161.86 815.93 158.55 818.00 158.00
C 816.16 173.25 799.56 164.16 802.93 152.93 C 806.30 141.70 820.62 135.83 821.00 150.00
C 819.05 149.89 817.24 148.21 816.00 147.00
M 832.00 142.00 
C 827.15 149.34 831.62 169.86 819.00 166.00
C 820.45 158.30 823.49 150.99 824.00 143.00
C 826.74 143.03 829.08 141.37 832.00 142.00
M 869.00 159.00 
C 868.28 171.68 851.56 164.83 847.00 159.00
C 846.83 161.28 843.65 162.48 842.00 164.00
C 840.70 158.73 849.87 151.21 855.00 153.00 C 860.14 154.79 860.74 165.61 869.00 159.00 Z"/>
</g>
<g fill="#D4F2FD" fill-opacity="1.00" stroke="None">
<path d="
M 789.00 26.00 
C 795.95 13.65 808.67 19.99 819.00 24.00
C 809.74 19.16 795.01 9.50 789.00 26.00 Z"/>
</g>
<g fill="#FAFDFD" fill-opacity="1.00" stroke="None">
<path d="
M 789.00 26.00 
C 784.17 39.25 785.08 54.81 783.00 69.00 C 780.92 83.19 779.00 98.41 779.00 113.00
C 779.00 119.70 779.44 133.49 788.67 130.67 C 797.90 127.85 796.97 123.61 804.23 120.23 C 811.49 116.84 815.22 111.80 821.03 108.03 C 826.85 104.26 832.90 101.09 837.30 96.30 C 841.71 91.52 852.38 90.08 852.00 84.00
C 861.22 83.51 864.61 76.89 871.10 73.10 C 877.59 69.31 884.68 61.02 879.00 53.00
C 868.77 48.46 858.56 45.40 851.00 38.00
C 840.76 32.11 829.99 28.26 819.00 24.00
C 808.67 19.99 795.95 13.65 789.00 26.00
M 853.00 62.00 
C 856.00 66.95 840.33 72.68 836.31 76.30 C 832.28 79.93 822.36 87.33 818.00 89.00
C 812.33 91.17 806.63 95.48 801.00 99.00
C 800.26 93.72 802.25 89.17 802.00 84.00
C 802.27 80.56 803.51 77.72 804.00 75.00
C 804.96 62.89 805.45 51.88 807.00 40.00
C 822.03 47.03 837.66 54.21 853.00 62.00 Z"/>
</g>
<g fill="#CBEBFA" fill-opacity="1.00" stroke="None">
<path d="
M 747.00 24.00 
C 752.67 24.05 758.86 24.85 765.07 24.93 C 771.29 25.01 774.56 32.21 775.33 36.67 C 776.09 41.14 776.43 52.37 771.25 51.39 C 766.07 50.42 759.99 56.50 756.00 56.00
C 763.13 57.79 762.23 53.82 771.00 53.00 C 779.76 52.17 778.53 34.04 773.75 28.25 C 768.96 22.47 767.25 23.50 762.00 22.00 C 756.75 20.50 751.84 23.18 747.00 24.00 Z"/>
</g>
<g fill="#FBFDFD" fill-opacity="1.00" stroke="None">
<path d="
M 708.00 30.00 
C 699.93 32.00 688.21 32.34 680.92 36.92 C 673.63 41.50 668.53 48.10 665.00 55.00
C 663.34 60.96 662.68 68.93 662.00 75.00
C 662.14 74.56 663.40 73.21 664.00 73.00
C 665.84 94.04 654.05 114.41 658.19 134.25 C 662.34 154.09 692.50 144.95 709.00 142.00 C 725.50 139.05 749.06 140.62 760.68 126.68 C 772.30 112.74 767.81 87.39 773.00 70.00
C 764.58 70.81 756.37 74.28 748.00 73.00
C 743.73 72.87 739.99 73.51 736.00 74.00
C 726.09 77.30 725.82 85.62 726.00 97.00
C 728.93 96.31 733.56 94.73 736.00 97.00
C 739.79 95.47 744.24 96.53 748.00 95.00
C 748.83 102.38 745.81 108.80 746.00 116.00
C 742.69 116.23 739.31 115.70 736.00 116.00
C 730.75 116.99 723.89 121.29 718.31 120.35 C 712.72 119.41 702.28 124.18 697.33 123.33 C 692.38 122.48 685.26 129.10 680.00 125.00
C 680.00 125.00 679.26 125.25 679.00 125.00
C 674.17 120.33 680.32 109.90 679.93 103.93 C 679.54 97.96 681.98 86.97 683.00 84.00
C 684.00 75.06 686.60 65.47 687.00 56.00
C 692.83 54.18 698.97 54.02 705.00 53.00
C 713.87 50.42 724.05 48.84 733.00 49.00
C 740.06 48.14 746.77 46.06 754.00 46.00
C 754.62 49.60 752.38 52.42 753.00 56.00
C 753.95 56.19 755.06 55.76 756.00 56.00
C 759.99 56.50 766.07 50.42 771.25 51.39 C 776.43 52.37 776.09 41.14 775.33 36.67 C 774.56 32.21 771.29 25.01 765.07 24.93 C 758.86 24.85 752.67 24.05 747.00 24.00
C 733.97 26.20 720.68 26.86 708.00 30.00 Z"/>
</g>
<g fill="#D7F3FD" fill-opacity="1.00" stroke="None">
<path d="
M 665.00 55.00 
C 668.53 48.10 673.63 41.50 680.92 36.92 C 688.21 32.34 699.93 32.00 708.00 30.00
C 689.19 32.33 670.93 33.73 665.00 55.00 Z"/>
</g>
<g fill="#DAF4FD" fill-opacity="1.00" stroke="None">
<path d="
M 779.00 113.00 
C 778.38 119.41 776.64 131.75 786.00 132.00 C 795.36 132.25 797.59 126.04 804.25 122.25 C 810.92 118.47 814.42 115.46 820.25 111.25 C 826.09 107.05 831.26 103.96 836.92 99.92 C 842.58 95.87 847.77 92.16 853.25 88.25 C 858.74 84.35 863.45 81.44 869.25 77.25 C 875.05 73.06 880.54 69.77 882.00 62.00 C 883.46 54.23 876.09 49.19 869.68 46.32 C 863.27 43.46 857.28 41.61 851.00 38.00
C 858.56 45.40 868.77 48.46 879.00 53.00
C 884.68 61.02 877.59 69.31 871.10 73.10 C 864.61 76.89 861.22 83.51 852.00 84.00
C 852.38 90.08 841.71 91.52 837.30 96.30 C 832.90 101.09 826.85 104.26 821.03 108.03 C 815.22 111.80 811.49 116.84 804.23 120.23 C 796.97 123.61 797.90 127.85 788.67 130.67 C 779.44 133.49 779.00 119.70 779.00 113.00 Z"/>
</g>
<g fill="#0D63D8" fill-opacity="1.00" stroke="None">
<path d="
M 804.00 75.00 
C 803.76 77.99 802.42 81.50 802.00 84.00
C 802.25 89.17 800.26 93.72 801.00 99.00
C 806.63 95.48 812.33 91.17 818.00 89.00
C 829.37 80.80 841.54 70.83 853.00 62.00
C 837.66 54.21 822.03 47.03 807.00 40.00
C 805.45 51.88 804.96 62.89 804.00 75.00 Z"/>
</g>
<g fill="#D3F2FE" fill-opacity="1.00" stroke="None">
<path d="
M 705.00 53.00 
C 714.27 51.43 723.83 50.74 733.00 49.00
C 724.05 48.84 713.87 50.42 705.00 53.00 Z"/>
</g>
<g fill="#DCF6FD" fill-opacity="1.00" stroke="None">
<path d="
M 818.00 89.00 
C 822.36 87.33 832.28 79.93 836.31 76.30 C 840.33 72.68 856.00 66.95 853.00 62.00
C 841.54 70.83 829.37 80.80 818.00 89.00 Z"/>
</g>
<g fill="#D3F0FC" fill-opacity="1.00" stroke="None">
<path d="
M 748.00 73.00 
C 756.37 74.28 764.58 70.81 773.00 70.00
C 767.81 87.39 772.30 112.74 760.68 126.68 C 749.06 140.62 725.50 139.05 709.00 142.00 C 692.50 144.95 662.34 154.09 658.19 134.25 C 654.05 114.41 665.84 94.04 664.00 73.00
C 663.40 73.21 662.14 74.56 662.00 75.00
C 664.70 95.12 650.39 118.23 657.25 137.75 C 664.10 157.28 695.12 144.61 711.00 143.00 C 726.88 141.39 753.58 141.51 763.25 126.25 C 772.91 110.98 770.69 86.10 774.00 68.00
C 765.29 68.81 756.26 72.00 748.00 73.00 Z"/>
</g>
<g fill="#D4F3FD" fill-opacity="1.00" stroke="None">
<path d="
M 736.00 97.00 
C 733.56 94.73 728.93 96.31 726.00 97.00
C 725.82 85.62 726.09 77.30 736.00 74.00
C 732.40 73.30 729.46 75.21 726.00 75.00
C 726.07 83.27 724.83 91.23 723.00 99.00
C 727.42 98.57 731.69 97.79 736.00 97.00 Z"/>
</g>
<g fill="#9CCAF3" fill-opacity="1.00" stroke="None">
<path d="
M 802.00 84.00 
C 802.42 81.50 803.76 77.99 804.00 75.00
C 803.51 77.72 802.27 80.56 802.00 84.00 Z"/>
</g>
<g fill="#D7F3FD" fill-opacity="1.00" stroke="None">
<path d="
M 679.00 125.00 
C 677.84 112.07 681.73 97.09 683.00 84.00
C 681.98 86.97 679.54 97.96 679.93 103.93 C 680.32 109.90 674.17 120.33 679.00 125.00 Z"/>
</g>
<g fill="#D1EFFC" fill-opacity="1.00" stroke="None">
<path d="
M 680.00 125.00 
C 685.26 129.10 692.38 122.48 697.33 123.33 C 702.28 124.18 712.72 119.41 718.31 120.35 C 723.89 121.29 730.75 116.99 736.00 116.00
C 717.90 117.65 697.68 120.85 680.00 125.00 Z"/>
</g>
<g fill="#D7F6FE" fill-opacity="1.00" stroke="None">
<path d="
M 833.00 131.00 
C 830.46 129.43 823.97 133.96 827.33 136.67 C 830.69 139.38 837.42 133.73 833.00 131.00 Z"/>
</g>
<g fill="#E5F9FD" fill-opacity="1.00" stroke="None">
<path d="
M 847.00 147.00 
C 846.50 142.26 842.29 141.30 846.07 136.07 C 849.86 130.85 841.84 131.00 839.00 132.00
C 837.60 135.87 839.54 144.27 833.00 143.00
C 835.85 149.99 833.47 158.79 830.00 166.00
C 843.84 171.97 836.10 148.09 847.00 147.00 Z"/>
</g>
<g fill="#D9F7FD" fill-opacity="1.00" stroke="None">
<path d="
M 863.00 139.00 
C 859.79 138.27 848.80 143.38 852.78 147.22 C 856.76 151.06 865.23 143.78 863.00 139.00 Z"/>
</g>
<g fill="#C6F2FE" fill-opacity="1.00" stroke="None">
<path d="
M 809.00 159.00 
C 810.78 163.10 814.38 158.89 817.00 161.00
C 810.36 171.26 802.41 160.58 804.78 152.78 C 807.15 144.97 816.95 138.33 820.00 148.00
C 818.46 148.37 817.60 146.57 816.00 147.00
C 817.24 148.21 819.05 149.89 821.00 150.00
C 820.62 135.83 806.30 141.70 802.93 152.93 C 799.56 164.16 816.16 173.25 818.00 158.00
C 815.93 158.55 810.87 161.86 809.00 159.00 Z"/>
</g>
<g fill="#E0F7FD" fill-opacity="1.00" stroke="None">
<path d="
M 832.00 142.00 
C 829.08 141.37 826.74 143.03 824.00 143.00
C 823.49 150.99 820.45 158.30 819.00 166.00
C 831.62 169.86 827.15 149.34 832.00 142.00 Z"/>
</g>
<g fill="#F1FBFD" fill-opacity="1.00" stroke="None">
<path d="
M 809.00 159.00 
C 806.94 154.25 812.67 148.15 816.00 147.00
C 817.60 146.57 818.46 148.37 820.00 148.00
C 816.95 138.33 807.15 144.97 804.78 152.78 C 802.41 160.58 810.36 171.26 817.00 161.00
C 814.38 158.89 810.78 163.10 809.00 159.00 Z"/>
</g>
<g fill="#E0F9FD" fill-opacity="1.00" stroke="None">
<path d="
M 869.00 159.00 
C 860.74 165.61 860.14 154.79 855.00 153.00 C 849.87 151.21 840.70 158.73 842.00 164.00
C 843.65 162.48 846.83 161.28 847.00 159.00
C 851.56 164.83 868.28 171.68 869.00 159.00 Z"/>
</g>
</svg>