<svg xmlns="http://www.w3.org/2000/svg" xmlns:v="https://svgstorm.com"
viewBox = "0 0 600 600"
width="600"
height="600">
<g fill="None" fill-opacity="0.0" stroke="#F8F8F8" stroke-opacity="1.00" stroke-width="0.3"><path d="
M 0.00 600.00 
L 600.00 600.00
L 600.00 0.00
L 0.00 0.00
L 0.00 600.00
M 412.00 455.00 
C 406.34 463.99 393.93 461.01 384.00 463.00 C 374.07 464.99 359.42 461.26 350.32 460.68 C 341.23 460.09 333.72 471.56 322.98 468.98 C 312.23 466.39 299.72 474.44 289.99 468.01 C 280.26 461.57 273.59 470.81 264.31 473.31 C 255.02 475.80 243.51 476.29 233.00 476.00 C 222.49 475.71 212.78 473.62 205.25 466.75 C 197.73 459.87 195.84 452.07 193.67 442.33 C 191.50 432.58 194.01 419.03 183.78 415.22 C 173.54 411.41 174.11 398.85 174.00 389.00 C 173.89 379.15 157.26 375.99 148.33 380.33 C 139.39 384.66 128.43 386.10 118.00 386.00 C 107.57 385.90 97.57 383.37 88.31 378.69 C 79.04 374.02 75.95 366.67 74.00 357.00 C 72.05 347.32 69.37 335.32 69.00 325.00
C 61.89 324.42 54.22 319.83 54.00 312.00 C 53.78 304.16 49.68 293.89 51.00 286.00 C 52.32 278.11 48.54 267.38 57.23 263.23 C 65.93 259.08 62.41 250.81 65.78 242.78 C 69.14 234.74 76.53 234.04 85.00 233.00 C 93.47 231.97 101.95 231.39 112.00 231.00 C 122.05 230.61 118.52 221.59 110.30 217.70 C 102.09 213.81 104.35 204.85 103.00 197.00 C 101.65 189.15 106.38 182.20 110.77 175.77 C 115.16 169.34 112.10 157.58 114.00 150.00 C 115.90 142.42 117.57 136.23 123.75 130.75 C 129.93 125.27 135.34 121.33 144.00 122.00 C 152.66 122.67 161.17 121.21 167.75 127.25 C 174.32 133.30 183.23 126.16 191.07 127.07 C 198.92 127.98 210.96 124.76 218.00 127.00 C 225.04 129.24 233.04 130.34 232.78 140.22 C 232.52 150.11 241.92 149.27 247.70 154.30 C 253.48 159.32 253.75 169.04 254.00 177.00 C 254.25 184.96 257.58 195.27 254.00 204.00 C 250.43 212.74 265.44 209.85 273.00 210.00 C 280.56 210.15 287.46 215.57 289.77 222.23 C 292.08 228.89 288.39 242.77 297.25 241.80 C 306.10 240.83 314.34 239.82 323.02 239.02 C 331.71 238.23 340.33 241.51 348.02 238.02 C 355.72 234.54 363.97 234.54 372.01 233.01 C 380.05 231.48 389.46 235.65 397.00 235.00 C 404.55 234.35 411.72 245.25 418.67 241.67 C 425.62 238.09 428.78 233.08 436.68 230.68 C 444.58 228.28 452.07 226.10 461.00 226.00 C 469.94 225.90 479.65 226.27 488.07 227.93 C 496.50 229.59 503.70 229.98 510.68 234.32 C 517.66 238.66 519.28 245.01 520.00 253.00 C 520.72 260.99 515.08 269.77 520.30 275.70 C 525.51 281.64 526.92 288.80 528.78 296.22 C 530.64 303.65 528.51 316.65 527.67 323.67 C 526.83 330.70 517.52 337.32 524.25 342.75 C 530.97 348.18 533.15 351.56 537.75 358.25 C 542.36 364.93 543.17 371.59 545.93 379.07 C 548.68 386.56 548.08 397.84 548.00 406.00 C 547.92 414.16 547.14 423.04 544.02 430.02 C 540.90 437.01 538.14 442.74 533.70 448.70 C 529.25 454.66 525.10 459.06 518.78 462.78 C 512.45 466.49 507.33 470.72 499.93 472.93 C 492.53 475.13 483.22 477.12 475.00 477.00 C 466.78 476.88 457.46 476.46 450.00 475.00 C 442.54 473.54 436.26 469.48 429.77 466.23 C 423.28 462.98 419.09 455.27 412.00 455.00 Z"/>
</g>
<g fill="None" fill-opacity="0.0" stroke="#DADADA" stroke-opacity="1.00" stroke-width="0.3"><path d="
M 412.00 455.00 
C 419.09 455.27 423.28 462.98 429.77 466.23 C 436.26 469.48 442.54 473.54 450.00 475.00 C 457.46 476.46 466.78 476.88 475.00 477.00 C 483.22 477.12 492.53 475.13 499.93 472.93 C 507.33 470.72 512.45 466.49 518.78 462.78 C 525.10 459.06 529.25 454.66 533.70 448.70 C 538.14 442.74 540.90 437.01 544.02 430.02 C 547.14 423.04 547.92 414.16 548.00 406.00 C 548.08 397.84 548.68 386.56 545.93 379.07 C 543.17 371.59 542.36 364.93 537.75 358.25 C 533.15 351.56 530.97 348.18 524.25 342.75 C 517.52 337.32 526.83 330.70 527.67 323.67 C 528.51 316.65 530.64 303.65 528.78 296.22 C 526.92 288.80 525.51 281.64 520.30 275.70 C 515.08 269.77 520.72 260.99 520.00 253.00 C 519.28 245.01 517.66 238.66 510.68 234.32 C 503.70 229.98 496.50 229.59 488.07 227.93 C 479.65 226.27 469.94 225.90 461.00 226.00 C 452.07 226.10 444.58 228.28 436.68 230.68 C 428.78 233.08 425.62 238.09 418.67 241.67 C 411.72 245.25 404.55 234.35 397.00 235.00 C 389.46 235.65 380.05 231.48 372.01 233.01 C 363.97 234.54 355.72 234.54 348.02 238.02 C 340.33 241.51 331.71 238.23 323.02 239.02 C 314.34 239.82 306.10 240.83 297.25 241.80 C 288.39 242.77 292.08 228.89 289.77 222.23 C 287.46 215.57 280.56 210.15 273.00 210.00 C 265.44 209.85 250.43 212.74 254.00 204.00 C 257.58 195.27 254.25 184.96 254.00 177.00 C 253.75 169.04 253.48 159.32 247.70 154.30 C 241.92 149.27 232.52 150.11 232.78 140.22 C 233.04 130.34 225.04 129.24 218.00 127.00 C 210.96 124.76 198.92 127.98 191.07 127.07 C 183.23 126.16 174.32 133.30 167.75 127.25 C 161.17 121.21 152.66 122.67 144.00 122.00 C 135.34 121.33 129.93 125.27 123.75 130.75 C 117.57 136.23 115.90 142.42 114.00 150.00 C 112.10 157.58 115.16 169.34 110.77 175.77 C 106.38 182.20 101.65 189.15 103.00 197.00 C 104.35 204.85 102.09 213.81 110.30 217.70 C 118.52 221.59 122.05 230.61 112.00 231.00 C 101.95 231.39 93.47 231.97 85.00 233.00 C 76.53 234.04 69.14 234.74 65.78 242.78 C 62.41 250.81 65.93 259.08 57.23 263.23 C 48.54 267.38 52.32 278.11 51.00 286.00 C 49.68 293.89 53.78 304.16 54.00 312.00 C 54.22 319.83 61.89 324.42 69.00 325.00
C 69.37 335.32 72.05 347.32 74.00 357.00 C 75.95 366.67 79.04 374.02 88.31 378.69 C 97.57 383.37 107.57 385.90 118.00 386.00 C 128.43 386.10 139.39 384.66 148.33 380.33 C 157.26 375.99 173.89 379.15 174.00 389.00 C 174.11 398.85 173.54 411.41 183.78 415.22 C 194.01 419.03 191.50 432.58 193.67 442.33 C 195.84 452.07 197.73 459.87 205.25 466.75 C 212.78 473.62 222.49 475.71 233.00 476.00 C 243.51 476.29 255.02 475.80 264.31 473.31 C 273.59 470.81 280.26 461.57 289.99 468.01 C 299.72 474.44 312.23 466.39 322.98 468.98 C 333.72 471.56 341.23 460.09 350.32 460.68 C 359.42 461.26 374.07 464.99 384.00 463.00 C 393.93 461.01 406.34 463.99 412.00 455.00
M 170.00 134.00 
C 190.18 130.44 233.32 118.44 231.00 152.00
C 240.35 153.59 248.37 155.22 249.98 166.02 C 251.58 176.83 251.16 186.17 251.22 197.22 C 251.29 208.27 243.44 211.12 235.00 215.00
C 248.23 214.76 260.70 211.75 275.22 213.78 C 289.75 215.80 288.38 234.09 289.00 246.00
C 299.50 243.99 311.34 244.11 322.00 243.00 C 332.66 241.89 343.15 244.12 353.02 240.02 C 362.90 235.92 373.93 236.16 384.22 236.78 C 394.51 237.40 403.60 239.96 412.23 244.77 C 420.85 249.58 425.17 237.85 434.22 235.22 C 443.27 232.60 453.40 228.79 464.00 229.00 C 474.60 229.21 487.53 229.70 497.22 232.78 C 506.91 235.86 515.42 238.35 516.78 249.22 C 518.14 260.09 510.51 269.57 518.25 277.75 C 525.98 285.93 525.08 295.45 526.00 306.00 C 526.92 316.55 524.47 326.27 518.75 334.75 C 513.02 343.22 527.32 347.59 530.77 355.23 C 534.22 362.87 541.36 369.78 542.93 379.07 C 544.50 388.36 546.23 403.89 544.67 413.67 C 543.11 423.45 540.72 432.51 535.25 440.25 C 529.78 447.98 525.96 453.59 518.25 459.25 C 510.54 464.90 503.71 468.78 494.33 471.33 C 484.94 473.88 471.62 474.48 461.78 473.22 C 451.94 471.96 441.87 470.22 433.77 465.23 C 425.67 460.24 420.80 453.75 413.00 449.00
C 411.03 457.47 404.34 457.48 397.00 459.00 C 389.65 460.52 379.75 459.90 372.00 461.00 C 364.25 462.10 355.40 458.98 349.30 457.70 C 343.21 456.41 338.92 466.71 330.99 464.99 C 323.07 463.28 313.71 467.33 306.00 467.00 C 298.29 466.67 289.80 467.38 283.77 463.23 C 277.75 459.08 275.23 468.74 267.92 469.92 C 260.62 471.10 252.87 474.35 245.00 474.00 C 237.13 473.65 228.46 474.22 221.92 471.08 C 215.38 467.94 208.87 467.40 204.70 461.30 C 200.53 455.20 197.01 450.91 197.01 442.99 C 197.01 435.08 195.04 426.10 195.00 418.00 C 194.96 409.89 181.36 414.55 180.08 405.92 C 178.79 397.30 177.00 391.90 177.00 383.00 C 177.01 374.09 164.84 376.67 158.00 375.00 C 151.15 373.34 145.57 379.42 138.33 380.33 C 131.09 381.24 122.68 383.56 115.00 383.00 C 107.32 382.44 100.25 380.44 93.92 377.08 C 87.58 373.73 84.41 370.74 79.75 365.25 C 75.10 359.76 75.75 350.19 74.00 344.00 C 72.25 337.81 75.39 324.04 68.97 322.03 C 62.56 320.02 55.90 316.94 56.02 308.98 C 56.15 301.01 52.99 291.27 54.00 284.00 C 55.01 276.73 52.67 266.84 61.23 264.23 C 69.79 261.62 65.26 252.11 68.33 245.33 C 71.40 238.55 78.29 235.23 86.00 236.00 C 93.72 236.78 101.39 231.74 110.00 234.00 C 118.61 236.27 126.13 231.95 122.00 223.00 C 117.87 214.05 111.18 217.76 108.08 209.92 C 104.98 202.08 104.85 194.36 106.99 186.99 C 109.14 179.63 116.78 177.28 116.00 169.00 C 115.22 160.72 116.77 151.61 118.00 144.00 C 119.23 136.38 124.36 134.54 129.08 129.08 C 133.81 123.62 145.15 125.13 152.00 125.00 C 158.85 124.87 166.17 128.02 170.00 134.00 Z"/>
</g>
<g fill="None" fill-opacity="0.0" stroke="#FDFBF8" stroke-opacity="1.00" stroke-width="0.3"><path d="
M 170.00 134.00 
C 166.17 128.02 158.85 124.87 152.00 125.00 C 145.15 125.13 133.81 123.62 129.08 129.08 C 124.36 134.54 119.23 136.38 118.00 144.00 C 116.77 151.61 115.22 160.72 116.00 169.00 C 116.78 177.28 109.14 179.63 106.99 186.99 C 104.85 194.36 104.98 202.08 108.08 209.92 C 111.18 217.76 117.87 214.05 122.00 223.00 C 126.13 231.95 118.61 236.27 110.00 234.00 C 101.39 231.74 93.72 236.78 86.00 236.00 C 78.29 235.23 71.40 238.55 68.33 245.33 C 65.26 252.11 69.79 261.62 61.23 264.23 C 52.67 266.84 55.01 276.73 54.00 284.00 C 52.99 291.27 56.15 301.01 56.02 308.98 C 55.90 316.94 62.56 320.02 68.97 322.03 C 75.39 324.04 72.25 337.81 74.00 344.00 C 75.75 350.19 75.10 359.76 79.75 365.25 C 84.41 370.74 87.58 373.73 93.92 377.08 C 100.25 380.44 107.32 382.44 115.00 383.00 C 122.68 383.56 131.09 381.24 138.33 380.33 C 145.57 379.42 151.15 373.34 158.00 375.00 C 164.84 376.67 177.01 374.09 177.00 383.00 C 177.00 391.90 178.79 397.30 180.08 405.92 C 181.36 414.55 194.96 409.89 195.00 418.00 C 195.04 426.10 197.01 435.08 197.01 442.99 C 197.01 450.91 200.53 455.20 204.70 461.30 C 208.87 467.40 215.38 467.94 221.92 471.08 C 228.46 474.22 237.13 473.65 245.00 474.00 C 252.87 474.35 260.62 471.10 267.92 469.92 C 275.23 468.74 277.75 459.08 283.77 463.23 C 289.80 467.38 298.29 466.67 306.00 467.00 C 313.71 467.33 323.07 463.28 330.99 464.99 C 338.92 466.71 343.21 456.41 349.30 457.70 C 355.40 458.98 364.25 462.10 372.00 461.00 C 379.75 459.90 389.65 460.52 397.00 459.00 C 404.34 457.48 411.03 457.47 413.00 449.00
C 420.80 453.75 425.67 460.24 433.77 465.23 C 441.87 470.22 451.94 471.96 461.78 473.22 C 471.62 474.48 484.94 473.88 494.33 471.33 C 503.71 468.78 510.54 464.90 518.25 459.25 C 525.96 453.59 529.78 447.98 535.25 440.25 C 540.72 432.51 543.11 423.45 544.67 413.67 C 546.23 403.89 544.50 388.36 542.93 379.07 C 541.36 369.78 534.22 362.87 530.77 355.23 C 527.32 347.59 513.02 343.22 518.75 334.75 C 524.47 326.27 526.92 316.55 526.00 306.00 C 525.08 295.45 525.98 285.93 518.25 277.75 C 510.51 269.57 518.14 260.09 516.78 249.22 C 515.42 238.35 506.91 235.86 497.22 232.78 C 487.53 229.70 474.60 229.21 464.00 229.00 C 453.40 228.79 443.27 232.60 434.22 235.22 C 425.17 237.85 420.85 249.58 412.23 244.77 C 403.60 239.96 394.51 237.40 384.22 236.78 C 373.93 236.16 362.90 235.92 353.02 240.02 C 343.15 244.12 332.66 241.89 322.00 243.00 C 311.34 244.11 299.50 243.99 289.00 246.00
C 288.38 234.09 289.75 215.80 275.22 213.78 C 260.70 211.75 248.23 214.76 235.00 215.00
C 243.44 211.12 251.29 208.27 251.22 197.22 C 251.16 186.17 251.58 176.83 249.98 166.02 C 248.37 155.22 240.35 153.59 231.00 152.00
C 233.32 118.44 190.18 130.44 170.00 134.00
M 150.00 180.00 
C 156.91 184.77 156.44 190.31 158.00 198.00
C 158.98 200.82 160.89 203.24 162.00 206.00
C 164.49 210.02 166.56 217.58 166.00 222.00 C 165.44 226.42 165.81 240.54 165.00 240.00
C 164.65 239.77 164.00 240.00 164.00 240.00
C 164.00 246.01 164.62 252.37 163.00 258.00
C 164.33 259.34 167.43 259.47 168.00 262.00
C 164.82 264.17 160.11 264.10 156.00 264.00
C 158.07 258.14 153.22 252.66 155.00 246.00
C 154.85 245.41 153.22 244.21 154.00 243.00
C 152.74 243.08 153.44 245.06 152.00 245.00
C 150.64 251.68 146.33 258.07 149.00 264.00
C 145.64 265.20 139.23 266.54 137.00 263.00
C 138.55 261.45 141.18 261.17 142.00 259.00
C 138.15 250.64 139.56 239.94 138.00 231.00 C 136.44 222.06 140.26 211.37 130.25 206.75 C 120.25 202.12 119.37 199.23 124.25 191.25 C 129.14 183.28 140.89 182.93 139.00 177.00
C 136.79 176.09 130.63 179.48 132.78 173.78 C 134.93 168.07 130.52 169.05 131.00 165.00
C 131.47 161.04 134.91 158.57 136.00 155.00
C 132.73 154.36 131.20 152.61 132.00 149.00
C 138.34 150.52 138.51 139.81 145.08 139.08 C 151.64 138.35 157.29 143.36 157.00 150.00 C 156.70 156.65 164.75 161.38 162.00 169.00
C 155.56 168.97 157.89 180.52 150.00 180.00
M 236.00 192.00 
C 236.15 192.58 239.94 195.59 239.00 198.00
C 233.89 202.28 227.06 198.62 221.00 202.00
C 223.29 209.53 216.65 224.10 224.77 228.23 C 232.88 232.36 247.18 226.65 256.00 228.00
C 258.67 228.00 261.33 228.00 264.00 228.00
C 266.67 228.00 269.33 228.00 272.00 228.00
C 272.52 230.19 270.86 233.62 273.00 235.00
C 272.45 233.92 276.79 240.62 275.00 246.00 C 273.21 251.38 277.23 256.56 277.00 262.00 C 276.76 267.45 277.00 274.42 277.00 280.00
C 277.00 282.67 277.00 285.33 277.00 288.00
C 278.43 287.36 280.83 285.50 282.00 284.00
C 287.62 274.54 289.98 260.72 302.00 260.00
C 306.19 259.03 310.60 258.00 316.00 258.00
C 322.33 258.00 328.67 258.00 335.00 258.00
C 333.36 266.84 323.71 273.61 320.70 281.70 C 317.68 289.79 305.81 297.17 312.00 305.00
C 318.25 311.76 324.73 318.93 331.00 325.00
C 331.47 322.43 330.46 320.35 330.00 318.00
C 329.36 314.96 328.32 312.13 328.00 309.00
C 325.06 280.42 340.71 256.45 369.07 252.07 C 397.43 247.70 422.92 267.70 424.00 296.00
C 424.17 296.74 424.89 297.74 425.00 299.00
C 427.52 309.16 422.01 308.00 413.00 308.00
C 405.37 308.00 398.08 308.10 390.93 309.93 C 383.77 311.76 375.07 308.95 368.00 311.00
C 362.71 313.27 373.84 319.55 376.00 320.00
C 384.81 321.09 392.48 319.86 400.22 315.22 C 407.97 310.58 407.11 318.48 413.75 324.25 C 420.39 330.01 420.73 335.54 411.78 338.78 C 402.82 342.01 399.28 344.76 390.00 346.00
C 373.32 350.32 354.81 347.27 341.00 337.00
C 341.16 341.42 346.07 343.48 348.00 347.00
C 347.06 347.57 346.18 348.15 345.00 348.00
C 343.74 348.20 342.27 348.00 341.00 348.00
C 339.81 348.16 337.80 348.93 336.00 349.00
C 329.70 349.91 323.08 351.00 316.00 351.00
C 305.41 351.00 302.47 350.84 297.00 342.00
C 293.18 337.62 289.24 333.54 287.00 328.00
C 281.47 328.78 281.76 335.64 282.00 340.00
C 282.00 342.00 282.03 344.00 282.00 346.00
C 282.35 349.64 284.87 353.47 279.00 354.00
C 277.69 354.12 276.31 354.00 275.00 354.00
C 268.77 354.00 249.21 360.63 247.03 352.97 C 244.85 345.31 246.79 330.93 245.00 322.00 C 243.21 313.07 244.28 301.25 242.07 291.93 C 239.87 282.60 241.97 270.53 240.00 261.00
C 224.56 261.57 203.72 267.82 192.25 253.75 C 180.77 239.69 187.57 218.80 184.00 202.00
C 179.00 202.00 174.00 202.00 169.00 202.00
C 169.56 191.70 166.14 182.39 167.00 172.00
C 172.34 171.54 182.54 174.53 182.00 167.00 C 181.45 159.46 180.72 154.55 181.00 147.00
C 191.42 145.28 198.22 145.72 209.07 144.07 C 219.92 142.43 215.20 160.60 217.00 168.00
C 223.00 168.00 229.00 168.00 235.00 168.00
C 236.80 175.61 235.71 184.00 236.00 192.00
M 450.00 310.00 
C 453.83 310.66 456.86 312.22 460.00 313.00
C 471.41 314.00 482.58 309.62 471.00 306.00 C 459.41 302.38 451.34 305.89 441.78 302.22 C 432.21 298.56 428.73 294.29 425.22 285.78 C 421.71 277.26 424.82 267.57 429.25 260.25 C 433.69 252.94 441.06 249.48 449.07 247.07 C 457.08 244.66 470.08 242.47 479.00 244.00 C 487.92 245.53 495.23 248.82 503.00 253.00
C 499.77 260.73 496.08 268.24 493.00 276.00
C 481.15 274.62 477.67 264.57 463.78 269.78 C 449.89 274.99 471.20 277.57 480.00 278.00 C 488.80 278.42 500.57 282.04 506.25 289.75 C 511.92 297.46 513.29 310.76 508.68 319.68 C 504.06 328.60 496.08 332.44 486.99 335.99 C 477.91 339.54 464.22 341.02 453.98 339.02 C 443.73 337.03 433.91 336.04 425.00 330.00
C 427.75 321.27 431.99 313.28 436.00 305.00
C 440.91 305.64 444.78 309.91 450.00 310.00
M 138.00 292.00 
C 138.81 300.37 140.19 303.00 130.00 303.00
C 129.50 303.00 128.50 303.03 128.00 303.00
C 126.44 303.47 124.20 304.69 122.00 304.00
C 122.00 305.67 122.00 307.33 122.00 309.00
C 122.67 320.32 120.11 341.32 138.00 334.00
C 140.53 342.71 143.99 351.12 146.00 360.00
C 134.33 367.23 118.40 369.36 105.00 365.00
C 91.93 362.82 88.00 349.26 88.00 336.00
C 88.00 333.33 88.00 330.67 88.00 328.00
C 88.00 324.77 87.27 321.89 87.00 319.00
C 86.19 316.41 85.71 311.53 83.74 309.26 C 81.77 306.99 72.57 311.30 71.00 308.00
C 70.56 307.07 71.07 305.04 71.00 304.00
C 70.39 295.43 68.80 286.81 69.00 278.00
C 74.13 278.24 78.73 276.27 84.00 277.00
C 84.38 268.41 81.45 260.65 82.00 252.00
C 90.51 250.39 97.16 251.42 106.00 250.00 C 114.84 248.58 119.79 250.99 117.99 262.01 C 116.19 273.02 122.29 274.55 132.07 272.07 C 141.85 269.60 136.82 286.76 138.00 292.00
M 250.00 458.00 
C 240.71 460.98 228.64 461.64 221.00 454.00
C 216.39 451.20 214.71 446.63 213.00 442.00
C 208.07 428.64 210.81 412.96 208.00 399.00
C 200.21 399.77 192.14 401.68 192.67 392.33 C 193.20 382.98 189.66 378.26 191.00 369.00
C 195.93 369.67 200.22 368.01 205.00 368.00
C 205.04 362.56 205.29 357.12 204.00 352.00
C 196.27 355.68 189.71 363.36 180.00 362.00
C 173.55 362.92 169.94 361.93 164.00 360.00
C 149.65 356.77 142.29 342.48 144.00 328.00 C 145.71 313.52 159.41 304.74 173.00 304.00
C 177.68 303.24 192.40 300.63 195.00 307.00
C 195.44 307.16 196.00 307.00 196.00 307.00
C 202.38 306.06 193.36 292.10 187.00 294.00 C 180.64 295.90 172.11 295.71 167.00 298.00
C 163.94 299.79 161.52 302.33 158.00 303.00
C 153.45 297.14 150.55 289.89 145.00 285.00
C 157.33 268.51 176.83 266.72 197.00 266.00 C 217.17 265.28 233.94 278.38 234.33 299.67 C 234.72 320.96 239.60 343.47 240.00 365.00
C 246.60 365.70 252.54 363.93 259.00 364.00
C 259.39 374.06 260.24 384.01 261.00 394.00
C 255.08 394.59 249.18 395.43 243.00 395.00
C 244.01 406.99 240.35 432.85 260.00 426.00
C 261.72 433.56 264.91 440.73 266.93 448.07 C 268.95 455.42 255.26 456.81 250.00 458.00
M 480.00 458.00 
C 474.82 458.93 469.09 458.73 464.00 458.00
C 422.23 456.41 402.72 403.48 422.00 371.00
C 426.35 363.67 432.67 356.55 440.00 352.00
C 440.36 351.78 441.00 352.00 441.00 352.00
C 443.38 348.19 449.15 347.35 453.00 346.00
C 483.68 330.83 521.00 356.46 527.99 387.01 C 534.98 417.55 514.67 455.64 480.00 458.00
M 362.00 447.00 
C 357.69 446.28 356.41 438.73 354.25 434.75 C 352.08 430.78 351.12 422.59 350.00 418.00
C 348.93 415.44 347.98 412.66 347.00 410.00
C 346.26 408.53 343.87 403.13 342.00 405.00
C 337.81 419.32 336.72 434.59 333.00 449.00
C 320.29 449.80 307.74 451.25 295.00 452.00
C 284.67 422.33 271.81 393.02 262.00 363.00
C 271.79 362.50 278.30 363.22 288.00 361.00 C 297.71 358.79 301.11 367.63 302.00 376.00
C 303.21 379.19 305.38 382.24 306.00 386.00
C 310.34 387.81 309.39 395.41 312.00 399.00
C 313.73 397.57 313.24 393.79 316.00 393.00
C 316.38 391.27 316.57 389.74 317.00 388.00
C 318.92 380.24 320.01 368.63 323.78 361.78 C 327.55 354.92 342.72 356.69 351.00 356.00 C 359.28 355.31 359.35 371.15 362.93 377.07 C 366.50 382.99 370.13 393.38 373.00 400.00
C 376.92 394.57 375.83 384.45 377.93 376.93 C 380.02 369.40 378.54 360.20 382.00 353.00
C 384.24 351.16 388.96 352.00 392.00 352.00
C 400.48 352.00 408.58 350.33 417.00 350.00
C 411.89 381.49 404.46 412.51 399.00 444.00
C 386.31 443.55 374.34 445.99 362.00 447.00 Z"/>
</g>
<g fill="None" fill-opacity="0.0" stroke="#F98742" stroke-opacity="1.00" stroke-width="0.3"><path d="
M 131.00 165.00 
C 131.16 166.64 131.94 168.33 134.00 168.00
C 134.35 170.86 133.73 173.39 133.00 176.00
C 134.69 178.29 137.91 175.57 139.00 177.00
C 140.89 182.93 129.14 183.28 124.25 191.25 C 119.37 199.23 120.25 202.12 130.25 206.75 C 140.26 211.37 136.44 222.06 138.00 231.00 C 139.56 239.94 138.15 250.64 142.00 259.00
C 141.18 261.17 138.55 261.45 137.00 263.00
C 139.23 266.54 145.64 265.20 149.00 264.00
C 146.33 258.07 150.64 251.68 152.00 245.00
C 152.42 242.94 153.07 240.93 154.00 239.00
C 155.96 240.45 154.56 243.80 155.00 246.00
C 153.22 252.66 158.07 258.14 156.00 264.00
C 160.11 264.10 164.82 264.17 168.00 262.00
C 167.43 259.47 164.33 259.34 163.00 258.00
C 164.62 252.37 164.00 246.01 164.00 240.00
C 164.00 233.29 164.42 225.95 165.00 220.00
C 165.00 214.51 163.94 210.83 162.00 206.00
C 160.89 203.24 158.98 200.82 158.00 198.00
C 157.02 195.17 157.22 189.51 154.75 187.25 C 152.28 184.99 148.36 182.36 150.00 180.00
C 157.89 180.52 155.56 168.97 162.00 169.00
C 164.75 161.38 156.70 156.65 157.00 150.00 C 157.29 143.36 151.64 138.35 145.08 139.08 C 138.51 139.81 138.34 150.52 132.00 149.00
C 131.20 152.61 132.73 154.36 136.00 155.00
C 134.91 158.57 131.47 161.04 131.00 165.00
M 136.00 191.00 
C 135.06 193.72 142.32 201.90 138.69 203.69 C 135.06 205.49 128.82 198.77 128.00 196.00
C 131.27 195.37 133.42 192.90 136.00 191.00 Z"/>
</g>
<g fill="None" fill-opacity="0.0" stroke="#FC853B" stroke-opacity="1.00" stroke-width="0.3"><path d="
M 275.00 354.00 
C 276.57 353.75 278.93 351.89 281.00 352.00
C 281.00 348.00 281.00 344.00 281.00 340.00
C 281.00 334.27 281.15 329.40 285.00 325.00
C 289.41 326.81 291.86 332.87 294.00 337.00
C 301.00 346.81 303.19 350.00 316.00 350.00
C 318.65 350.00 321.36 350.18 324.00 350.00
C 329.34 349.13 334.78 348.00 341.00 348.00
C 342.27 348.00 343.74 348.20 345.00 348.00
C 341.10 340.84 335.18 334.57 330.00 328.00
C 325.99 323.99 322.01 319.84 319.00 315.00
C 318.78 314.64 319.00 314.00 319.00 314.00
C 315.39 311.48 313.31 307.24 312.00 305.00
C 305.81 297.17 317.68 289.79 320.70 281.70 C 323.71 273.61 333.36 266.84 335.00 258.00
C 328.67 258.00 322.33 258.00 316.00 258.00
C 311.81 258.41 306.77 259.72 302.00 260.00
C 289.98 260.72 287.62 274.54 282.00 284.00
C 281.02 285.66 277.80 293.13 277.00 289.00
C 275.15 287.22 276.00 282.61 276.00 280.00
C 276.00 265.21 274.44 249.86 273.00 235.00
C 270.86 233.62 272.52 230.19 272.00 228.00
C 269.33 228.00 266.67 228.00 264.00 228.00
C 259.07 228.48 253.62 230.00 248.00 230.00
C 240.85 230.00 225.92 234.63 221.25 227.75 C 216.58 220.88 220.70 207.04 219.00 199.00
C 224.82 199.32 230.06 197.25 236.00 198.00
C 236.00 196.00 236.00 194.00 236.00 192.00
C 235.71 184.00 236.80 175.61 235.00 168.00
C 229.00 168.00 223.00 168.00 217.00 168.00
C 215.20 160.60 219.92 142.43 209.07 144.07 C 198.22 145.72 191.42 145.28 181.00 147.00
C 180.72 154.55 181.45 159.46 182.00 167.00 C 182.54 174.53 172.34 171.54 167.00 172.00
C 166.14 182.39 169.56 191.70 169.00 202.00
C 174.00 202.00 179.00 202.00 184.00 202.00
C 187.57 218.80 180.77 239.69 192.25 253.75 C 203.72 267.82 224.56 261.57 240.00 261.00
C 241.97 270.53 239.87 282.60 242.07 291.93 C 244.28 301.25 243.21 313.07 245.00 322.00 C 246.79 330.93 244.85 345.31 247.03 352.97 C 249.21 360.63 268.77 354.00 275.00 354.00 Z"/>
</g>
<g fill="None" fill-opacity="0.0" stroke="#F6C19A" stroke-opacity="1.00" stroke-width="0.3"><path d="
M 139.00 177.00 
C 137.91 175.57 134.69 178.29 133.00 176.00
C 133.73 173.39 134.35 170.86 134.00 168.00
C 131.94 168.33 131.16 166.64 131.00 165.00
C 130.52 169.05 134.93 168.07 132.78 173.78 C 130.63 179.48 136.79 176.09 139.00 177.00 Z"/>
</g>
<g fill="None" fill-opacity="0.0" stroke="#F6B48F" stroke-opacity="1.00" stroke-width="0.3"><path d="
M 158.00 198.00 
C 156.44 190.31 156.91 184.77 150.00 180.00
C 148.36 182.36 152.28 184.99 154.75 187.25 C 157.22 189.51 157.02 195.17 158.00 198.00 Z"/>
</g>
<g fill="None" fill-opacity="0.0" stroke="#FDF0DF" stroke-opacity="1.00" stroke-width="0.3"><path d="
M 136.00 191.00 
C 133.42 192.90 131.27 195.37 128.00 196.00
C 128.82 198.77 135.06 205.49 138.69 203.69 C 142.32 201.90 135.06 193.72 136.00 191.00 Z"/>
</g>
<g fill="None" fill-opacity="0.0" stroke="#FEEAD2" stroke-opacity="1.00" stroke-width="0.3"><path d="
M 248.00 230.00 
C 249.88 229.82 254.19 228.18 256.00 228.00
C 247.18 226.65 232.88 232.36 224.77 228.23 C 216.65 224.10 223.29 209.53 221.00 202.00
C 227.06 198.62 233.89 202.28 239.00 198.00
C 239.94 195.59 236.15 192.58 236.00 192.00
C 236.00 194.00 236.00 196.00 236.00 198.00
C 230.06 197.25 224.82 199.32 219.00 199.00
C 220.70 207.04 216.58 220.88 221.25 227.75 C 225.92 234.63 240.85 230.00 248.00 230.00 Z"/>
</g>
<g fill="None" fill-opacity="0.0" stroke="#FFECD0" stroke-opacity="1.00" stroke-width="0.3"><path d="
M 165.00 220.00 
C 165.00 226.58 165.59 233.46 165.00 240.00
C 165.81 240.54 165.44 226.42 166.00 222.00 C 166.56 217.58 164.49 210.02 162.00 206.00
C 163.94 210.83 165.00 214.51 165.00 220.00 Z"/>
</g>
<g fill="None" fill-opacity="0.0" stroke="#EEAB7B" stroke-opacity="1.00" stroke-width="0.3"><path d="
M 164.00 240.00 
C 164.00 240.00 164.65 239.77 165.00 240.00
C 165.59 233.46 165.00 226.58 165.00 220.00
C 164.42 225.95 164.00 233.29 164.00 240.00 Z"/>
</g>
<g fill="None" fill-opacity="0.0" stroke="#F5C297" stroke-opacity="1.00" stroke-width="0.3"><path d="
M 248.00 230.00 
C 253.62 230.00 259.07 228.48 264.00 228.00
C 261.33 228.00 258.67 228.00 256.00 228.00
C 254.19 228.18 249.88 229.82 248.00 230.00 Z"/>
</g>
<g fill="None" fill-opacity="0.0" stroke="#FFEBD3" stroke-opacity="1.00" stroke-width="0.3"><path d="
M 273.00 235.00 
C 274.44 249.86 276.00 265.21 276.00 280.00
C 276.00 279.96 277.00 280.00 277.00 280.00
C 277.00 274.42 276.76 267.45 277.00 262.00 C 277.23 256.56 273.21 251.38 275.00 246.00 C 276.79 240.62 272.45 233.92 273.00 235.00 Z"/>
</g>
<g fill="None" fill-opacity="0.0" stroke="#FDCE9F" stroke-opacity="1.00" stroke-width="0.3"><path d="
M 152.00 245.00 
C 153.44 245.06 152.74 243.08 154.00 243.00
C 153.22 244.21 154.85 245.41 155.00 246.00
C 154.56 243.80 155.96 240.45 154.00 239.00
C 153.07 240.93 152.42 242.94 152.00 245.00 Z"/>
</g>
<g fill="None" fill-opacity="0.0" stroke="#FB853D" stroke-opacity="1.00" stroke-width="0.3"><path d="
M 460.00 313.00 
C 456.47 312.69 452.97 311.06 450.00 310.00
C 444.78 309.91 440.91 305.64 436.00 305.00
C 431.99 313.28 427.75 321.27 425.00 330.00
C 433.91 336.04 443.73 337.03 453.98 339.02 C 464.22 341.02 477.91 339.54 486.99 335.99 C 496.08 332.44 504.06 328.60 508.68 319.68 C 513.29 310.76 511.92 297.46 506.25 289.75 C 500.57 282.04 488.80 278.42 480.00 278.00 C 471.20 277.57 449.89 274.99 463.78 269.78 C 477.67 264.57 481.15 274.62 493.00 276.00
C 496.08 268.24 499.77 260.73 503.00 253.00
C 495.23 248.82 487.92 245.53 479.00 244.00 C 470.08 242.47 457.08 244.66 449.07 247.07 C 441.06 249.48 433.69 252.94 429.25 260.25 C 424.82 267.57 421.71 277.26 425.22 285.78 C 428.73 294.29 432.21 298.56 441.78 302.22 C 451.34 305.89 459.41 302.38 471.00 306.00 C 482.58 309.62 471.41 314.00 460.00 313.00 Z"/>
</g>
<g fill="None" fill-opacity="0.0" stroke="#FB853C" stroke-opacity="1.00" stroke-width="0.3"><path d="
M 71.00 304.00 
C 71.38 304.76 72.59 305.64 72.00 307.00
C 74.00 307.00 76.00 307.00 78.00 307.00
C 88.35 306.00 86.23 310.79 87.00 319.00
C 87.27 321.89 88.00 324.77 88.00 328.00
C 88.61 334.28 89.72 342.35 91.00 349.00
C 93.32 356.54 97.38 361.86 105.00 365.00
C 118.40 369.36 134.33 367.23 146.00 360.00
C 143.99 351.12 140.53 342.71 138.00 334.00
C 120.11 341.32 122.67 320.32 122.00 309.00
C 121.71 304.09 121.19 302.52 128.00 303.00
C 128.50 303.03 129.50 303.00 130.00 303.00
C 132.23 302.05 135.13 301.65 138.00 302.00
C 138.00 298.67 138.00 295.33 138.00 292.00
C 136.82 286.76 141.85 269.60 132.07 272.07 C 122.29 274.55 116.19 273.02 117.99 262.01 C 119.79 250.99 114.84 248.58 106.00 250.00 C 97.16 251.42 90.51 250.39 82.00 252.00
C 81.45 260.65 84.38 268.41 84.00 277.00
C 78.73 276.27 74.13 278.24 69.00 278.00
C 68.80 286.81 70.39 295.43 71.00 304.00 Z"/>
</g>
<g fill="None" fill-opacity="0.0" stroke="#FB853C" stroke-opacity="1.00" stroke-width="0.3"><path d="
M 328.00 309.00 
C 328.70 312.61 331.58 318.15 333.00 322.00
C 344.85 343.50 366.28 349.16 390.00 346.00
C 399.28 344.76 402.82 342.01 411.78 338.78 C 420.73 335.54 420.39 330.01 413.75 324.25 C 407.11 318.48 407.97 310.58 400.22 315.22 C 392.48 319.86 384.81 321.09 376.00 320.00
C 371.42 319.43 365.11 316.38 365.00 311.00
C 366.00 311.00 367.00 311.00 368.00 311.00
C 375.07 308.95 383.77 311.76 390.93 309.93 C 398.08 308.10 405.37 308.00 413.00 308.00
C 413.96 307.83 415.47 307.09 417.00 307.00
C 418.75 306.69 421.58 305.17 424.00 306.00
C 424.00 302.67 424.00 299.33 424.00 296.00
C 422.92 267.70 397.43 247.70 369.07 252.07 C 340.71 256.45 325.06 280.42 328.00 309.00
M 390.00 287.00 
C 381.19 288.04 372.12 288.19 363.00 288.00
C 366.42 276.56 387.26 274.56 390.00 287.00 Z"/>
</g>
<g fill="None" fill-opacity="0.0" stroke="#FFEFCE" stroke-opacity="1.00" stroke-width="0.3"><path d="
M 302.00 260.00 
C 306.77 259.72 311.81 258.41 316.00 258.00
C 310.60 258.00 306.19 259.03 302.00 260.00 Z"/>
</g>
<g fill="None" fill-opacity="0.0" stroke="#FB853C" stroke-opacity="1.00" stroke-width="0.3"><path d="
M 167.00 298.00 
C 168.69 297.01 170.25 296.66 172.00 296.00
C 178.63 292.57 197.54 287.37 200.00 300.00
C 200.09 300.48 200.00 301.00 200.00 301.00
C 201.91 303.59 200.63 307.70 201.00 311.00
C 198.10 309.17 194.33 308.36 192.00 306.00
C 185.77 304.50 179.80 303.63 173.00 304.00
C 159.41 304.74 145.71 313.52 144.00 328.00 C 142.29 342.48 149.65 356.77 164.00 360.00
C 169.38 361.21 174.13 362.22 180.00 362.00
C 189.71 363.36 196.27 355.68 204.00 352.00
C 205.29 357.12 205.04 362.56 205.00 368.00
C 200.22 368.01 195.93 369.67 191.00 369.00
C 189.66 378.26 193.20 382.98 192.67 392.33 C 192.14 401.68 200.21 399.77 208.00 399.00
C 210.81 412.96 208.07 428.64 213.00 442.00
C 215.03 446.01 219.08 452.17 223.00 455.00
C 231.29 459.79 240.70 459.33 250.00 458.00
C 255.26 456.81 268.95 455.42 266.93 448.07 C 264.91 440.73 261.72 433.56 260.00 426.00
C 240.35 432.85 244.01 406.99 243.00 395.00
C 249.18 395.43 255.08 394.59 261.00 394.00
C 260.24 384.01 259.39 374.06 259.00 364.00
C 252.54 363.93 246.60 365.70 240.00 365.00
C 239.60 343.47 234.72 320.96 234.33 299.67 C 233.94 278.38 217.17 265.28 197.00 266.00 C 176.83 266.72 157.33 268.51 145.00 285.00
C 150.55 289.89 153.45 297.14 158.00 303.00
C 161.52 302.33 163.94 299.79 167.00 298.00
M 195.00 325.00 
C 208.44 327.41 198.62 342.31 186.00 338.00 C 173.38 333.69 183.12 322.87 195.00 325.00 Z"/>
</g>
<g fill="None" fill-opacity="0.0" stroke="#FDF8EE" stroke-opacity="1.00" stroke-width="0.3"><path d="
M 390.00 287.00 
C 387.26 274.56 366.42 276.56 363.00 288.00
C 372.12 288.19 381.19 288.04 390.00 287.00 Z"/>
</g>
<g fill="None" fill-opacity="0.0" stroke="#EDB797" stroke-opacity="1.00" stroke-width="0.3"><path d="
M 277.00 289.00 
C 276.91 288.52 277.00 288.00 277.00 288.00
C 277.00 285.33 277.00 282.67 277.00 280.00
C 277.00 280.00 276.00 279.96 276.00 280.00
C 276.00 282.61 275.15 287.22 277.00 289.00 Z"/>
</g>
<g fill="None" fill-opacity="0.0" stroke="#FFE7C1" stroke-opacity="1.00" stroke-width="0.3"><path d="
M 277.00 288.00 
C 277.00 288.00 276.91 288.52 277.00 289.00
C 277.80 293.13 281.02 285.66 282.00 284.00
C 280.83 285.50 278.43 287.36 277.00 288.00 Z"/>
</g>
<g fill="None" fill-opacity="0.0" stroke="#F0B087" stroke-opacity="1.00" stroke-width="0.3"><path d="
M 130.00 303.00 
C 140.19 303.00 138.81 300.37 138.00 292.00
C 138.00 295.33 138.00 298.67 138.00 302.00
C 135.13 301.65 132.23 302.05 130.00 303.00 Z"/>
</g>
<g fill="None" fill-opacity="0.0" stroke="#F1AC7F" stroke-opacity="1.00" stroke-width="0.3"><path d="
M 172.00 296.00 
C 181.32 292.48 193.75 290.22 200.00 300.00
C 197.54 287.37 178.63 292.57 172.00 296.00 Z"/>
</g>
<g fill="None" fill-opacity="0.0" stroke="#FFF0D7" stroke-opacity="1.00" stroke-width="0.3"><path d="
M 172.00 296.00 
C 170.25 296.66 168.69 297.01 167.00 298.00
C 172.11 295.71 180.64 295.90 187.00 294.00 C 193.36 292.10 202.38 306.06 196.00 307.00
C 196.89 308.07 198.42 309.07 200.00 309.00
C 200.00 306.33 200.00 303.67 200.00 301.00
C 200.00 301.00 200.09 300.48 200.00 300.00
C 193.75 290.22 181.32 292.48 172.00 296.00 Z"/>
</g>
<g fill="None" fill-opacity="0.0" stroke="#EAAA81" stroke-opacity="1.00" stroke-width="0.3"><path d="
M 417.00 307.00 
C 419.66 306.85 422.34 307.12 425.00 307.00
C 425.00 304.33 425.00 301.67 425.00 299.00
C 424.89 297.74 424.17 296.74 424.00 296.00
C 424.00 299.33 424.00 302.67 424.00 306.00
C 421.58 305.17 418.75 306.69 417.00 307.00 Z"/>
</g>
<g fill="None" fill-opacity="0.0" stroke="#FFE5CB" stroke-opacity="1.00" stroke-width="0.3"><path d="
M 417.00 307.00 
C 415.47 307.09 413.96 307.83 413.00 308.00
C 422.01 308.00 427.52 309.16 425.00 299.00
C 425.00 301.67 425.00 304.33 425.00 307.00
C 422.34 307.12 419.66 306.85 417.00 307.00 Z"/>
</g>
<g fill="None" fill-opacity="0.0" stroke="#F7B287" stroke-opacity="1.00" stroke-width="0.3"><path d="
M 196.00 307.00 
C 196.00 307.00 195.44 307.16 195.00 307.00
C 193.88 306.59 193.20 306.29 192.00 306.00
C 194.33 308.36 198.10 309.17 201.00 311.00
C 200.63 307.70 201.91 303.59 200.00 301.00
C 200.00 303.67 200.00 306.33 200.00 309.00
C 198.42 309.07 196.89 308.07 196.00 307.00 Z"/>
</g>
<g fill="None" fill-opacity="0.0" stroke="#FFC89B" stroke-opacity="1.00" stroke-width="0.3"><path d="
M 122.00 309.00 
C 122.00 307.33 122.00 305.67 122.00 304.00
C 124.20 304.69 126.44 303.47 128.00 303.00
C 121.19 302.52 121.71 304.09 122.00 309.00 Z"/>
</g>
<g fill="None" fill-opacity="0.0" stroke="#FEEDD1" stroke-opacity="1.00" stroke-width="0.3"><path d="
M 173.00 304.00 
C 179.80 303.63 185.77 304.50 192.00 306.00
C 193.20 306.29 193.88 306.59 195.00 307.00
C 192.40 300.63 177.68 303.24 173.00 304.00 Z"/>
</g>
<g fill="None" fill-opacity="0.0" stroke="#F2B48C" stroke-opacity="1.00" stroke-width="0.3"><path d="
M 71.00 308.00 
C 73.34 308.98 76.43 307.15 78.00 307.00
C 76.00 307.00 74.00 307.00 72.00 307.00
C 72.59 305.64 71.38 304.76 71.00 304.00
C 71.07 305.04 70.56 307.07 71.00 308.00 Z"/>
</g>
<g fill="None" fill-opacity="0.0" stroke="#F4B489" stroke-opacity="1.00" stroke-width="0.3"><path d="
M 319.00 314.00 
C 316.68 310.96 314.43 307.93 312.00 305.00
C 313.31 307.24 315.39 311.48 319.00 314.00 Z"/>
</g>
<g fill="None" fill-opacity="0.0" stroke="#FEEAD3" stroke-opacity="1.00" stroke-width="0.3"><path d="
M 319.00 314.00 
C 319.00 314.00 318.78 314.64 319.00 315.00
C 323.93 318.44 326.44 323.49 330.00 328.00
C 335.18 334.57 341.10 340.84 345.00 348.00
C 346.18 348.15 347.06 347.57 348.00 347.00
C 346.07 343.48 341.16 341.42 341.00 337.00
C 354.81 347.27 373.32 350.32 390.00 346.00
C 366.28 349.16 344.85 343.50 333.00 322.00
C 332.36 320.84 330.50 319.16 330.00 318.00
C 330.46 320.35 331.47 322.43 331.00 325.00
C 324.73 318.93 318.25 311.76 312.00 305.00
C 314.43 307.93 316.68 310.96 319.00 314.00 Z"/>
</g>
<g fill="None" fill-opacity="0.0" stroke="#FFEED3" stroke-opacity="1.00" stroke-width="0.3"><path d="
M 71.00 308.00 
C 72.57 311.30 81.77 306.99 83.74 309.26 C 85.71 311.53 86.19 316.41 87.00 319.00
C 86.23 310.79 88.35 306.00 78.00 307.00
C 76.43 307.15 73.34 308.98 71.00 308.00 Z"/>
</g>
<g fill="None" fill-opacity="0.0" stroke="#F1B48C" stroke-opacity="1.00" stroke-width="0.3"><path d="
M 330.00 318.00 
C 330.50 319.16 332.36 320.84 333.00 322.00
C 331.58 318.15 328.70 312.61 328.00 309.00
C 328.32 312.13 329.36 314.96 330.00 318.00 Z"/>
</g>
<g fill="None" fill-opacity="0.0" stroke="#FFE8C9" stroke-opacity="1.00" stroke-width="0.3"><path d="
M 460.00 313.00 
C 456.86 312.22 453.83 310.66 450.00 310.00
C 452.97 311.06 456.47 312.69 460.00 313.00 Z"/>
</g>
<g fill="None" fill-opacity="0.0" stroke="#FAC198" stroke-opacity="1.00" stroke-width="0.3"><path d="
M 376.00 320.00 
C 373.84 319.55 362.71 313.27 368.00 311.00
C 367.00 311.00 366.00 311.00 365.00 311.00
C 365.11 316.38 371.42 319.43 376.00 320.00 Z"/>
</g>
<g fill="None" fill-opacity="0.0" stroke="#F7B285" stroke-opacity="1.00" stroke-width="0.3"><path d="
M 330.00 328.00 
C 326.44 323.49 323.93 318.44 319.00 315.00
C 322.01 319.84 325.99 323.99 330.00 328.00 Z"/>
</g>
<g fill="None" fill-opacity="0.0" stroke="#FCFAF2" stroke-opacity="1.00" stroke-width="0.3"><path d="
M 195.00 325.00 
C 183.12 322.87 173.38 333.69 186.00 338.00 C 198.62 342.31 208.44 327.41 195.00 325.00 Z"/>
</g>
<g fill="None" fill-opacity="0.0" stroke="#FFE6C8" stroke-opacity="1.00" stroke-width="0.3"><path d="
M 281.00 340.00 
C 281.00 339.96 282.00 340.00 282.00 340.00
C 281.76 335.64 281.47 328.78 287.00 328.00
C 289.24 333.54 293.18 337.62 297.00 342.00
C 295.98 340.36 294.94 338.67 294.00 337.00
C 291.86 332.87 289.41 326.81 285.00 325.00
C 281.15 329.40 281.00 334.27 281.00 340.00 Z"/>
</g>
<g fill="None" fill-opacity="0.0" stroke="#F4AE7F" stroke-opacity="1.00" stroke-width="0.3"><path d="
M 88.00 336.00 
C 88.37 339.80 89.88 345.37 91.00 349.00
C 89.72 342.35 88.61 334.28 88.00 328.00
C 88.00 330.67 88.00 333.33 88.00 336.00 Z"/>
</g>
<g fill="None" fill-opacity="0.0" stroke="#FEEBD1" stroke-opacity="1.00" stroke-width="0.3"><path d="
M 105.00 365.00 
C 97.38 361.86 93.32 356.54 91.00 349.00
C 89.88 345.37 88.37 339.80 88.00 336.00
C 88.00 349.26 91.93 362.82 105.00 365.00 Z"/>
</g>
<g fill="None" fill-opacity="0.0" stroke="#F1B288" stroke-opacity="1.00" stroke-width="0.3"><path d="
M 297.00 342.00 
C 302.47 350.84 305.41 351.00 316.00 351.00
C 315.96 351.00 316.00 350.00 316.00 350.00
C 303.19 350.00 301.00 346.81 294.00 337.00
C 294.94 338.67 295.98 340.36 297.00 342.00 Z"/>
</g>
<g fill="None" fill-opacity="0.0" stroke="#F4AB80" stroke-opacity="1.00" stroke-width="0.3"><path d="
M 275.00 354.00 
C 276.31 354.00 277.69 354.12 279.00 354.00
C 279.54 353.88 280.83 352.19 282.00 353.00
C 282.00 350.67 282.00 348.33 282.00 346.00
C 282.03 344.00 282.00 342.00 282.00 340.00
C 282.00 340.00 281.00 339.96 281.00 340.00
C 281.00 344.00 281.00 348.00 281.00 352.00
C 278.93 351.89 276.57 353.75 275.00 354.00 Z"/>
</g>
<g fill="None" fill-opacity="0.0" stroke="#FB833A" stroke-opacity="1.00" stroke-width="0.3"><path d="
M 453.00 346.00 
C 449.25 347.85 445.15 350.37 441.00 352.00
C 441.00 352.00 440.36 351.78 440.00 352.00
C 435.60 358.75 426.85 364.47 422.00 371.00
C 402.72 403.48 422.23 456.41 464.00 458.00
C 469.23 458.20 474.78 458.36 480.00 458.00
C 514.67 455.64 534.98 417.55 527.99 387.01 C 521.00 356.46 483.68 330.83 453.00 346.00
M 484.00 359.00 
C 481.95 357.72 483.35 354.00 485.00 353.00
C 487.06 354.28 485.65 358.00 484.00 359.00
M 503.00 361.00 
C 498.50 362.16 489.69 363.75 486.00 360.00
C 490.75 355.33 498.73 356.16 503.00 361.00
M 480.00 360.00 
C 485.43 365.23 482.16 370.83 480.08 376.08 C 478.01 381.33 490.18 381.56 490.77 387.23 C 491.37 392.90 497.65 396.93 498.92 402.08 C 500.19 407.23 494.15 409.30 490.25 413.25 C 486.35 417.19 483.24 421.78 483.07 428.07 C 482.90 434.37 479.77 440.29 478.00 446.00
C 469.09 447.98 472.35 437.01 468.00 432.00
C 466.59 437.52 468.01 448.42 459.00 446.00
C 456.64 435.65 452.47 422.71 454.00 411.00 C 455.52 399.29 454.02 383.84 467.00 379.00
C 460.75 372.98 467.53 366.77 468.00 360.00
C 471.95 357.85 475.78 360.34 480.00 360.00 Z"/>
</g>
<g fill="None" fill-opacity="0.0" stroke="#FDDDCA" stroke-opacity="1.00" stroke-width="0.3"><path d="
M 279.00 354.00 
C 284.87 353.47 282.35 349.64 282.00 346.00
C 282.00 348.33 282.00 350.67 282.00 353.00
C 280.83 352.19 279.54 353.88 279.00 354.00 Z"/>
</g>
<g fill="None" fill-opacity="0.0" stroke="#F6B98D" stroke-opacity="1.00" stroke-width="0.3"><path d="
M 441.00 352.00 
C 445.15 350.37 449.25 347.85 453.00 346.00
C 449.15 347.35 443.38 348.19 441.00 352.00 Z"/>
</g>
<g fill="None" fill-opacity="0.0" stroke="#F2B789" stroke-opacity="1.00" stroke-width="0.3"><path d="
M 324.00 350.00 
C 328.04 349.72 331.77 349.17 336.00 349.00
C 337.80 348.93 339.81 348.16 341.00 348.00
C 334.78 348.00 329.34 349.13 324.00 350.00 Z"/>
</g>
<g fill="None" fill-opacity="0.0" stroke="#FFEDCF" stroke-opacity="1.00" stroke-width="0.3"><path d="
M 324.00 350.00 
C 321.36 350.18 318.65 350.00 316.00 350.00
C 316.00 350.00 315.96 351.00 316.00 351.00
C 323.08 351.00 329.70 349.91 336.00 349.00
C 331.77 349.17 328.04 349.72 324.00 350.00 Z"/>
</g>
<g fill="None" fill-opacity="0.0" stroke="#FC853C" stroke-opacity="1.00" stroke-width="0.3"><path d="
M 392.00 352.00 
C 390.72 352.12 383.32 352.25 382.00 353.00
C 378.54 360.20 380.02 369.40 377.93 376.93 C 375.83 384.45 376.92 394.57 373.00 400.00
C 370.13 393.38 366.50 382.99 362.93 377.07 C 359.35 371.15 359.28 355.31 351.00 356.00 C 342.72 356.69 327.55 354.92 323.78 361.78 C 320.01 368.63 318.92 380.24 317.00 388.00
C 316.66 390.90 316.12 395.61 315.00 399.00
C 314.33 401.02 313.87 403.03 313.00 405.00
C 309.14 400.20 308.33 392.92 306.00 387.00
C 304.68 383.51 302.99 379.88 302.00 376.00
C 301.11 367.63 297.71 358.79 288.00 361.00 C 278.30 363.22 271.79 362.50 262.00 363.00
C 271.81 393.02 284.67 422.33 295.00 452.00
C 307.74 451.25 320.29 449.80 333.00 449.00
C 336.72 434.59 337.81 419.32 342.00 405.00
C 342.43 403.52 341.11 400.48 344.00 401.00
C 344.31 404.21 346.45 406.85 347.00 410.00
C 347.98 412.66 348.93 415.44 350.00 418.00
C 353.91 427.37 357.61 437.48 362.00 447.00
C 374.34 445.99 386.31 443.55 399.00 444.00
C 404.46 412.51 411.89 381.49 417.00 350.00
C 408.58 350.33 400.48 352.00 392.00 352.00 Z"/>
</g>
<g fill="None" fill-opacity="0.0" stroke="#FFE3BF" stroke-opacity="1.00" stroke-width="0.3"><path d="
M 382.00 353.00 
C 383.32 352.25 390.72 352.12 392.00 352.00
C 388.96 352.00 384.24 351.16 382.00 353.00 Z"/>
</g>
<g fill="None" fill-opacity="0.0" stroke="#F9BC93" stroke-opacity="1.00" stroke-width="0.3"><path d="
M 422.00 371.00 
C 426.85 364.47 435.60 358.75 440.00 352.00
C 432.67 356.55 426.35 363.67 422.00 371.00 Z"/>
</g>
<g fill="None" fill-opacity="0.0" stroke="#A92F05" stroke-opacity="1.00" stroke-width="0.3"><path d="
M 484.00 359.00 
C 485.65 358.00 487.06 354.28 485.00 353.00
C 483.35 354.00 481.95 357.72 484.00 359.00 Z"/>
</g>
<g fill="None" fill-opacity="0.0" stroke="#941D03" stroke-opacity="1.00" stroke-width="0.3"><path d="
M 503.00 361.00 
C 498.73 356.16 490.75 355.33 486.00 360.00
C 489.69 363.75 498.50 362.16 503.00 361.00 Z"/>
</g>
<g fill="None" fill-opacity="0.0" stroke="#871302" stroke-opacity="1.00" stroke-width="0.3"><path d="
M 480.00 360.00 
C 475.78 360.34 471.95 357.85 468.00 360.00
C 467.53 366.77 460.75 372.98 467.00 379.00
C 454.02 383.84 455.52 399.29 454.00 411.00 C 452.47 422.71 456.64 435.65 459.00 446.00
C 468.01 448.42 466.59 437.52 468.00 432.00
C 472.35 437.01 469.09 447.98 478.00 446.00
C 479.77 440.29 482.90 434.37 483.07 428.07 C 483.24 421.78 486.35 417.19 490.25 413.25 C 494.15 409.30 500.19 407.23 498.92 402.08 C 497.65 396.93 491.37 392.90 490.77 387.23 C 490.18 381.56 478.01 381.33 480.08 376.08 C 482.16 370.83 485.43 365.23 480.00 360.00
M 485.00 395.00 
C 487.30 398.34 489.24 402.73 483.00 403.00
C 483.74 400.52 481.19 395.18 485.00 395.00 Z"/>
</g>
<g fill="None" fill-opacity="0.0" stroke="#F4BD98" stroke-opacity="1.00" stroke-width="0.3"><path d="
M 180.00 362.00 
C 174.13 362.22 169.38 361.21 164.00 360.00
C 169.94 361.93 173.55 362.92 180.00 362.00 Z"/>
</g>
<g fill="None" fill-opacity="0.0" stroke="#F7BA90" stroke-opacity="1.00" stroke-width="0.3"><path d="
M 306.00 387.00 
C 305.85 386.55 306.00 386.00 306.00 386.00
C 305.38 382.24 303.21 379.19 302.00 376.00
C 302.99 379.88 304.68 383.51 306.00 387.00 Z"/>
</g>
<g fill="None" fill-opacity="0.0" stroke="#FFEDD7" stroke-opacity="1.00" stroke-width="0.3"><path d="
M 306.00 387.00 
C 308.33 392.92 309.14 400.20 313.00 405.00
C 313.87 403.03 314.33 401.02 315.00 399.00
C 315.41 396.94 315.56 394.99 316.00 393.00
C 313.24 393.79 313.73 397.57 312.00 399.00
C 309.39 395.41 310.34 387.81 306.00 386.00
C 306.00 386.00 305.85 386.55 306.00 387.00 Z"/>
</g>
<g fill="None" fill-opacity="0.0" stroke="#F2B38C" stroke-opacity="1.00" stroke-width="0.3"><path d="
M 316.00 393.00 
C 315.56 394.99 315.41 396.94 315.00 399.00
C 316.12 395.61 316.66 390.90 317.00 388.00
C 316.57 389.74 316.38 391.27 316.00 393.00 Z"/>
</g>
<g fill="None" fill-opacity="0.0" stroke="#E4703D" stroke-opacity="1.00" stroke-width="0.3"><path d="
M 485.00 395.00 
C 481.19 395.18 483.74 400.52 483.00 403.00
C 489.24 402.73 487.30 398.34 485.00 395.00 Z"/>
</g>
<g fill="None" fill-opacity="0.0" stroke="#FFE0BE" stroke-opacity="1.00" stroke-width="0.3"><path d="
M 342.00 405.00 
C 343.87 403.13 346.26 408.53 347.00 410.00
C 346.45 406.85 344.31 404.21 344.00 401.00
C 341.11 400.48 342.43 403.52 342.00 405.00 Z"/>
</g>
<g fill="None" fill-opacity="0.0" stroke="#FEE9CD" stroke-opacity="1.00" stroke-width="0.3"><path d="
M 362.00 447.00 
C 357.61 437.48 353.91 427.37 350.00 418.00
C 351.12 422.59 352.08 430.78 354.25 434.75 C 356.41 438.73 357.69 446.28 362.00 447.00 Z"/>
</g>
<g fill="None" fill-opacity="0.0" stroke="#F5B78E" stroke-opacity="1.00" stroke-width="0.3"><path d="
M 221.00 454.00 
C 221.65 454.40 222.37 454.63 223.00 455.00
C 219.08 452.17 215.03 446.01 213.00 442.00
C 214.71 446.63 216.39 451.20 221.00 454.00 Z"/>
</g>
<g fill="None" fill-opacity="0.0" stroke="#FDE9CD" stroke-opacity="1.00" stroke-width="0.3"><path d="
M 250.00 458.00 
C 240.70 459.33 231.29 459.79 223.00 455.00
C 222.37 454.63 221.65 454.40 221.00 454.00
C 228.64 461.64 240.71 460.98 250.00 458.00 Z"/>
</g>
<g fill="None" fill-opacity="0.0" stroke="#EDB38B" stroke-opacity="1.00" stroke-width="0.3"><path d="
M 480.00 458.00 
C 474.78 458.36 469.23 458.20 464.00 458.00
C 469.09 458.73 474.82 458.93 480.00 458.00 Z"/>
</g>
<g fill="#F8F8F8" fill-opacity="1.00" stroke="None">
<path d="
M 0.00 600.00 
L 600.00 600.00
L 600.00 0.00
L 0.00 0.00
L 0.00 600.00
M 412.00 455.00 
C 406.34 463.99 393.93 461.01 384.00 463.00 C 374.07 464.99 359.42 461.26 350.32 460.68 C 341.23 460.09 333.72 471.56 322.98 468.98 C 312.23 466.39 299.72 474.44 289.99 468.01 C 280.26 461.57 273.59 470.81 264.31 473.31 C 255.02 475.80 243.51 476.29 233.00 476.00 C 222.49 475.71 212.78 473.62 205.25 466.75 C 197.73 459.87 195.84 452.07 193.67 442.33 C 191.50 432.58 194.01 419.03 183.78 415.22 C 173.54 411.41 174.11 398.85 174.00 389.00 C 173.89 379.15 157.26 375.99 148.33 380.33 C 139.39 384.66 128.43 386.10 118.00 386.00 C 107.57 385.90 97.57 383.37 88.31 378.69 C 79.04 374.02 75.95 366.67 74.00 357.00 C 72.05 347.32 69.37 335.32 69.00 325.00
C 61.89 324.42 54.22 319.83 54.00 312.00 C 53.78 304.16 49.68 293.89 51.00 286.00 C 52.32 278.11 48.54 267.38 57.23 263.23 C 65.93 259.08 62.41 250.81 65.78 242.78 C 69.14 234.74 76.53 234.04 85.00 233.00 C 93.47 231.97 101.95 231.39 112.00 231.00 C 122.05 230.61 118.52 221.59 110.30 217.70 C 102.09 213.81 104.35 204.85 103.00 197.00 C 101.65 189.15 106.38 182.20 110.77 175.77 C 115.16 169.34 112.10 157.58 114.00 150.00 C 115.90 142.42 117.57 136.23 123.75 130.75 C 129.93 125.27 135.34 121.33 144.00 122.00 C 152.66 122.67 161.17 121.21 167.75 127.25 C 174.32 133.30 183.23 126.16 191.07 127.07 C 198.92 127.98 210.96 124.76 218.00 127.00 C 225.04 129.24 233.04 130.34 232.78 140.22 C 232.52 150.11 241.92 149.27 247.70 154.30 C 253.48 159.32 253.75 169.04 254.00 177.00 C 254.25 184.96 257.58 195.27 254.00 204.00 C 250.43 212.74 265.44 209.85 273.00 210.00 C 280.56 210.15 287.46 215.57 289.77 222.23 C 292.08 228.89 288.39 242.77 297.25 241.80 C 306.10 240.83 314.34 239.82 323.02 239.02 C 331.71 238.23 340.33 241.51 348.02 238.02 C 355.72 234.54 363.97 234.54 372.01 233.01 C 380.05 231.48 389.46 235.65 397.00 235.00 C 404.55 234.35 411.72 245.25 418.67 241.67 C 425.62 238.09 428.78 233.08 436.68 230.68 C 444.58 228.28 452.07 226.10 461.00 226.00 C 469.94 225.90 479.65 226.27 488.07 227.93 C 496.50 229.59 503.70 229.98 510.68 234.32 C 517.66 238.66 519.28 245.01 520.00 253.00 C 520.72 260.99 515.08 269.77 520.30 275.70 C 525.51 281.64 526.92 288.80 528.78 296.22 C 530.64 303.65 528.51 316.65 527.67 323.67 C 526.83 330.70 517.52 337.32 524.25 342.75 C 530.97 348.18 533.15 351.56 537.75 358.25 C 542.36 364.93 543.17 371.59 545.93 379.07 C 548.68 386.56 548.08 397.84 548.00 406.00 C 547.92 414.16 547.14 423.04 544.02 430.02 C 540.90 437.01 538.14 442.74 533.70 448.70 C 529.25 454.66 525.10 459.06 518.78 462.78 C 512.45 466.49 507.33 470.72 499.93 472.93 C 492.53 475.13 483.22 477.12 475.00 477.00 C 466.78 476.88 457.46 476.46 450.00 475.00 C 442.54 473.54 436.26 469.48 429.77 466.23 C 423.28 462.98 419.09 455.27 412.00 455.00 Z"/>
</g>
<g fill="#DADADA" fill-opacity="1.00" stroke="None">
<path d="
M 412.00 455.00 
C 419.09 455.27 423.28 462.98 429.77 466.23 C 436.26 469.48 442.54 473.54 450.00 475.00 C 457.46 476.46 466.78 476.88 475.00 477.00 C 483.22 477.12 492.53 475.13 499.93 472.93 C 507.33 470.72 512.45 466.49 518.78 462.78 C 525.10 459.06 529.25 454.66 533.70 448.70 C 538.14 442.74 540.90 437.01 544.02 430.02 C 547.14 423.04 547.92 414.16 548.00 406.00 C 548.08 397.84 548.68 386.56 545.93 379.07 C 543.17 371.59 542.36 364.93 537.75 358.25 C 533.15 351.56 530.97 348.18 524.25 342.75 C 517.52 337.32 526.83 330.70 527.67 323.67 C 528.51 316.65 530.64 303.65 528.78 296.22 C 526.92 288.80 525.51 281.64 520.30 275.70 C 515.08 269.77 520.72 260.99 520.00 253.00 C 519.28 245.01 517.66 238.66 510.68 234.32 C 503.70 229.98 496.50 229.59 488.07 227.93 C 479.65 226.27 469.94 225.90 461.00 226.00 C 452.07 226.10 444.58 228.28 436.68 230.68 C 428.78 233.08 425.62 238.09 418.67 241.67 C 411.72 245.25 404.55 234.35 397.00 235.00 C 389.46 235.65 380.05 231.48 372.01 233.01 C 363.97 234.54 355.72 234.54 348.02 238.02 C 340.33 241.51 331.71 238.23 323.02 239.02 C 314.34 239.82 306.10 240.83 297.25 241.80 C 288.39 242.77 292.08 228.89 289.77 222.23 C 287.46 215.57 280.56 210.15 273.00 210.00 C 265.44 209.85 250.43 212.74 254.00 204.00 C 257.58 195.27 254.25 184.96 254.00 177.00 C 253.75 169.04 253.48 159.32 247.70 154.30 C 241.92 149.27 232.52 150.11 232.78 140.22 C 233.04 130.34 225.04 129.24 218.00 127.00 C 210.96 124.76 198.92 127.98 191.07 127.07 C 183.23 126.16 174.32 133.30 167.75 127.25 C 161.17 121.21 152.66 122.67 144.00 122.00 C 135.34 121.33 129.93 125.27 123.75 130.75 C 117.57 136.23 115.90 142.42 114.00 150.00 C 112.10 157.58 115.16 169.34 110.77 175.77 C 106.38 182.20 101.65 189.15 103.00 197.00 C 104.35 204.85 102.09 213.81 110.30 217.70 C 118.52 221.59 122.05 230.61 112.00 231.00 C 101.95 231.39 93.47 231.97 85.00 233.00 C 76.53 234.04 69.14 234.74 65.78 242.78 C 62.41 250.81 65.93 259.08 57.23 263.23 C 48.54 267.38 52.32 278.11 51.00 286.00 C 49.68 293.89 53.78 304.16 54.00 312.00 C 54.22 319.83 61.89 324.42 69.00 325.00
C 69.37 335.32 72.05 347.32 74.00 357.00 C 75.95 366.67 79.04 374.02 88.31 378.69 C 97.57 383.37 107.57 385.90 118.00 386.00 C 128.43 386.10 139.39 384.66 148.33 380.33 C 157.26 375.99 173.89 379.15 174.00 389.00 C 174.11 398.85 173.54 411.41 183.78 415.22 C 194.01 419.03 191.50 432.58 193.67 442.33 C 195.84 452.07 197.73 459.87 205.25 466.75 C 212.78 473.62 222.49 475.71 233.00 476.00 C 243.51 476.29 255.02 475.80 264.31 473.31 C 273.59 470.81 280.26 461.57 289.99 468.01 C 299.72 474.44 312.23 466.39 322.98 468.98 C 333.72 471.56 341.23 460.09 350.32 460.68 C 359.42 461.26 374.07 464.99 384.00 463.00 C 393.93 461.01 406.34 463.99 412.00 455.00
M 170.00 134.00 
C 190.18 130.44 233.32 118.44 231.00 152.00
C 240.35 153.59 248.37 155.22 249.98 166.02 C 251.58 176.83 251.16 186.17 251.22 197.22 C 251.29 208.27 243.44 211.12 235.00 215.00
C 248.23 214.76 260.70 211.75 275.22 213.78 C 289.75 215.80 288.38 234.09 289.00 246.00
C 299.50 243.99 311.34 244.11 322.00 243.00 C 332.66 241.89 343.15 244.12 353.02 240.02 C 362.90 235.92 373.93 236.16 384.22 236.78 C 394.51 237.40 403.60 239.96 412.23 244.77 C 420.85 249.58 425.17 237.85 434.22 235.22 C 443.27 232.60 453.40 228.79 464.00 229.00 C 474.60 229.21 487.53 229.70 497.22 232.78 C 506.91 235.86 515.42 238.35 516.78 249.22 C 518.14 260.09 510.51 269.57 518.25 277.75 C 525.98 285.93 525.08 295.45 526.00 306.00 C 526.92 316.55 524.47 326.27 518.75 334.75 C 513.02 343.22 527.32 347.59 530.77 355.23 C 534.22 362.87 541.36 369.78 542.93 379.07 C 544.50 388.36 546.23 403.89 544.67 413.67 C 543.11 423.45 540.72 432.51 535.25 440.25 C 529.78 447.98 525.96 453.59 518.25 459.25 C 510.54 464.90 503.71 468.78 494.33 471.33 C 484.94 473.88 471.62 474.48 461.78 473.22 C 451.94 471.96 441.87 470.22 433.77 465.23 C 425.67 460.24 420.80 453.75 413.00 449.00
C 411.03 457.47 404.34 457.48 397.00 459.00 C 389.65 460.52 379.75 459.90 372.00 461.00 C 364.25 462.10 355.40 458.98 349.30 457.70 C 343.21 456.41 338.92 466.71 330.99 464.99 C 323.07 463.28 313.71 467.33 306.00 467.00 C 298.29 466.67 289.80 467.38 283.77 463.23 C 277.75 459.08 275.23 468.74 267.92 469.92 C 260.62 471.10 252.87 474.35 245.00 474.00 C 237.13 473.65 228.46 474.22 221.92 471.08 C 215.38 467.94 208.87 467.40 204.70 461.30 C 200.53 455.20 197.01 450.91 197.01 442.99 C 197.01 435.08 195.04 426.10 195.00 418.00 C 194.96 409.89 181.36 414.55 180.08 405.92 C 178.79 397.30 177.00 391.90 177.00 383.00 C 177.01 374.09 164.84 376.67 158.00 375.00 C 151.15 373.34 145.57 379.42 138.33 380.33 C 131.09 381.24 122.68 383.56 115.00 383.00 C 107.32 382.44 100.25 380.44 93.92 377.08 C 87.58 373.73 84.41 370.74 79.75 365.25 C 75.10 359.76 75.75 350.19 74.00 344.00 C 72.25 337.81 75.39 324.04 68.97 322.03 C 62.56 320.02 55.90 316.94 56.02 308.98 C 56.15 301.01 52.99 291.27 54.00 284.00 C 55.01 276.73 52.67 266.84 61.23 264.23 C 69.79 261.62 65.26 252.11 68.33 245.33 C 71.40 238.55 78.29 235.23 86.00 236.00 C 93.72 236.78 101.39 231.74 110.00 234.00 C 118.61 236.27 126.13 231.95 122.00 223.00 C 117.87 214.05 111.18 217.76 108.08 209.92 C 104.98 202.08 104.85 194.36 106.99 186.99 C 109.14 179.63 116.78 177.28 116.00 169.00 C 115.22 160.72 116.77 151.61 118.00 144.00 C 119.23 136.38 124.36 134.54 129.08 129.08 C 133.81 123.62 145.15 125.13 152.00 125.00 C 158.85 124.87 166.17 128.02 170.00 134.00 Z"/>
</g>
<g fill="#FDFBF8" fill-opacity="1.00" stroke="None">
<path d="
M 170.00 134.00 
C 166.17 128.02 158.85 124.87 152.00 125.00 C 145.15 125.13 133.81 123.62 129.08 129.08 C 124.36 134.54 119.23 136.38 118.00 144.00 C 116.77 151.61 115.22 160.72 116.00 169.00 C 116.78 177.28 109.14 179.63 106.99 186.99 C 104.85 194.36 104.98 202.08 108.08 209.92 C 111.18 217.76 117.87 214.05 122.00 223.00 C 126.13 231.95 118.61 236.27 110.00 234.00 C 101.39 231.74 93.72 236.78 86.00 236.00 C 78.29 235.23 71.40 238.55 68.33 245.33 C 65.26 252.11 69.79 261.62 61.23 264.23 C 52.67 266.84 55.01 276.73 54.00 284.00 C 52.99 291.27 56.15 301.01 56.02 308.98 C 55.90 316.94 62.56 320.02 68.97 322.03 C 75.39 324.04 72.25 337.81 74.00 344.00 C 75.75 350.19 75.10 359.76 79.75 365.25 C 84.41 370.74 87.58 373.73 93.92 377.08 C 100.25 380.44 107.32 382.44 115.00 383.00 C 122.68 383.56 131.09 381.24 138.33 380.33 C 145.57 379.42 151.15 373.34 158.00 375.00 C 164.84 376.67 177.01 374.09 177.00 383.00 C 177.00 391.90 178.79 397.30 180.08 405.92 C 181.36 414.55 194.96 409.89 195.00 418.00 C 195.04 426.10 197.01 435.08 197.01 442.99 C 197.01 450.91 200.53 455.20 204.70 461.30 C 208.87 467.40 215.38 467.94 221.92 471.08 C 228.46 474.22 237.13 473.65 245.00 474.00 C 252.87 474.35 260.62 471.10 267.92 469.92 C 275.23 468.74 277.75 459.08 283.77 463.23 C 289.80 467.38 298.29 466.67 306.00 467.00 C 313.71 467.33 323.07 463.28 330.99 464.99 C 338.92 466.71 343.21 456.41 349.30 457.70 C 355.40 458.98 364.25 462.10 372.00 461.00 C 379.75 459.90 389.65 460.52 397.00 459.00 C 404.34 457.48 411.03 457.47 413.00 449.00
C 420.80 453.75 425.67 460.24 433.77 465.23 C 441.87 470.22 451.94 471.96 461.78 473.22 C 471.62 474.48 484.94 473.88 494.33 471.33 C 503.71 468.78 510.54 464.90 518.25 459.25 C 525.96 453.59 529.78 447.98 535.25 440.25 C 540.72 432.51 543.11 423.45 544.67 413.67 C 546.23 403.89 544.50 388.36 542.93 379.07 C 541.36 369.78 534.22 362.87 530.77 355.23 C 527.32 347.59 513.02 343.22 518.75 334.75 C 524.47 326.27 526.92 316.55 526.00 306.00 C 525.08 295.45 525.98 285.93 518.25 277.75 C 510.51 269.57 518.14 260.09 516.78 249.22 C 515.42 238.35 506.91 235.86 497.22 232.78 C 487.53 229.70 474.60 229.21 464.00 229.00 C 453.40 228.79 443.27 232.60 434.22 235.22 C 425.17 237.85 420.85 249.58 412.23 244.77 C 403.60 239.96 394.51 237.40 384.22 236.78 C 373.93 236.16 362.90 235.92 353.02 240.02 C 343.15 244.12 332.66 241.89 322.00 243.00 C 311.34 244.11 299.50 243.99 289.00 246.00
C 288.38 234.09 289.75 215.80 275.22 213.78 C 260.70 211.75 248.23 214.76 235.00 215.00
C 243.44 211.12 251.29 208.27 251.22 197.22 C 251.16 186.17 251.58 176.83 249.98 166.02 C 248.37 155.22 240.35 153.59 231.00 152.00
C 233.32 118.44 190.18 130.44 170.00 134.00
M 150.00 180.00 
C 156.91 184.77 156.44 190.31 158.00 198.00
C 158.98 200.82 160.89 203.24 162.00 206.00
C 164.49 210.02 166.56 217.58 166.00 222.00 C 165.44 226.42 165.81 240.54 165.00 240.00
C 164.65 239.77 164.00 240.00 164.00 240.00
C 164.00 246.01 164.62 252.37 163.00 258.00
C 164.33 259.34 167.43 259.47 168.00 262.00
C 164.82 264.17 160.11 264.10 156.00 264.00
C 158.07 258.14 153.22 252.66 155.00 246.00
C 154.85 245.41 153.22 244.21 154.00 243.00
C 152.74 243.08 153.44 245.06 152.00 245.00
C 150.64 251.68 146.33 258.07 149.00 264.00
C 145.64 265.20 139.23 266.54 137.00 263.00
C 138.55 261.45 141.18 261.17 142.00 259.00
C 138.15 250.64 139.56 239.94 138.00 231.00 C 136.44 222.06 140.26 211.37 130.25 206.75 C 120.25 202.12 119.37 199.23 124.25 191.25 C 129.14 183.28 140.89 182.93 139.00 177.00
C 136.79 176.09 130.63 179.48 132.78 173.78 C 134.93 168.07 130.52 169.05 131.00 165.00
C 131.47 161.04 134.91 158.57 136.00 155.00
C 132.73 154.36 131.20 152.61 132.00 149.00
C 138.34 150.52 138.51 139.81 145.08 139.08 C 151.64 138.35 157.29 143.36 157.00 150.00 C 156.70 156.65 164.75 161.38 162.00 169.00
C 155.56 168.97 157.89 180.52 150.00 180.00
M 236.00 192.00 
C 236.15 192.58 239.94 195.59 239.00 198.00
C 233.89 202.28 227.06 198.62 221.00 202.00
C 223.29 209.53 216.65 224.10 224.77 228.23 C 232.88 232.36 247.18 226.65 256.00 228.00
C 258.67 228.00 261.33 228.00 264.00 228.00
C 266.67 228.00 269.33 228.00 272.00 228.00
C 272.52 230.19 270.86 233.62 273.00 235.00
C 272.45 233.92 276.79 240.62 275.00 246.00 C 273.21 251.38 277.23 256.56 277.00 262.00 C 276.76 267.45 277.00 274.42 277.00 280.00
C 277.00 282.67 277.00 285.33 277.00 288.00
C 278.43 287.36 280.83 285.50 282.00 284.00
C 287.62 274.54 289.98 260.72 302.00 260.00
C 306.19 259.03 310.60 258.00 316.00 258.00
C 322.33 258.00 328.67 258.00 335.00 258.00
C 333.36 266.84 323.71 273.61 320.70 281.70 C 317.68 289.79 305.81 297.17 312.00 305.00
C 318.25 311.76 324.73 318.93 331.00 325.00
C 331.47 322.43 330.46 320.35 330.00 318.00
C 329.36 314.96 328.32 312.13 328.00 309.00
C 325.06 280.42 340.71 256.45 369.07 252.07 C 397.43 247.70 422.92 267.70 424.00 296.00
C 424.17 296.74 424.89 297.74 425.00 299.00
C 427.52 309.16 422.01 308.00 413.00 308.00
C 405.37 308.00 398.08 308.10 390.93 309.93 C 383.77 311.76 375.07 308.95 368.00 311.00
C 362.71 313.27 373.84 319.55 376.00 320.00
C 384.81 321.09 392.48 319.86 400.22 315.22 C 407.97 310.58 407.11 318.48 413.75 324.25 C 420.39 330.01 420.73 335.54 411.78 338.78 C 402.82 342.01 399.28 344.76 390.00 346.00
C 373.32 350.32 354.81 347.27 341.00 337.00
C 341.16 341.42 346.07 343.48 348.00 347.00
C 347.06 347.57 346.18 348.15 345.00 348.00
C 343.74 348.20 342.27 348.00 341.00 348.00
C 339.81 348.16 337.80 348.93 336.00 349.00
C 329.70 349.91 323.08 351.00 316.00 351.00
C 305.41 351.00 302.47 350.84 297.00 342.00
C 293.18 337.62 289.24 333.54 287.00 328.00
C 281.47 328.78 281.76 335.64 282.00 340.00
C 282.00 342.00 282.03 344.00 282.00 346.00
C 282.35 349.64 284.87 353.47 279.00 354.00
C 277.69 354.12 276.31 354.00 275.00 354.00
C 268.77 354.00 249.21 360.63 247.03 352.97 C 244.85 345.31 246.79 330.93 245.00 322.00 C 243.21 313.07 244.28 301.25 242.07 291.93 C 239.87 282.60 241.97 270.53 240.00 261.00
C 224.56 261.57 203.72 267.82 192.25 253.75 C 180.77 239.69 187.57 218.80 184.00 202.00
C 179.00 202.00 174.00 202.00 169.00 202.00
C 169.56 191.70 166.14 182.39 167.00 172.00
C 172.34 171.54 182.54 174.53 182.00 167.00 C 181.45 159.46 180.72 154.55 181.00 147.00
C 191.42 145.28 198.22 145.72 209.07 144.07 C 219.92 142.43 215.20 160.60 217.00 168.00
C 223.00 168.00 229.00 168.00 235.00 168.00
C 236.80 175.61 235.71 184.00 236.00 192.00
M 450.00 310.00 
C 453.83 310.66 456.86 312.22 460.00 313.00
C 471.41 314.00 482.58 309.62 471.00 306.00 C 459.41 302.38 451.34 305.89 441.78 302.22 C 432.21 298.56 428.73 294.29 425.22 285.78 C 421.71 277.26 424.82 267.57 429.25 260.25 C 433.69 252.94 441.06 249.48 449.07 247.07 C 457.08 244.66 470.08 242.47 479.00 244.00 C 487.92 245.53 495.23 248.82 503.00 253.00
C 499.77 260.73 496.08 268.24 493.00 276.00
C 481.15 274.62 477.67 264.57 463.78 269.78 C 449.89 274.99 471.20 277.57 480.00 278.00 C 488.80 278.42 500.57 282.04 506.25 289.75 C 511.92 297.46 513.29 310.76 508.68 319.68 C 504.06 328.60 496.08 332.44 486.99 335.99 C 477.91 339.54 464.22 341.02 453.98 339.02 C 443.73 337.03 433.91 336.04 425.00 330.00
C 427.75 321.27 431.99 313.28 436.00 305.00
C 440.91 305.64 444.78 309.91 450.00 310.00
M 138.00 292.00 
C 138.81 300.37 140.19 303.00 130.00 303.00
C 129.50 303.00 128.50 303.03 128.00 303.00
C 126.44 303.47 124.20 304.69 122.00 304.00
C 122.00 305.67 122.00 307.33 122.00 309.00
C 122.67 320.32 120.11 341.32 138.00 334.00
C 140.53 342.71 143.99 351.12 146.00 360.00
C 134.33 367.23 118.40 369.36 105.00 365.00
C 91.93 362.82 88.00 349.26 88.00 336.00
C 88.00 333.33 88.00 330.67 88.00 328.00
C 88.00 324.77 87.27 321.89 87.00 319.00
C 86.19 316.41 85.71 311.53 83.74 309.26 C 81.77 306.99 72.57 311.30 71.00 308.00
C 70.56 307.07 71.07 305.04 71.00 304.00
C 70.39 295.43 68.80 286.81 69.00 278.00
C 74.13 278.24 78.73 276.27 84.00 277.00
C 84.38 268.41 81.45 260.65 82.00 252.00
C 90.51 250.39 97.16 251.42 106.00 250.00 C 114.84 248.58 119.79 250.99 117.99 262.01 C 116.19 273.02 122.29 274.55 132.07 272.07 C 141.85 269.60 136.82 286.76 138.00 292.00
M 250.00 458.00 
C 240.71 460.98 228.64 461.64 221.00 454.00
C 216.39 451.20 214.71 446.63 213.00 442.00
C 208.07 428.64 210.81 412.96 208.00 399.00
C 200.21 399.77 192.14 401.68 192.67 392.33 C 193.20 382.98 189.66 378.26 191.00 369.00
C 195.93 369.67 200.22 368.01 205.00 368.00
C 205.04 362.56 205.29 357.12 204.00 352.00
C 196.27 355.68 189.71 363.36 180.00 362.00
C 173.55 362.92 169.94 361.93 164.00 360.00
C 149.65 356.77 142.29 342.48 144.00 328.00 C 145.71 313.52 159.41 304.74 173.00 304.00
C 177.68 303.24 192.40 300.63 195.00 307.00
C 195.44 307.16 196.00 307.00 196.00 307.00
C 202.38 306.06 193.36 292.10 187.00 294.00 C 180.64 295.90 172.11 295.71 167.00 298.00
C 163.94 299.79 161.52 302.33 158.00 303.00
C 153.45 297.14 150.55 289.89 145.00 285.00
C 157.33 268.51 176.83 266.72 197.00 266.00 C 217.17 265.28 233.94 278.38 234.33 299.67 C 234.72 320.96 239.60 343.47 240.00 365.00
C 246.60 365.70 252.54 363.93 259.00 364.00
C 259.39 374.06 260.24 384.01 261.00 394.00
C 255.08 394.59 249.18 395.43 243.00 395.00
C 244.01 406.99 240.35 432.85 260.00 426.00
C 261.72 433.56 264.91 440.73 266.93 448.07 C 268.95 455.42 255.26 456.81 250.00 458.00
M 480.00 458.00 
C 474.82 458.93 469.09 458.73 464.00 458.00
C 422.23 456.41 402.72 403.48 422.00 371.00
C 426.35 363.67 432.67 356.55 440.00 352.00
C 440.36 351.78 441.00 352.00 441.00 352.00
C 443.38 348.19 449.15 347.35 453.00 346.00
C 483.68 330.83 521.00 356.46 527.99 387.01 C 534.98 417.55 514.67 455.64 480.00 458.00
M 362.00 447.00 
C 357.69 446.28 356.41 438.73 354.25 434.75 C 352.08 430.78 351.12 422.59 350.00 418.00
C 348.93 415.44 347.98 412.66 347.00 410.00
C 346.26 408.53 343.87 403.13 342.00 405.00
C 337.81 419.32 336.72 434.59 333.00 449.00
C 320.29 449.80 307.74 451.25 295.00 452.00
C 284.67 422.33 271.81 393.02 262.00 363.00
C 271.79 362.50 278.30 363.22 288.00 361.00 C 297.71 358.79 301.11 367.63 302.00 376.00
C 303.21 379.19 305.38 382.24 306.00 386.00
C 310.34 387.81 309.39 395.41 312.00 399.00
C 313.73 397.57 313.24 393.79 316.00 393.00
C 316.38 391.27 316.57 389.74 317.00 388.00
C 318.92 380.24 320.01 368.63 323.78 361.78 C 327.55 354.92 342.72 356.69 351.00 356.00 C 359.28 355.31 359.35 371.15 362.93 377.07 C 366.50 382.99 370.13 393.38 373.00 400.00
C 376.92 394.57 375.83 384.45 377.93 376.93 C 380.02 369.40 378.54 360.20 382.00 353.00
C 384.24 351.16 388.96 352.00 392.00 352.00
C 400.48 352.00 408.58 350.33 417.00 350.00
C 411.89 381.49 404.46 412.51 399.00 444.00
C 386.31 443.55 374.34 445.99 362.00 447.00 Z"/>
</g>
<g fill="#F98742" fill-opacity="1.00" stroke="None">
<path d="
M 131.00 165.00 
C 131.16 166.64 131.94 168.33 134.00 168.00
C 134.35 170.86 133.73 173.39 133.00 176.00
C 134.69 178.29 137.91 175.57 139.00 177.00
C 140.89 182.93 129.14 183.28 124.25 191.25 C 119.37 199.23 120.25 202.12 130.25 206.75 C 140.26 211.37 136.44 222.06 138.00 231.00 C 139.56 239.94 138.15 250.64 142.00 259.00
C 141.18 261.17 138.55 261.45 137.00 263.00
C 139.23 266.54 145.64 265.20 149.00 264.00
C 146.33 258.07 150.64 251.68 152.00 245.00
C 152.42 242.94 153.07 240.93 154.00 239.00
C 155.96 240.45 154.56 243.80 155.00 246.00
C 153.22 252.66 158.07 258.14 156.00 264.00
C 160.11 264.10 164.82 264.17 168.00 262.00
C 167.43 259.47 164.33 259.34 163.00 258.00
C 164.62 252.37 164.00 246.01 164.00 240.00
C 164.00 233.29 164.42 225.95 165.00 220.00
C 165.00 214.51 163.94 210.83 162.00 206.00
C 160.89 203.24 158.98 200.82 158.00 198.00
C 157.02 195.17 157.22 189.51 154.75 187.25 C 152.28 184.99 148.36 182.36 150.00 180.00
C 157.89 180.52 155.56 168.97 162.00 169.00
C 164.75 161.38 156.70 156.65 157.00 150.00 C 157.29 143.36 151.64 138.35 145.08 139.08 C 138.51 139.81 138.34 150.52 132.00 149.00
C 131.20 152.61 132.73 154.36 136.00 155.00
C 134.91 158.57 131.47 161.04 131.00 165.00
M 136.00 191.00 
C 135.06 193.72 142.32 201.90 138.69 203.69 C 135.06 205.49 128.82 198.77 128.00 196.00
C 131.27 195.37 133.42 192.90 136.00 191.00 Z"/>
</g>
<g fill="#FC853B" fill-opacity="1.00" stroke="None">
<path d="
M 275.00 354.00 
C 276.57 353.75 278.93 351.89 281.00 352.00
C 281.00 348.00 281.00 344.00 281.00 340.00
C 281.00 334.27 281.15 329.40 285.00 325.00
C 289.41 326.81 291.86 332.87 294.00 337.00
C 301.00 346.81 303.19 350.00 316.00 350.00
C 318.65 350.00 321.36 350.18 324.00 350.00
C 329.34 349.13 334.78 348.00 341.00 348.00
C 342.27 348.00 343.74 348.20 345.00 348.00
C 341.10 340.84 335.18 334.57 330.00 328.00
C 325.99 323.99 322.01 319.84 319.00 315.00
C 318.78 314.64 319.00 314.00 319.00 314.00
C 315.39 311.48 313.31 307.24 312.00 305.00
C 305.81 297.17 317.68 289.79 320.70 281.70 C 323.71 273.61 333.36 266.84 335.00 258.00
C 328.67 258.00 322.33 258.00 316.00 258.00
C 311.81 258.41 306.77 259.72 302.00 260.00
C 289.98 260.72 287.62 274.54 282.00 284.00
C 281.02 285.66 277.80 293.13 277.00 289.00
C 275.15 287.22 276.00 282.61 276.00 280.00
C 276.00 265.21 274.44 249.86 273.00 235.00
C 270.86 233.62 272.52 230.19 272.00 228.00
C 269.33 228.00 266.67 228.00 264.00 228.00
C 259.07 228.48 253.62 230.00 248.00 230.00
C 240.85 230.00 225.92 234.63 221.25 227.75 C 216.58 220.88 220.70 207.04 219.00 199.00
C 224.82 199.32 230.06 197.25 236.00 198.00
C 236.00 196.00 236.00 194.00 236.00 192.00
C 235.71 184.00 236.80 175.61 235.00 168.00
C 229.00 168.00 223.00 168.00 217.00 168.00
C 215.20 160.60 219.92 142.43 209.07 144.07 C 198.22 145.72 191.42 145.28 181.00 147.00
C 180.72 154.55 181.45 159.46 182.00 167.00 C 182.54 174.53 172.34 171.54 167.00 172.00
C 166.14 182.39 169.56 191.70 169.00 202.00
C 174.00 202.00 179.00 202.00 184.00 202.00
C 187.57 218.80 180.77 239.69 192.25 253.75 C 203.72 267.82 224.56 261.57 240.00 261.00
C 241.97 270.53 239.87 282.60 242.07 291.93 C 244.28 301.25 243.21 313.07 245.00 322.00 C 246.79 330.93 244.85 345.31 247.03 352.97 C 249.21 360.63 268.77 354.00 275.00 354.00 Z"/>
</g>
<g fill="#F6C19A" fill-opacity="1.00" stroke="None">
<path d="
M 139.00 177.00 
C 137.91 175.57 134.69 178.29 133.00 176.00
C 133.73 173.39 134.35 170.86 134.00 168.00
C 131.94 168.33 131.16 166.64 131.00 165.00
C 130.52 169.05 134.93 168.07 132.78 173.78 C 130.63 179.48 136.79 176.09 139.00 177.00 Z"/>
</g>
<g fill="#F6B48F" fill-opacity="1.00" stroke="None">
<path d="
M 158.00 198.00 
C 156.44 190.31 156.91 184.77 150.00 180.00
C 148.36 182.36 152.28 184.99 154.75 187.25 C 157.22 189.51 157.02 195.17 158.00 198.00 Z"/>
</g>
<g fill="#FDF0DF" fill-opacity="1.00" stroke="None">
<path d="
M 136.00 191.00 
C 133.42 192.90 131.27 195.37 128.00 196.00
C 128.82 198.77 135.06 205.49 138.69 203.69 C 142.32 201.90 135.06 193.72 136.00 191.00 Z"/>
</g>
<g fill="#FEEAD2" fill-opacity="1.00" stroke="None">
<path d="
M 248.00 230.00 
C 249.88 229.82 254.19 228.18 256.00 228.00
C 247.18 226.65 232.88 232.36 224.77 228.23 C 216.65 224.10 223.29 209.53 221.00 202.00
C 227.06 198.62 233.89 202.28 239.00 198.00
C 239.94 195.59 236.15 192.58 236.00 192.00
C 236.00 194.00 236.00 196.00 236.00 198.00
C 230.06 197.25 224.82 199.32 219.00 199.00
C 220.70 207.04 216.58 220.88 221.25 227.75 C 225.92 234.63 240.85 230.00 248.00 230.00 Z"/>
</g>
<g fill="#FFECD0" fill-opacity="1.00" stroke="None">
<path d="
M 165.00 220.00 
C 165.00 226.58 165.59 233.46 165.00 240.00
C 165.81 240.54 165.44 226.42 166.00 222.00 C 166.56 217.58 164.49 210.02 162.00 206.00
C 163.94 210.83 165.00 214.51 165.00 220.00 Z"/>
</g>
<g fill="#EEAB7B" fill-opacity="1.00" stroke="None">
<path d="
M 164.00 240.00 
C 164.00 240.00 164.65 239.77 165.00 240.00
C 165.59 233.46 165.00 226.58 165.00 220.00
C 164.42 225.95 164.00 233.29 164.00 240.00 Z"/>
</g>
<g fill="#F5C297" fill-opacity="1.00" stroke="None">
<path d="
M 248.00 230.00 
C 253.62 230.00 259.07 228.48 264.00 228.00
C 261.33 228.00 258.67 228.00 256.00 228.00
C 254.19 228.18 249.88 229.82 248.00 230.00 Z"/>
</g>
<g fill="#FFEBD3" fill-opacity="1.00" stroke="None">
<path d="
M 273.00 235.00 
C 274.44 249.86 276.00 265.21 276.00 280.00
C 276.00 279.96 277.00 280.00 277.00 280.00
C 277.00 274.42 276.76 267.45 277.00 262.00 C 277.23 256.56 273.21 251.38 275.00 246.00 C 276.79 240.62 272.45 233.92 273.00 235.00 Z"/>
</g>
<g fill="#FDCE9F" fill-opacity="1.00" stroke="None">
<path d="
M 152.00 245.00 
C 153.44 245.06 152.74 243.08 154.00 243.00
C 153.22 244.21 154.85 245.41 155.00 246.00
C 154.56 243.80 155.96 240.45 154.00 239.00
C 153.07 240.93 152.42 242.94 152.00 245.00 Z"/>
</g>
<g fill="#FB853D" fill-opacity="1.00" stroke="None">
<path d="
M 460.00 313.00 
C 456.47 312.69 452.97 311.06 450.00 310.00
C 444.78 309.91 440.91 305.64 436.00 305.00
C 431.99 313.28 427.75 321.27 425.00 330.00
C 433.91 336.04 443.73 337.03 453.98 339.02 C 464.22 341.02 477.91 339.54 486.99 335.99 C 496.08 332.44 504.06 328.60 508.68 319.68 C 513.29 310.76 511.92 297.46 506.25 289.75 C 500.57 282.04 488.80 278.42 480.00 278.00 C 471.20 277.57 449.89 274.99 463.78 269.78 C 477.67 264.57 481.15 274.62 493.00 276.00
C 496.08 268.24 499.77 260.73 503.00 253.00
C 495.23 248.82 487.92 245.53 479.00 244.00 C 470.08 242.47 457.08 244.66 449.07 247.07 C 441.06 249.48 433.69 252.94 429.25 260.25 C 424.82 267.57 421.71 277.26 425.22 285.78 C 428.73 294.29 432.21 298.56 441.78 302.22 C 451.34 305.89 459.41 302.38 471.00 306.00 C 482.58 309.62 471.41 314.00 460.00 313.00 Z"/>
</g>
<g fill="#FB853C" fill-opacity="1.00" stroke="None">
<path d="
M 71.00 304.00 
C 71.38 304.76 72.59 305.64 72.00 307.00
C 74.00 307.00 76.00 307.00 78.00 307.00
C 88.35 306.00 86.23 310.79 87.00 319.00
C 87.27 321.89 88.00 324.77 88.00 328.00
C 88.61 334.28 89.72 342.35 91.00 349.00
C 93.32 356.54 97.38 361.86 105.00 365.00
C 118.40 369.36 134.33 367.23 146.00 360.00
C 143.99 351.12 140.53 342.71 138.00 334.00
C 120.11 341.32 122.67 320.32 122.00 309.00
C 121.71 304.09 121.19 302.52 128.00 303.00
C 128.50 303.03 129.50 303.00 130.00 303.00
C 132.23 302.05 135.13 301.65 138.00 302.00
C 138.00 298.67 138.00 295.33 138.00 292.00
C 136.82 286.76 141.85 269.60 132.07 272.07 C 122.29 274.55 116.19 273.02 117.99 262.01 C 119.79 250.99 114.84 248.58 106.00 250.00 C 97.16 251.42 90.51 250.39 82.00 252.00
C 81.45 260.65 84.38 268.41 84.00 277.00
C 78.73 276.27 74.13 278.24 69.00 278.00
C 68.80 286.81 70.39 295.43 71.00 304.00 Z"/>
</g>
<g fill="#FB853C" fill-opacity="1.00" stroke="None">
<path d="
M 328.00 309.00 
C 328.70 312.61 331.58 318.15 333.00 322.00
C 344.85 343.50 366.28 349.16 390.00 346.00
C 399.28 344.76 402.82 342.01 411.78 338.78 C 420.73 335.54 420.39 330.01 413.75 324.25 C 407.11 318.48 407.97 310.58 400.22 315.22 C 392.48 319.86 384.81 321.09 376.00 320.00
C 371.42 319.43 365.11 316.38 365.00 311.00
C 366.00 311.00 367.00 311.00 368.00 311.00
C 375.07 308.95 383.77 311.76 390.93 309.93 C 398.08 308.10 405.37 308.00 413.00 308.00
C 413.96 307.83 415.47 307.09 417.00 307.00
C 418.75 306.69 421.58 305.17 424.00 306.00
C 424.00 302.67 424.00 299.33 424.00 296.00
C 422.92 267.70 397.43 247.70 369.07 252.07 C 340.71 256.45 325.06 280.42 328.00 309.00
M 390.00 287.00 
C 381.19 288.04 372.12 288.19 363.00 288.00
C 366.42 276.56 387.26 274.56 390.00 287.00 Z"/>
</g>
<g fill="#FFEFCE" fill-opacity="1.00" stroke="None">
<path d="
M 302.00 260.00 
C 306.77 259.72 311.81 258.41 316.00 258.00
C 310.60 258.00 306.19 259.03 302.00 260.00 Z"/>
</g>
<g fill="#FB853C" fill-opacity="1.00" stroke="None">
<path d="
M 167.00 298.00 
C 168.69 297.01 170.25 296.66 172.00 296.00
C 178.63 292.57 197.54 287.37 200.00 300.00
C 200.09 300.48 200.00 301.00 200.00 301.00
C 201.91 303.59 200.63 307.70 201.00 311.00
C 198.10 309.17 194.33 308.36 192.00 306.00
C 185.77 304.50 179.80 303.63 173.00 304.00
C 159.41 304.74 145.71 313.52 144.00 328.00 C 142.29 342.48 149.65 356.77 164.00 360.00
C 169.38 361.21 174.13 362.22 180.00 362.00
C 189.71 363.36 196.27 355.68 204.00 352.00
C 205.29 357.12 205.04 362.56 205.00 368.00
C 200.22 368.01 195.93 369.67 191.00 369.00
C 189.66 378.26 193.20 382.98 192.67 392.33 C 192.14 401.68 200.21 399.77 208.00 399.00
C 210.81 412.96 208.07 428.64 213.00 442.00
C 215.03 446.01 219.08 452.17 223.00 455.00
C 231.29 459.79 240.70 459.33 250.00 458.00
C 255.26 456.81 268.95 455.42 266.93 448.07 C 264.91 440.73 261.72 433.56 260.00 426.00
C 240.35 432.85 244.01 406.99 243.00 395.00
C 249.18 395.43 255.08 394.59 261.00 394.00
C 260.24 384.01 259.39 374.06 259.00 364.00
C 252.54 363.93 246.60 365.70 240.00 365.00
C 239.60 343.47 234.72 320.96 234.33 299.67 C 233.94 278.38 217.17 265.28 197.00 266.00 C 176.83 266.72 157.33 268.51 145.00 285.00
C 150.55 289.89 153.45 297.14 158.00 303.00
C 161.52 302.33 163.94 299.79 167.00 298.00
M 195.00 325.00 
C 208.44 327.41 198.62 342.31 186.00 338.00 C 173.38 333.69 183.12 322.87 195.00 325.00 Z"/>
</g>
<g fill="#FDF8EE" fill-opacity="1.00" stroke="None">
<path d="
M 390.00 287.00 
C 387.26 274.56 366.42 276.56 363.00 288.00
C 372.12 288.19 381.19 288.04 390.00 287.00 Z"/>
</g>
<g fill="#EDB797" fill-opacity="1.00" stroke="None">
<path d="
M 277.00 289.00 
C 276.91 288.52 277.00 288.00 277.00 288.00
C 277.00 285.33 277.00 282.67 277.00 280.00
C 277.00 280.00 276.00 279.96 276.00 280.00
C 276.00 282.61 275.15 287.22 277.00 289.00 Z"/>
</g>
<g fill="#FFE7C1" fill-opacity="1.00" stroke="None">
<path d="
M 277.00 288.00 
C 277.00 288.00 276.91 288.52 277.00 289.00
C 277.80 293.13 281.02 285.66 282.00 284.00
C 280.83 285.50 278.43 287.36 277.00 288.00 Z"/>
</g>
<g fill="#F0B087" fill-opacity="1.00" stroke="None">
<path d="
M 130.00 303.00 
C 140.19 303.00 138.81 300.37 138.00 292.00
C 138.00 295.33 138.00 298.67 138.00 302.00
C 135.13 301.65 132.23 302.05 130.00 303.00 Z"/>
</g>
<g fill="#F1AC7F" fill-opacity="1.00" stroke="None">
<path d="
M 172.00 296.00 
C 181.32 292.48 193.75 290.22 200.00 300.00
C 197.54 287.37 178.63 292.57 172.00 296.00 Z"/>
</g>
<g fill="#FFF0D7" fill-opacity="1.00" stroke="None">
<path d="
M 172.00 296.00 
C 170.25 296.66 168.69 297.01 167.00 298.00
C 172.11 295.71 180.64 295.90 187.00 294.00 C 193.36 292.10 202.38 306.06 196.00 307.00
C 196.89 308.07 198.42 309.07 200.00 309.00
C 200.00 306.33 200.00 303.67 200.00 301.00
C 200.00 301.00 200.09 300.48 200.00 300.00
C 193.75 290.22 181.32 292.48 172.00 296.00 Z"/>
</g>
<g fill="#EAAA81" fill-opacity="1.00" stroke="None">
<path d="
M 417.00 307.00 
C 419.66 306.85 422.34 307.12 425.00 307.00
C 425.00 304.33 425.00 301.67 425.00 299.00
C 424.89 297.74 424.17 296.74 424.00 296.00
C 424.00 299.33 424.00 302.67 424.00 306.00
C 421.58 305.17 418.75 306.69 417.00 307.00 Z"/>
</g>
<g fill="#FFE5CB" fill-opacity="1.00" stroke="None">
<path d="
M 417.00 307.00 
C 415.47 307.09 413.96 307.83 413.00 308.00
C 422.01 308.00 427.52 309.16 425.00 299.00
C 425.00 301.67 425.00 304.33 425.00 307.00
C 422.34 307.12 419.66 306.85 417.00 307.00 Z"/>
</g>
<g fill="#F7B287" fill-opacity="1.00" stroke="None">
<path d="
M 196.00 307.00 
C 196.00 307.00 195.44 307.16 195.00 307.00
C 193.88 306.59 193.20 306.29 192.00 306.00
C 194.33 308.36 198.10 309.17 201.00 311.00
C 200.63 307.70 201.91 303.59 200.00 301.00
C 200.00 303.67 200.00 306.33 200.00 309.00
C 198.42 309.07 196.89 308.07 196.00 307.00 Z"/>
</g>
<g fill="#FFC89B" fill-opacity="1.00" stroke="None">
<path d="
M 122.00 309.00 
C 122.00 307.33 122.00 305.67 122.00 304.00
C 124.20 304.69 126.44 303.47 128.00 303.00
C 121.19 302.52 121.71 304.09 122.00 309.00 Z"/>
</g>
<g fill="#FEEDD1" fill-opacity="1.00" stroke="None">
<path d="
M 173.00 304.00 
C 179.80 303.63 185.77 304.50 192.00 306.00
C 193.20 306.29 193.88 306.59 195.00 307.00
C 192.40 300.63 177.68 303.24 173.00 304.00 Z"/>
</g>
<g fill="#F2B48C" fill-opacity="1.00" stroke="None">
<path d="
M 71.00 308.00 
C 73.34 308.98 76.43 307.15 78.00 307.00
C 76.00 307.00 74.00 307.00 72.00 307.00
C 72.59 305.64 71.38 304.76 71.00 304.00
C 71.07 305.04 70.56 307.07 71.00 308.00 Z"/>
</g>
<g fill="#F4B489" fill-opacity="1.00" stroke="None">
<path d="
M 319.00 314.00 
C 316.68 310.96 314.43 307.93 312.00 305.00
C 313.31 307.24 315.39 311.48 319.00 314.00 Z"/>
</g>
<g fill="#FEEAD3" fill-opacity="1.00" stroke="None">
<path d="
M 319.00 314.00 
C 319.00 314.00 318.78 314.64 319.00 315.00
C 323.93 318.44 326.44 323.49 330.00 328.00
C 335.18 334.57 341.10 340.84 345.00 348.00
C 346.18 348.15 347.06 347.57 348.00 347.00
C 346.07 343.48 341.16 341.42 341.00 337.00
C 354.81 347.27 373.32 350.32 390.00 346.00
C 366.28 349.16 344.85 343.50 333.00 322.00
C 332.36 320.84 330.50 319.16 330.00 318.00
C 330.46 320.35 331.47 322.43 331.00 325.00
C 324.73 318.93 318.25 311.76 312.00 305.00
C 314.43 307.93 316.68 310.96 319.00 314.00 Z"/>
</g>
<g fill="#FFEED3" fill-opacity="1.00" stroke="None">
<path d="
M 71.00 308.00 
C 72.57 311.30 81.77 306.99 83.74 309.26 C 85.71 311.53 86.19 316.41 87.00 319.00
C 86.23 310.79 88.35 306.00 78.00 307.00
C 76.43 307.15 73.34 308.98 71.00 308.00 Z"/>
</g>
<g fill="#F1B48C" fill-opacity="1.00" stroke="None">
<path d="
M 330.00 318.00 
C 330.50 319.16 332.36 320.84 333.00 322.00
C 331.58 318.15 328.70 312.61 328.00 309.00
C 328.32 312.13 329.36 314.96 330.00 318.00 Z"/>
</g>
<g fill="#FFE8C9" fill-opacity="1.00" stroke="None">
<path d="
M 460.00 313.00 
C 456.86 312.22 453.83 310.66 450.00 310.00
C 452.97 311.06 456.47 312.69 460.00 313.00 Z"/>
</g>
<g fill="#FAC198" fill-opacity="1.00" stroke="None">
<path d="
M 376.00 320.00 
C 373.84 319.55 362.71 313.27 368.00 311.00
C 367.00 311.00 366.00 311.00 365.00 311.00
C 365.11 316.38 371.42 319.43 376.00 320.00 Z"/>
</g>
<g fill="#F7B285" fill-opacity="1.00" stroke="None">
<path d="
M 330.00 328.00 
C 326.44 323.49 323.93 318.44 319.00 315.00
C 322.01 319.84 325.99 323.99 330.00 328.00 Z"/>
</g>
<g fill="#FCFAF2" fill-opacity="1.00" stroke="None">
<path d="
M 195.00 325.00 
C 183.12 322.87 173.38 333.69 186.00 338.00 C 198.62 342.31 208.44 327.41 195.00 325.00 Z"/>
</g>
<g fill="#FFE6C8" fill-opacity="1.00" stroke="None">
<path d="
M 281.00 340.00 
C 281.00 339.96 282.00 340.00 282.00 340.00
C 281.76 335.64 281.47 328.78 287.00 328.00
C 289.24 333.54 293.18 337.62 297.00 342.00
C 295.98 340.36 294.94 338.67 294.00 337.00
C 291.86 332.87 289.41 326.81 285.00 325.00
C 281.15 329.40 281.00 334.27 281.00 340.00 Z"/>
</g>
<g fill="#F4AE7F" fill-opacity="1.00" stroke="None">
<path d="
M 88.00 336.00 
C 88.37 339.80 89.88 345.37 91.00 349.00
C 89.72 342.35 88.61 334.28 88.00 328.00
C 88.00 330.67 88.00 333.33 88.00 336.00 Z"/>
</g>
<g fill="#FEEBD1" fill-opacity="1.00" stroke="None">
<path d="
M 105.00 365.00 
C 97.38 361.86 93.32 356.54 91.00 349.00
C 89.88 345.37 88.37 339.80 88.00 336.00
C 88.00 349.26 91.93 362.82 105.00 365.00 Z"/>
</g>
<g fill="#F1B288" fill-opacity="1.00" stroke="None">
<path d="
M 297.00 342.00 
C 302.47 350.84 305.41 351.00 316.00 351.00
C 315.96 351.00 316.00 350.00 316.00 350.00
C 303.19 350.00 301.00 346.81 294.00 337.00
C 294.94 338.67 295.98 340.36 297.00 342.00 Z"/>
</g>
<g fill="#F4AB80" fill-opacity="1.00" stroke="None">
<path d="
M 275.00 354.00 
C 276.31 354.00 277.69 354.12 279.00 354.00
C 279.54 353.88 280.83 352.19 282.00 353.00
C 282.00 350.67 282.00 348.33 282.00 346.00
C 282.03 344.00 282.00 342.00 282.00 340.00
C 282.00 340.00 281.00 339.96 281.00 340.00
C 281.00 344.00 281.00 348.00 281.00 352.00
C 278.93 351.89 276.57 353.75 275.00 354.00 Z"/>
</g>
<g fill="#FB833A" fill-opacity="1.00" stroke="None">
<path d="
M 453.00 346.00 
C 449.25 347.85 445.15 350.37 441.00 352.00
C 441.00 352.00 440.36 351.78 440.00 352.00
C 435.60 358.75 426.85 364.47 422.00 371.00
C 402.72 403.48 422.23 456.41 464.00 458.00
C 469.23 458.20 474.78 458.36 480.00 458.00
C 514.67 455.64 534.98 417.55 527.99 387.01 C 521.00 356.46 483.68 330.83 453.00 346.00
M 484.00 359.00 
C 481.95 357.72 483.35 354.00 485.00 353.00
C 487.06 354.28 485.65 358.00 484.00 359.00
M 503.00 361.00 
C 498.50 362.16 489.69 363.75 486.00 360.00
C 490.75 355.33 498.73 356.16 503.00 361.00
M 480.00 360.00 
C 485.43 365.23 482.16 370.83 480.08 376.08 C 478.01 381.33 490.18 381.56 490.77 387.23 C 491.37 392.90 497.65 396.93 498.92 402.08 C 500.19 407.23 494.15 409.30 490.25 413.25 C 486.35 417.19 483.24 421.78 483.07 428.07 C 482.90 434.37 479.77 440.29 478.00 446.00
C 469.09 447.98 472.35 437.01 468.00 432.00
C 466.59 437.52 468.01 448.42 459.00 446.00
C 456.64 435.65 452.47 422.71 454.00 411.00 C 455.52 399.29 454.02 383.84 467.00 379.00
C 460.75 372.98 467.53 366.77 468.00 360.00
C 471.95 357.85 475.78 360.34 480.00 360.00 Z"/>
</g>
<g fill="#FDDDCA" fill-opacity="1.00" stroke="None">
<path d="
M 279.00 354.00 
C 284.87 353.47 282.35 349.64 282.00 346.00
C 282.00 348.33 282.00 350.67 282.00 353.00
C 280.83 352.19 279.54 353.88 279.00 354.00 Z"/>
</g>
<g fill="#F6B98D" fill-opacity="1.00" stroke="None">
<path d="
M 441.00 352.00 
C 445.15 350.37 449.25 347.85 453.00 346.00
C 449.15 347.35 443.38 348.19 441.00 352.00 Z"/>
</g>
<g fill="#F2B789" fill-opacity="1.00" stroke="None">
<path d="
M 324.00 350.00 
C 328.04 349.72 331.77 349.17 336.00 349.00
C 337.80 348.93 339.81 348.16 341.00 348.00
C 334.78 348.00 329.34 349.13 324.00 350.00 Z"/>
</g>
<g fill="#FFEDCF" fill-opacity="1.00" stroke="None">
<path d="
M 324.00 350.00 
C 321.36 350.18 318.65 350.00 316.00 350.00
C 316.00 350.00 315.96 351.00 316.00 351.00
C 323.08 351.00 329.70 349.91 336.00 349.00
C 331.77 349.17 328.04 349.72 324.00 350.00 Z"/>
</g>
<g fill="#FC853C" fill-opacity="1.00" stroke="None">
<path d="
M 392.00 352.00 
C 390.72 352.12 383.32 352.25 382.00 353.00
C 378.54 360.20 380.02 369.40 377.93 376.93 C 375.83 384.45 376.92 394.57 373.00 400.00
C 370.13 393.38 366.50 382.99 362.93 377.07 C 359.35 371.15 359.28 355.31 351.00 356.00 C 342.72 356.69 327.55 354.92 323.78 361.78 C 320.01 368.63 318.92 380.24 317.00 388.00
C 316.66 390.90 316.12 395.61 315.00 399.00
C 314.33 401.02 313.87 403.03 313.00 405.00
C 309.14 400.20 308.33 392.92 306.00 387.00
C 304.68 383.51 302.99 379.88 302.00 376.00
C 301.11 367.63 297.71 358.79 288.00 361.00 C 278.30 363.22 271.79 362.50 262.00 363.00
C 271.81 393.02 284.67 422.33 295.00 452.00
C 307.74 451.25 320.29 449.80 333.00 449.00
C 336.72 434.59 337.81 419.32 342.00 405.00
C 342.43 403.52 341.11 400.48 344.00 401.00
C 344.31 404.21 346.45 406.85 347.00 410.00
C 347.98 412.66 348.93 415.44 350.00 418.00
C 353.91 427.37 357.61 437.48 362.00 447.00
C 374.34 445.99 386.31 443.55 399.00 444.00
C 404.46 412.51 411.89 381.49 417.00 350.00
C 408.58 350.33 400.48 352.00 392.00 352.00 Z"/>
</g>
<g fill="#FFE3BF" fill-opacity="1.00" stroke="None">
<path d="
M 382.00 353.00 
C 383.32 352.25 390.72 352.12 392.00 352.00
C 388.96 352.00 384.24 351.16 382.00 353.00 Z"/>
</g>
<g fill="#F9BC93" fill-opacity="1.00" stroke="None">
<path d="
M 422.00 371.00 
C 426.85 364.47 435.60 358.75 440.00 352.00
C 432.67 356.55 426.35 363.67 422.00 371.00 Z"/>
</g>
<g fill="#A92F05" fill-opacity="1.00" stroke="None">
<path d="
M 484.00 359.00 
C 485.65 358.00 487.06 354.28 485.00 353.00
C 483.35 354.00 481.95 357.72 484.00 359.00 Z"/>
</g>
<g fill="#941D03" fill-opacity="1.00" stroke="None">
<path d="
M 503.00 361.00 
C 498.73 356.16 490.75 355.33 486.00 360.00
C 489.69 363.75 498.50 362.16 503.00 361.00 Z"/>
</g>
<g fill="#871302" fill-opacity="1.00" stroke="None">
<path d="
M 480.00 360.00 
C 475.78 360.34 471.95 357.85 468.00 360.00
C 467.53 366.77 460.75 372.98 467.00 379.00
C 454.02 383.84 455.52 399.29 454.00 411.00 C 452.47 422.71 456.64 435.65 459.00 446.00
C 468.01 448.42 466.59 437.52 468.00 432.00
C 472.35 437.01 469.09 447.98 478.00 446.00
C 479.77 440.29 482.90 434.37 483.07 428.07 C 483.24 421.78 486.35 417.19 490.25 413.25 C 494.15 409.30 500.19 407.23 498.92 402.08 C 497.65 396.93 491.37 392.90 490.77 387.23 C 490.18 381.56 478.01 381.33 480.08 376.08 C 482.16 370.83 485.43 365.23 480.00 360.00
M 485.00 395.00 
C 487.30 398.34 489.24 402.73 483.00 403.00
C 483.74 400.52 481.19 395.18 485.00 395.00 Z"/>
</g>
<g fill="#F4BD98" fill-opacity="1.00" stroke="None">
<path d="
M 180.00 362.00 
C 174.13 362.22 169.38 361.21 164.00 360.00
C 169.94 361.93 173.55 362.92 180.00 362.00 Z"/>
</g>
<g fill="#F7BA90" fill-opacity="1.00" stroke="None">
<path d="
M 306.00 387.00 
C 305.85 386.55 306.00 386.00 306.00 386.00
C 305.38 382.24 303.21 379.19 302.00 376.00
C 302.99 379.88 304.68 383.51 306.00 387.00 Z"/>
</g>
<g fill="#FFEDD7" fill-opacity="1.00" stroke="None">
<path d="
M 306.00 387.00 
C 308.33 392.92 309.14 400.20 313.00 405.00
C 313.87 403.03 314.33 401.02 315.00 399.00
C 315.41 396.94 315.56 394.99 316.00 393.00
C 313.24 393.79 313.73 397.57 312.00 399.00
C 309.39 395.41 310.34 387.81 306.00 386.00
C 306.00 386.00 305.85 386.55 306.00 387.00 Z"/>
</g>
<g fill="#F2B38C" fill-opacity="1.00" stroke="None">
<path d="
M 316.00 393.00 
C 315.56 394.99 315.41 396.94 315.00 399.00
C 316.12 395.61 316.66 390.90 317.00 388.00
C 316.57 389.74 316.38 391.27 316.00 393.00 Z"/>
</g>
<g fill="#E4703D" fill-opacity="1.00" stroke="None">
<path d="
M 485.00 395.00 
C 481.19 395.18 483.74 400.52 483.00 403.00
C 489.24 402.73 487.30 398.34 485.00 395.00 Z"/>
</g>
<g fill="#FFE0BE" fill-opacity="1.00" stroke="None">
<path d="
M 342.00 405.00 
C 343.87 403.13 346.26 408.53 347.00 410.00
C 346.45 406.85 344.31 404.21 344.00 401.00
C 341.11 400.48 342.43 403.52 342.00 405.00 Z"/>
</g>
<g fill="#FEE9CD" fill-opacity="1.00" stroke="None">
<path d="
M 362.00 447.00 
C 357.61 437.48 353.91 427.37 350.00 418.00
C 351.12 422.59 352.08 430.78 354.25 434.75 C 356.41 438.73 357.69 446.28 362.00 447.00 Z"/>
</g>
<g fill="#F5B78E" fill-opacity="1.00" stroke="None">
<path d="
M 221.00 454.00 
C 221.65 454.40 222.37 454.63 223.00 455.00
C 219.08 452.17 215.03 446.01 213.00 442.00
C 214.71 446.63 216.39 451.20 221.00 454.00 Z"/>
</g>
<g fill="#FDE9CD" fill-opacity="1.00" stroke="None">
<path d="
M 250.00 458.00 
C 240.70 459.33 231.29 459.79 223.00 455.00
C 222.37 454.63 221.65 454.40 221.00 454.00
C 228.64 461.64 240.71 460.98 250.00 458.00 Z"/>
</g>
<g fill="#EDB38B" fill-opacity="1.00" stroke="None">
<path d="
M 480.00 458.00 
C 474.78 458.36 469.23 458.20 464.00 458.00
C 469.09 458.73 474.82 458.93 480.00 458.00 Z"/>
</g>
</svg>