<svg xmlns="http://www.w3.org/2000/svg" xmlns:v="https://svgstorm.com"
viewBox = "0 0 314 280"
width="314"
height="280">
<g fill="None" fill-opacity="0.0" stroke="#F4F4F4" stroke-opacity="1.00" stroke-width="0.3"><path d="
M 0.00 280.00 
L 314.00 280.00
L 314.00 0.00
L 0.00 0.00
L 0.00 280.00
M 267.00 92.00 
C 272.96 100.00 262.48 101.83 256.77 104.77 C 251.06 107.71 243.80 110.87 238.00 114.00
C 239.33 119.45 242.63 126.25 244.78 131.22 C 246.92 136.20 249.57 144.03 251.78 148.22 C 253.98 152.42 255.57 163.67 263.01 160.99 C 270.44 158.31 275.31 159.95 267.32 163.32 C 259.33 166.69 256.60 166.85 249.77 169.77 C 242.94 172.69 238.15 173.03 231.78 175.78 C 225.41 178.53 219.80 180.09 213.00 181.00
C 212.91 172.15 229.49 178.52 225.00 166.00 C 220.51 153.48 215.18 139.92 209.00 128.00
C 192.84 134.84 177.02 144.13 160.92 150.92 C 144.83 157.72 129.25 168.96 113.00 172.00
C 116.82 162.90 119.93 153.98 123.92 144.92 C 127.92 135.87 131.25 126.16 134.98 116.98 C 138.70 107.79 142.39 99.24 145.93 89.93 C 149.46 80.62 153.80 71.79 157.31 62.31 C 160.81 52.82 164.63 44.85 167.98 34.98 C 171.32 25.10 177.60 20.97 186.23 14.23 C 194.86 7.49 198.01 22.30 201.77 30.23 C 205.54 38.16 209.44 49.63 213.32 57.68 C 217.20 65.73 220.99 76.48 224.92 84.08 C 228.86 91.67 230.73 107.81 240.23 104.23 C 249.73 100.65 257.59 95.59 267.00 92.00
M 54.00 203.00 
C 54.77 208.48 55.45 215.89 56.99 221.01 C 58.54 226.12 57.96 235.77 59.99 240.01 C 62.02 244.24 59.17 256.64 64.25 257.75 C 69.33 258.86 80.93 261.07 68.78 262.78 C 56.63 264.48 44.70 269.21 33.00 269.00
C 39.88 264.94 43.40 259.94 41.07 251.93 C 38.74 243.91 39.57 235.99 38.00 228.00 C 36.43 220.01 35.06 213.08 34.02 204.98 C 32.99 196.87 31.06 190.06 30.22 181.78 C 29.38 173.50 27.18 166.82 27.00 158.00 C 26.83 149.18 18.30 148.11 12.00 154.00
C 12.65 145.54 24.47 140.90 31.70 134.70 C 38.92 128.49 47.81 122.87 55.23 116.23 C 62.65 109.59 72.06 105.33 81.07 101.07 C 90.09 96.81 105.88 95.95 111.75 106.25 C 117.63 116.55 118.79 130.04 117.00 141.00 C 115.21 151.96 110.56 160.62 103.70 168.70 C 96.84 176.77 89.62 182.53 81.25 188.25 C 72.89 193.98 63.34 199.12 54.00 203.00
M 285.00 214.00 
C 283.56 214.15 280.17 216.30 282.00 213.00
C 282.57 211.96 288.30 210.72 284.69 207.31 C 281.09 203.89 284.13 202.23 281.00 199.00
C 271.96 201.55 263.36 205.58 254.00 207.00
C 261.46 194.03 263.74 173.53 278.00 167.00
C 281.19 176.15 285.43 184.94 289.00 194.00
C 292.63 194.00 296.95 189.65 300.00 192.00
C 297.96 195.30 293.28 194.67 290.00 196.00
C 292.71 201.59 293.04 210.68 300.00 212.00
C 294.77 211.75 290.06 213.47 285.00 214.00
M 251.00 214.00 
C 254.33 215.21 255.83 211.34 259.00 212.00
C 259.47 220.86 252.25 222.26 246.26 220.74 C 240.26 219.22 236.93 227.41 230.00 227.00 C 223.06 226.58 215.26 225.00 215.02 216.98 C 214.79 208.95 218.15 206.33 224.08 202.08 C 230.01 197.83 234.81 198.06 234.02 189.98 C 233.23 181.89 220.58 182.95 218.75 187.75 C 216.93 192.55 223.23 202.31 213.00 200.00 C 202.77 197.69 212.68 188.00 216.75 185.75 C 220.81 183.49 229.47 178.56 235.22 180.78 C 240.97 182.99 243.26 189.14 244.78 195.22 C 246.30 201.31 249.21 207.93 251.00 214.00
M 219.00 230.00 
C 212.51 230.69 206.33 232.59 200.00 234.00
C 208.94 225.83 198.97 218.80 198.67 207.33 C 198.37 195.86 180.92 199.75 183.93 210.07 C 186.94 220.40 186.66 230.49 195.00 235.00
C 189.98 235.86 185.19 237.69 180.00 238.00
C 185.39 234.43 181.49 225.01 179.68 219.32 C 177.86 213.63 177.94 203.25 171.00 204.00
C 173.20 201.68 177.32 200.97 179.00 198.00
C 182.37 197.42 179.75 202.72 183.00 203.00
C 185.22 198.23 188.77 195.10 194.07 194.07 C 199.38 193.05 204.64 197.39 204.93 203.07 C 205.21 208.76 209.19 212.26 209.78 218.22 C 210.36 224.19 214.03 228.87 219.00 230.00
M 164.00 205.00 
C 181.52 207.93 179.43 244.34 161.00 241.00 C 142.57 237.66 146.68 202.10 164.00 205.00
M 144.00 213.00 
C 143.73 216.25 146.27 218.72 146.00 222.00
C 143.56 212.52 127.09 217.50 133.26 223.74 C 139.43 229.98 149.15 224.55 149.99 236.01 C 150.83 247.46 140.06 244.73 133.00 248.00
C 133.68 244.62 129.09 240.76 132.00 238.00
C 132.99 247.38 149.65 244.60 145.22 236.78 C 140.79 228.96 130.89 234.30 128.68 225.32 C 126.47 216.34 137.12 213.53 144.00 213.00
M 118.00 226.00 
C 117.83 233.48 118.09 245.81 125.00 250.00
C 121.17 249.98 118.07 252.81 114.00 252.00
C 116.55 244.61 114.74 230.59 108.00 226.00
C 112.55 225.04 115.14 220.33 118.00 225.00
C 122.84 212.42 131.25 231.70 118.00 226.00
M 105.00 239.00 
C 105.11 236.83 103.18 229.08 99.97 230.03 C 96.77 230.98 96.53 241.45 101.00 240.00
C 93.10 246.26 109.12 260.39 109.00 246.00
C 113.47 253.82 100.22 258.44 97.08 250.92 C 93.94 243.40 92.23 236.60 97.75 229.75 C 103.28 222.91 114.37 238.52 105.00 239.00
M 83.00 246.00 
C 83.48 251.13 84.31 256.30 88.00 259.00
C 84.73 258.30 82.23 260.43 79.00 260.00
C 79.42 251.57 79.17 239.34 73.00 233.00
C 78.38 232.97 86.04 225.55 90.75 231.25 C 95.45 236.96 89.68 245.80 83.00 246.00 Z"/>
</g>
<g fill="None" fill-opacity="0.0" stroke="#151515" stroke-opacity="1.00" stroke-width="0.3"><path d="
M 267.00 92.00 
C 257.59 95.59 249.73 100.65 240.23 104.23 C 230.73 107.81 228.86 91.67 224.92 84.08 C 220.99 76.48 217.20 65.73 213.32 57.68 C 209.44 49.63 205.54 38.16 201.77 30.23 C 198.01 22.30 194.86 7.49 186.23 14.23 C 177.60 20.97 171.32 25.10 167.98 34.98 C 164.63 44.85 160.81 52.82 157.31 62.31 C 153.80 71.79 149.46 80.62 145.93 89.93 C 142.39 99.24 138.70 107.79 134.98 116.98 C 131.25 126.16 127.92 135.87 123.92 144.92 C 119.93 153.98 116.82 162.90 113.00 172.00
C 129.25 168.96 144.83 157.72 160.92 150.92 C 177.02 144.13 192.84 134.84 209.00 128.00
C 215.18 139.92 220.51 153.48 225.00 166.00 C 229.49 178.52 212.91 172.15 213.00 181.00
C 219.80 180.09 225.41 178.53 231.78 175.78 C 238.15 173.03 242.94 172.69 249.77 169.77 C 256.60 166.85 259.33 166.69 267.32 163.32 C 275.31 159.95 270.44 158.31 263.01 160.99 C 255.57 163.67 253.98 152.42 251.78 148.22 C 249.57 144.03 246.92 136.20 244.78 131.22 C 242.63 126.25 239.33 119.45 238.00 114.00
C 243.80 110.87 251.06 107.71 256.77 104.77 C 262.48 101.83 272.96 100.00 267.00 92.00
M 176.00 49.00 
C 183.49 53.13 184.47 65.39 188.32 73.68 C 192.17 81.96 195.09 91.79 198.78 100.22 C 202.46 108.66 208.89 121.10 197.92 124.92 C 186.96 128.75 183.29 132.29 172.92 136.92 C 162.56 141.55 159.06 143.16 147.92 148.92 C 136.79 154.69 142.41 139.87 146.32 131.32 C 150.23 122.77 152.44 112.86 155.98 103.98 C 159.51 95.09 162.80 86.11 165.98 76.98 C 169.15 67.84 173.19 58.32 176.00 49.00 Z"/>
</g>
<g fill="None" fill-opacity="0.0" stroke="#F1F1F1" stroke-opacity="1.00" stroke-width="0.3"><path d="
M 176.00 49.00 
C 173.19 58.32 169.15 67.84 165.98 76.98 C 162.80 86.11 159.51 95.09 155.98 103.98 C 152.44 112.86 150.23 122.77 146.32 131.32 C 142.41 139.87 136.79 154.69 147.92 148.92 C 159.06 143.16 162.56 141.55 172.92 136.92 C 183.29 132.29 186.96 128.75 197.92 124.92 C 208.89 121.10 202.46 108.66 198.78 100.22 C 195.09 91.79 192.17 81.96 188.32 73.68 C 184.47 65.39 183.49 53.13 176.00 49.00 Z"/>
</g>
<g fill="None" fill-opacity="0.0" stroke="#161616" stroke-opacity="1.00" stroke-width="0.3"><path d="
M 54.00 203.00 
C 63.34 199.12 72.89 193.98 81.25 188.25 C 89.62 182.53 96.84 176.77 103.70 168.70 C 110.56 160.62 115.21 151.96 117.00 141.00 C 118.79 130.04 117.63 116.55 111.75 106.25 C 105.88 95.95 90.09 96.81 81.07 101.07 C 72.06 105.33 62.65 109.59 55.23 116.23 C 47.81 122.87 38.92 128.49 31.70 134.70 C 24.47 140.90 12.65 145.54 12.00 154.00
C 18.30 148.11 26.83 149.18 27.00 158.00 C 27.18 166.82 29.38 173.50 30.22 181.78 C 31.06 190.06 32.99 196.87 34.02 204.98 C 35.06 213.08 36.43 220.01 38.00 228.00 C 39.57 235.99 38.74 243.91 41.07 251.93 C 43.40 259.94 39.88 264.94 33.00 269.00
C 44.70 269.21 56.63 264.48 68.78 262.78 C 80.93 261.07 69.33 258.86 64.25 257.75 C 59.17 256.64 62.02 244.24 59.99 240.01 C 57.96 235.77 58.54 226.12 56.99 221.01 C 55.45 215.89 54.77 208.48 54.00 203.00
M 51.00 196.00 
C 48.92 176.36 43.69 157.52 41.00 138.00
C 52.06 131.47 69.74 111.39 83.74 121.26 C 97.75 131.13 97.16 156.85 88.08 169.08 C 79.00 181.32 64.41 190.87 51.00 196.00 Z"/>
</g>
<g fill="None" fill-opacity="0.0" stroke="#F2F2F2" stroke-opacity="1.00" stroke-width="0.3"><path d="
M 51.00 196.00 
C 64.41 190.87 79.00 181.32 88.08 169.08 C 97.16 156.85 97.75 131.13 83.74 121.26 C 69.74 111.39 52.06 131.47 41.00 138.00
C 43.69 157.52 48.92 176.36 51.00 196.00 Z"/>
</g>
<g fill="None" fill-opacity="0.0" stroke="#1D1D1D" stroke-opacity="1.00" stroke-width="0.3"><path d="
M 282.00 213.00 
C 282.27 214.24 284.05 213.99 285.00 214.00
C 290.06 213.47 294.77 211.75 300.00 212.00
C 293.04 210.68 292.71 201.59 290.00 196.00
C 293.28 194.67 297.96 195.30 300.00 192.00
C 296.95 189.65 292.63 194.00 289.00 194.00
C 285.43 184.94 281.19 176.15 278.00 167.00
C 263.74 173.53 261.46 194.03 254.00 207.00
C 263.36 205.58 271.96 201.55 281.00 199.00
C 284.13 202.23 281.09 203.89 284.69 207.31 C 288.30 210.72 282.57 211.96 282.00 213.00
M 273.00 179.00 
C 274.80 185.16 277.97 190.90 280.00 197.00
C 273.65 198.53 267.66 201.50 261.00 202.00
C 265.57 194.76 267.20 184.37 273.00 179.00 Z"/>
</g>
<g fill="None" fill-opacity="0.0" stroke="#E7E7E7" stroke-opacity="1.00" stroke-width="0.3"><path d="
M 273.00 179.00 
C 267.20 184.37 265.57 194.76 261.00 202.00
C 267.66 201.50 273.65 198.53 280.00 197.00
C 277.97 190.90 274.80 185.16 273.00 179.00 Z"/>
</g>
<g fill="None" fill-opacity="0.0" stroke="#1E1E1E" stroke-opacity="1.00" stroke-width="0.3"><path d="
M 251.00 214.00 
C 249.21 207.93 246.30 201.31 244.78 195.22 C 243.26 189.14 240.97 182.99 235.22 180.78 C 229.47 178.56 220.81 183.49 216.75 185.75 C 212.68 188.00 202.77 197.69 213.00 200.00 C 223.23 202.31 216.93 192.55 218.75 187.75 C 220.58 182.95 233.23 181.89 234.02 189.98 C 234.81 198.06 230.01 197.83 224.08 202.08 C 218.15 206.33 214.79 208.95 215.02 216.98 C 215.26 225.00 223.06 226.58 230.00 227.00 C 236.93 227.41 240.26 219.22 246.26 220.74 C 252.25 222.26 259.47 220.86 259.00 212.00
C 255.83 211.34 254.33 215.21 251.00 214.00
M 237.00 198.00 
C 238.16 204.55 240.82 210.71 243.00 217.00
C 238.25 223.27 224.99 227.95 222.08 217.92 C 219.16 207.90 229.87 201.37 237.00 198.00 Z"/>
</g>
<g fill="None" fill-opacity="0.0" stroke="#1F1F1F" stroke-opacity="1.00" stroke-width="0.3"><path d="
M 219.00 230.00 
C 214.03 228.87 210.36 224.19 209.78 218.22 C 209.19 212.26 205.21 208.76 204.93 203.07 C 204.64 197.39 199.38 193.05 194.07 194.07 C 188.77 195.10 185.22 198.23 183.00 203.00
C 179.75 202.72 182.37 197.42 179.00 198.00
C 177.32 200.97 173.20 201.68 171.00 204.00
C 177.94 203.25 177.86 213.63 179.68 219.32 C 181.49 225.01 185.39 234.43 180.00 238.00
C 185.19 237.69 189.98 235.86 195.00 235.00
C 186.66 230.49 186.94 220.40 183.93 210.07 C 180.92 199.75 198.37 195.86 198.67 207.33 C 198.97 218.80 208.94 225.83 200.00 234.00
C 206.33 232.59 212.51 230.69 219.00 230.00 Z"/>
</g>
<g fill="None" fill-opacity="0.0" stroke="#EBEBEB" stroke-opacity="1.00" stroke-width="0.3"><path d="
M 237.00 198.00 
C 229.87 201.37 219.16 207.90 222.08 217.92 C 224.99 227.95 238.25 223.27 243.00 217.00
C 240.82 210.71 238.16 204.55 237.00 198.00 Z"/>
</g>
<g fill="None" fill-opacity="0.0" stroke="#222222" stroke-opacity="1.00" stroke-width="0.3"><path d="
M 164.00 205.00 
C 146.68 202.10 142.57 237.66 161.00 241.00 C 179.43 244.34 181.52 207.93 164.00 205.00
M 163.00 208.00 
C 168.44 210.20 167.06 219.48 169.78 224.22 C 172.50 228.97 168.99 242.84 161.78 238.22 C 154.57 233.61 157.90 227.66 155.00 222.00 C 152.10 216.33 154.88 204.71 163.00 208.00 Z"/>
</g>
<g fill="None" fill-opacity="0.0" stroke="#EDEDED" stroke-opacity="1.00" stroke-width="0.3"><path d="
M 163.00 208.00 
C 154.88 204.71 152.10 216.33 155.00 222.00 C 157.90 227.66 154.57 233.61 161.78 238.22 C 168.99 242.84 172.50 228.97 169.78 224.22 C 167.06 219.48 168.44 210.20 163.00 208.00 Z"/>
</g>
<g fill="None" fill-opacity="0.0" stroke="#292929" stroke-opacity="1.00" stroke-width="0.3"><path d="
M 144.00 213.00 
C 137.12 213.53 126.47 216.34 128.68 225.32 C 130.89 234.30 140.79 228.96 145.22 236.78 C 149.65 244.60 132.99 247.38 132.00 238.00
C 129.09 240.76 133.68 244.62 133.00 248.00
C 140.06 244.73 150.83 247.46 149.99 236.01 C 149.15 224.55 139.43 229.98 133.26 223.74 C 127.09 217.50 143.56 212.52 146.00 222.00
C 146.27 218.72 143.73 216.25 144.00 213.00 Z"/>
</g>
<g fill="None" fill-opacity="0.0" stroke="#B2B2B2" stroke-opacity="1.00" stroke-width="0.3"><path d="
M 285.00 214.00 
C 284.05 213.99 282.27 214.24 282.00 213.00
C 280.17 216.30 283.56 214.15 285.00 214.00 Z"/>
</g>
<g fill="None" fill-opacity="0.0" stroke="#222222" stroke-opacity="1.00" stroke-width="0.3"><path d="
M 118.00 226.00 
C 131.25 231.70 122.84 212.42 118.00 225.00
C 115.14 220.33 112.55 225.04 108.00 226.00
C 114.74 230.59 116.55 244.61 114.00 252.00
C 118.07 252.81 121.17 249.98 125.00 250.00
C 118.09 245.81 117.83 233.48 118.00 226.00 Z"/>
</g>
<g fill="None" fill-opacity="0.0" stroke="#2C2C2C" stroke-opacity="1.00" stroke-width="0.3"><path d="
M 105.00 239.00 
C 114.37 238.52 103.28 222.91 97.75 229.75 C 92.23 236.60 93.94 243.40 97.08 250.92 C 100.22 258.44 113.47 253.82 109.00 246.00
C 109.12 260.39 93.10 246.26 101.00 240.00
C 96.53 241.45 96.77 230.98 99.97 230.03 C 103.18 229.08 105.11 236.83 105.00 239.00 Z"/>
</g>
<g fill="None" fill-opacity="0.0" stroke="#252525" stroke-opacity="1.00" stroke-width="0.3"><path d="
M 83.00 246.00 
C 89.68 245.80 95.45 236.96 90.75 231.25 C 86.04 225.55 78.38 232.97 73.00 233.00
C 79.17 239.34 79.42 251.57 79.00 260.00
C 82.23 260.43 84.73 258.30 88.00 259.00
C 84.31 256.30 83.48 251.13 83.00 246.00
M 82.00 244.00 
C 81.07 239.88 79.88 228.54 85.74 232.26 C 91.61 235.98 87.33 245.20 82.00 244.00 Z"/>
</g>
<g fill="None" fill-opacity="0.0" stroke="#DFDFDF" stroke-opacity="1.00" stroke-width="0.3"><path d="
M 82.00 244.00 
C 87.33 245.20 91.61 235.98 85.74 232.26 C 79.88 228.54 81.07 239.88 82.00 244.00 Z"/>
</g>
<g fill="#F4F4F4" fill-opacity="1.00" stroke="None">
<path d="
M 0.00 280.00 
L 314.00 280.00
L 314.00 0.00
L 0.00 0.00
L 0.00 280.00
M 267.00 92.00 
C 272.96 100.00 262.48 101.83 256.77 104.77 C 251.06 107.71 243.80 110.87 238.00 114.00
C 239.33 119.45 242.63 126.25 244.78 131.22 C 246.92 136.20 249.57 144.03 251.78 148.22 C 253.98 152.42 255.57 163.67 263.01 160.99 C 270.44 158.31 275.31 159.95 267.32 163.32 C 259.33 166.69 256.60 166.85 249.77 169.77 C 242.94 172.69 238.15 173.03 231.78 175.78 C 225.41 178.53 219.80 180.09 213.00 181.00
C 212.91 172.15 229.49 178.52 225.00 166.00 C 220.51 153.48 215.18 139.92 209.00 128.00
C 192.84 134.84 177.02 144.13 160.92 150.92 C 144.83 157.72 129.25 168.96 113.00 172.00
C 116.82 162.90 119.93 153.98 123.92 144.92 C 127.92 135.87 131.25 126.16 134.98 116.98 C 138.70 107.79 142.39 99.24 145.93 89.93 C 149.46 80.62 153.80 71.79 157.31 62.31 C 160.81 52.82 164.63 44.85 167.98 34.98 C 171.32 25.10 177.60 20.97 186.23 14.23 C 194.86 7.49 198.01 22.30 201.77 30.23 C 205.54 38.16 209.44 49.63 213.32 57.68 C 217.20 65.73 220.99 76.48 224.92 84.08 C 228.86 91.67 230.73 107.81 240.23 104.23 C 249.73 100.65 257.59 95.59 267.00 92.00
M 54.00 203.00 
C 54.77 208.48 55.45 215.89 56.99 221.01 C 58.54 226.12 57.96 235.77 59.99 240.01 C 62.02 244.24 59.17 256.64 64.25 257.75 C 69.33 258.86 80.93 261.07 68.78 262.78 C 56.63 264.48 44.70 269.21 33.00 269.00
C 39.88 264.94 43.40 259.94 41.07 251.93 C 38.74 243.91 39.57 235.99 38.00 228.00 C 36.43 220.01 35.06 213.08 34.02 204.98 C 32.99 196.87 31.06 190.06 30.22 181.78 C 29.38 173.50 27.18 166.82 27.00 158.00 C 26.83 149.18 18.30 148.11 12.00 154.00
C 12.65 145.54 24.47 140.90 31.70 134.70 C 38.92 128.49 47.81 122.87 55.23 116.23 C 62.65 109.59 72.06 105.33 81.07 101.07 C 90.09 96.81 105.88 95.95 111.75 106.25 C 117.63 116.55 118.79 130.04 117.00 141.00 C 115.21 151.96 110.56 160.62 103.70 168.70 C 96.84 176.77 89.62 182.53 81.25 188.25 C 72.89 193.98 63.34 199.12 54.00 203.00
M 285.00 214.00 
C 283.56 214.15 280.17 216.30 282.00 213.00
C 282.57 211.96 288.30 210.72 284.69 207.31 C 281.09 203.89 284.13 202.23 281.00 199.00
C 271.96 201.55 263.36 205.58 254.00 207.00
C 261.46 194.03 263.74 173.53 278.00 167.00
C 281.19 176.15 285.43 184.94 289.00 194.00
C 292.63 194.00 296.95 189.65 300.00 192.00
C 297.96 195.30 293.28 194.67 290.00 196.00
C 292.71 201.59 293.04 210.68 300.00 212.00
C 294.77 211.75 290.06 213.47 285.00 214.00
M 251.00 214.00 
C 254.33 215.21 255.83 211.34 259.00 212.00
C 259.47 220.86 252.25 222.26 246.26 220.74 C 240.26 219.22 236.93 227.41 230.00 227.00 C 223.06 226.58 215.26 225.00 215.02 216.98 C 214.79 208.95 218.15 206.33 224.08 202.08 C 230.01 197.83 234.81 198.06 234.02 189.98 C 233.23 181.89 220.58 182.95 218.75 187.75 C 216.93 192.55 223.23 202.31 213.00 200.00 C 202.77 197.69 212.68 188.00 216.75 185.75 C 220.81 183.49 229.47 178.56 235.22 180.78 C 240.97 182.99 243.26 189.14 244.78 195.22 C 246.30 201.31 249.21 207.93 251.00 214.00
M 219.00 230.00 
C 212.51 230.69 206.33 232.59 200.00 234.00
C 208.94 225.83 198.97 218.80 198.67 207.33 C 198.37 195.86 180.92 199.75 183.93 210.07 C 186.94 220.40 186.66 230.49 195.00 235.00
C 189.98 235.86 185.19 237.69 180.00 238.00
C 185.39 234.43 181.49 225.01 179.68 219.32 C 177.86 213.63 177.94 203.25 171.00 204.00
C 173.20 201.68 177.32 200.97 179.00 198.00
C 182.37 197.42 179.75 202.72 183.00 203.00
C 185.22 198.23 188.77 195.10 194.07 194.07 C 199.38 193.05 204.64 197.39 204.93 203.07 C 205.21 208.76 209.19 212.26 209.78 218.22 C 210.36 224.19 214.03 228.87 219.00 230.00
M 164.00 205.00 
C 181.52 207.93 179.43 244.34 161.00 241.00 C 142.57 237.66 146.68 202.10 164.00 205.00
M 144.00 213.00 
C 143.73 216.25 146.27 218.72 146.00 222.00
C 143.56 212.52 127.09 217.50 133.26 223.74 C 139.43 229.98 149.15 224.55 149.99 236.01 C 150.83 247.46 140.06 244.73 133.00 248.00
C 133.68 244.62 129.09 240.76 132.00 238.00
C 132.99 247.38 149.65 244.60 145.22 236.78 C 140.79 228.96 130.89 234.30 128.68 225.32 C 126.47 216.34 137.12 213.53 144.00 213.00
M 118.00 226.00 
C 117.83 233.48 118.09 245.81 125.00 250.00
C 121.17 249.98 118.07 252.81 114.00 252.00
C 116.55 244.61 114.74 230.59 108.00 226.00
C 112.55 225.04 115.14 220.33 118.00 225.00
C 122.84 212.42 131.25 231.70 118.00 226.00
M 105.00 239.00 
C 105.11 236.83 103.18 229.08 99.97 230.03 C 96.77 230.98 96.53 241.45 101.00 240.00
C 93.10 246.26 109.12 260.39 109.00 246.00
C 113.47 253.82 100.22 258.44 97.08 250.92 C 93.94 243.40 92.23 236.60 97.75 229.75 C 103.28 222.91 114.37 238.52 105.00 239.00
M 83.00 246.00 
C 83.48 251.13 84.31 256.30 88.00 259.00
C 84.73 258.30 82.23 260.43 79.00 260.00
C 79.42 251.57 79.17 239.34 73.00 233.00
C 78.38 232.97 86.04 225.55 90.75 231.25 C 95.45 236.96 89.68 245.80 83.00 246.00 Z"/>
</g>
<g fill="#151515" fill-opacity="1.00" stroke="None">
<path d="
M 267.00 92.00 
C 257.59 95.59 249.73 100.65 240.23 104.23 C 230.73 107.81 228.86 91.67 224.92 84.08 C 220.99 76.48 217.20 65.73 213.32 57.68 C 209.44 49.63 205.54 38.16 201.77 30.23 C 198.01 22.30 194.86 7.49 186.23 14.23 C 177.60 20.97 171.32 25.10 167.98 34.98 C 164.63 44.85 160.81 52.82 157.31 62.31 C 153.80 71.79 149.46 80.62 145.93 89.93 C 142.39 99.24 138.70 107.79 134.98 116.98 C 131.25 126.16 127.92 135.87 123.92 144.92 C 119.93 153.98 116.82 162.90 113.00 172.00
C 129.25 168.96 144.83 157.72 160.92 150.92 C 177.02 144.13 192.84 134.84 209.00 128.00
C 215.18 139.92 220.51 153.48 225.00 166.00 C 229.49 178.52 212.91 172.15 213.00 181.00
C 219.80 180.09 225.41 178.53 231.78 175.78 C 238.15 173.03 242.94 172.69 249.77 169.77 C 256.60 166.85 259.33 166.69 267.32 163.32 C 275.31 159.95 270.44 158.31 263.01 160.99 C 255.57 163.67 253.98 152.42 251.78 148.22 C 249.57 144.03 246.92 136.20 244.78 131.22 C 242.63 126.25 239.33 119.45 238.00 114.00
C 243.80 110.87 251.06 107.71 256.77 104.77 C 262.48 101.83 272.96 100.00 267.00 92.00
M 176.00 49.00 
C 183.49 53.13 184.47 65.39 188.32 73.68 C 192.17 81.96 195.09 91.79 198.78 100.22 C 202.46 108.66 208.89 121.10 197.92 124.92 C 186.96 128.75 183.29 132.29 172.92 136.92 C 162.56 141.55 159.06 143.16 147.92 148.92 C 136.79 154.69 142.41 139.87 146.32 131.32 C 150.23 122.77 152.44 112.86 155.98 103.98 C 159.51 95.09 162.80 86.11 165.98 76.98 C 169.15 67.84 173.19 58.32 176.00 49.00 Z"/>
</g>
<g fill="#F1F1F1" fill-opacity="1.00" stroke="None">
<path d="
M 176.00 49.00 
C 173.19 58.32 169.15 67.84 165.98 76.98 C 162.80 86.11 159.51 95.09 155.98 103.98 C 152.44 112.86 150.23 122.77 146.32 131.32 C 142.41 139.87 136.79 154.69 147.92 148.92 C 159.06 143.16 162.56 141.55 172.92 136.92 C 183.29 132.29 186.96 128.75 197.92 124.92 C 208.89 121.10 202.46 108.66 198.78 100.22 C 195.09 91.79 192.17 81.96 188.32 73.68 C 184.47 65.39 183.49 53.13 176.00 49.00 Z"/>
</g>
<g fill="#161616" fill-opacity="1.00" stroke="None">
<path d="
M 54.00 203.00 
C 63.34 199.12 72.89 193.98 81.25 188.25 C 89.62 182.53 96.84 176.77 103.70 168.70 C 110.56 160.62 115.21 151.96 117.00 141.00 C 118.79 130.04 117.63 116.55 111.75 106.25 C 105.88 95.95 90.09 96.81 81.07 101.07 C 72.06 105.33 62.65 109.59 55.23 116.23 C 47.81 122.87 38.92 128.49 31.70 134.70 C 24.47 140.90 12.65 145.54 12.00 154.00
C 18.30 148.11 26.83 149.18 27.00 158.00 C 27.18 166.82 29.38 173.50 30.22 181.78 C 31.06 190.06 32.99 196.87 34.02 204.98 C 35.06 213.08 36.43 220.01 38.00 228.00 C 39.57 235.99 38.74 243.91 41.07 251.93 C 43.40 259.94 39.88 264.94 33.00 269.00
C 44.70 269.21 56.63 264.48 68.78 262.78 C 80.93 261.07 69.33 258.86 64.25 257.75 C 59.17 256.64 62.02 244.24 59.99 240.01 C 57.96 235.77 58.54 226.12 56.99 221.01 C 55.45 215.89 54.77 208.48 54.00 203.00
M 51.00 196.00 
C 48.92 176.36 43.69 157.52 41.00 138.00
C 52.06 131.47 69.74 111.39 83.74 121.26 C 97.75 131.13 97.16 156.85 88.08 169.08 C 79.00 181.32 64.41 190.87 51.00 196.00 Z"/>
</g>
<g fill="#F2F2F2" fill-opacity="1.00" stroke="None">
<path d="
M 51.00 196.00 
C 64.41 190.87 79.00 181.32 88.08 169.08 C 97.16 156.85 97.75 131.13 83.74 121.26 C 69.74 111.39 52.06 131.47 41.00 138.00
C 43.69 157.52 48.92 176.36 51.00 196.00 Z"/>
</g>
<g fill="#1D1D1D" fill-opacity="1.00" stroke="None">
<path d="
M 282.00 213.00 
C 282.27 214.24 284.05 213.99 285.00 214.00
C 290.06 213.47 294.77 211.75 300.00 212.00
C 293.04 210.68 292.71 201.59 290.00 196.00
C 293.28 194.67 297.96 195.30 300.00 192.00
C 296.95 189.65 292.63 194.00 289.00 194.00
C 285.43 184.94 281.19 176.15 278.00 167.00
C 263.74 173.53 261.46 194.03 254.00 207.00
C 263.36 205.58 271.96 201.55 281.00 199.00
C 284.13 202.23 281.09 203.89 284.69 207.31 C 288.30 210.72 282.57 211.96 282.00 213.00
M 273.00 179.00 
C 274.80 185.16 277.97 190.90 280.00 197.00
C 273.65 198.53 267.66 201.50 261.00 202.00
C 265.57 194.76 267.20 184.37 273.00 179.00 Z"/>
</g>
<g fill="#E7E7E7" fill-opacity="1.00" stroke="None">
<path d="
M 273.00 179.00 
C 267.20 184.37 265.57 194.76 261.00 202.00
C 267.66 201.50 273.65 198.53 280.00 197.00
C 277.97 190.90 274.80 185.16 273.00 179.00 Z"/>
</g>
<g fill="#1E1E1E" fill-opacity="1.00" stroke="None">
<path d="
M 251.00 214.00 
C 249.21 207.93 246.30 201.31 244.78 195.22 C 243.26 189.14 240.97 182.99 235.22 180.78 C 229.47 178.56 220.81 183.49 216.75 185.75 C 212.68 188.00 202.77 197.69 213.00 200.00 C 223.23 202.31 216.93 192.55 218.75 187.75 C 220.58 182.95 233.23 181.89 234.02 189.98 C 234.81 198.06 230.01 197.83 224.08 202.08 C 218.15 206.33 214.79 208.95 215.02 216.98 C 215.26 225.00 223.06 226.58 230.00 227.00 C 236.93 227.41 240.26 219.22 246.26 220.74 C 252.25 222.26 259.47 220.86 259.00 212.00
C 255.83 211.34 254.33 215.21 251.00 214.00
M 237.00 198.00 
C 238.16 204.55 240.82 210.71 243.00 217.00
C 238.25 223.27 224.99 227.95 222.08 217.92 C 219.16 207.90 229.87 201.37 237.00 198.00 Z"/>
</g>
<g fill="#1F1F1F" fill-opacity="1.00" stroke="None">
<path d="
M 219.00 230.00 
C 214.03 228.87 210.36 224.19 209.78 218.22 C 209.19 212.26 205.21 208.76 204.93 203.07 C 204.64 197.39 199.38 193.05 194.07 194.07 C 188.77 195.10 185.22 198.23 183.00 203.00
C 179.75 202.72 182.37 197.42 179.00 198.00
C 177.32 200.97 173.20 201.68 171.00 204.00
C 177.94 203.25 177.86 213.63 179.68 219.32 C 181.49 225.01 185.39 234.43 180.00 238.00
C 185.19 237.69 189.98 235.86 195.00 235.00
C 186.66 230.49 186.94 220.40 183.93 210.07 C 180.92 199.75 198.37 195.86 198.67 207.33 C 198.97 218.80 208.94 225.83 200.00 234.00
C 206.33 232.59 212.51 230.69 219.00 230.00 Z"/>
</g>
<g fill="#EBEBEB" fill-opacity="1.00" stroke="None">
<path d="
M 237.00 198.00 
C 229.87 201.37 219.16 207.90 222.08 217.92 C 224.99 227.95 238.25 223.27 243.00 217.00
C 240.82 210.71 238.16 204.55 237.00 198.00 Z"/>
</g>
<g fill="#222222" fill-opacity="1.00" stroke="None">
<path d="
M 164.00 205.00 
C 146.68 202.10 142.57 237.66 161.00 241.00 C 179.43 244.34 181.52 207.93 164.00 205.00
M 163.00 208.00 
C 168.44 210.20 167.06 219.48 169.78 224.22 C 172.50 228.97 168.99 242.84 161.78 238.22 C 154.57 233.61 157.90 227.66 155.00 222.00 C 152.10 216.33 154.88 204.71 163.00 208.00 Z"/>
</g>
<g fill="#EDEDED" fill-opacity="1.00" stroke="None">
<path d="
M 163.00 208.00 
C 154.88 204.71 152.10 216.33 155.00 222.00 C 157.90 227.66 154.57 233.61 161.78 238.22 C 168.99 242.84 172.50 228.97 169.78 224.22 C 167.06 219.48 168.44 210.20 163.00 208.00 Z"/>
</g>
<g fill="#292929" fill-opacity="1.00" stroke="None">
<path d="
M 144.00 213.00 
C 137.12 213.53 126.47 216.34 128.68 225.32 C 130.89 234.30 140.79 228.96 145.22 236.78 C 149.65 244.60 132.99 247.38 132.00 238.00
C 129.09 240.76 133.68 244.62 133.00 248.00
C 140.06 244.73 150.83 247.46 149.99 236.01 C 149.15 224.55 139.43 229.98 133.26 223.74 C 127.09 217.50 143.56 212.52 146.00 222.00
C 146.27 218.72 143.73 216.25 144.00 213.00 Z"/>
</g>
<g fill="#B2B2B2" fill-opacity="1.00" stroke="None">
<path d="
M 285.00 214.00 
C 284.05 213.99 282.27 214.24 282.00 213.00
C 280.17 216.30 283.56 214.15 285.00 214.00 Z"/>
</g>
<g fill="#222222" fill-opacity="1.00" stroke="None">
<path d="
M 118.00 226.00 
C 131.25 231.70 122.84 212.42 118.00 225.00
C 115.14 220.33 112.55 225.04 108.00 226.00
C 114.74 230.59 116.55 244.61 114.00 252.00
C 118.07 252.81 121.17 249.98 125.00 250.00
C 118.09 245.81 117.83 233.48 118.00 226.00 Z"/>
</g>
<g fill="#2C2C2C" fill-opacity="1.00" stroke="None">
<path d="
M 105.00 239.00 
C 114.37 238.52 103.28 222.91 97.75 229.75 C 92.23 236.60 93.94 243.40 97.08 250.92 C 100.22 258.44 113.47 253.82 109.00 246.00
C 109.12 260.39 93.10 246.26 101.00 240.00
C 96.53 241.45 96.77 230.98 99.97 230.03 C 103.18 229.08 105.11 236.83 105.00 239.00 Z"/>
</g>
<g fill="#252525" fill-opacity="1.00" stroke="None">
<path d="
M 83.00 246.00 
C 89.68 245.80 95.45 236.96 90.75 231.25 C 86.04 225.55 78.38 232.97 73.00 233.00
C 79.17 239.34 79.42 251.57 79.00 260.00
C 82.23 260.43 84.73 258.30 88.00 259.00
C 84.31 256.30 83.48 251.13 83.00 246.00
M 82.00 244.00 
C 81.07 239.88 79.88 228.54 85.74 232.26 C 91.61 235.98 87.33 245.20 82.00 244.00 Z"/>
</g>
<g fill="#DFDFDF" fill-opacity="1.00" stroke="None">
<path d="
M 82.00 244.00 
C 87.33 245.20 91.61 235.98 85.74 232.26 C 79.88 228.54 81.07 239.88 82.00 244.00 Z"/>
</g>
</svg>