<svg xmlns="http://www.w3.org/2000/svg" xmlns:v="https://svgstorm.com"
viewBox = "0 0 300 168"
width="300"
height="168">
<g fill="None" fill-opacity="0.0" stroke="#000000" stroke-opacity="1.00" stroke-width="0.3"><path d="
M 0.00 168.00 
L 300.00 168.00
L 300.00 0.00
L 0.00 0.00
L 0.00 168.00
M 86.00 76.00 
C 84.70 77.26 82.25 77.62 81.00 76.00
C 79.43 73.95 80.00 64.40 77.03 71.03 C 74.05 77.66 78.50 78.53 81.25 81.75 C 84.00 84.97 88.53 87.00 87.00 92.00 C 85.46 97.00 88.55 99.19 85.23 103.23 C 81.90 107.27 78.98 106.10 74.77 104.23 C 70.56 102.36 70.52 96.46 71.00 92.00
C 77.32 91.99 80.31 102.52 81.00 93.00 C 81.69 83.48 70.86 87.00 71.01 78.99 C 71.15 70.98 69.47 63.81 78.07 62.07 C 86.68 60.33 88.85 70.84 86.00 76.00
M 252.00 91.00 
C 252.32 89.77 252.66 88.91 253.00 88.00
C 255.37 81.66 256.01 81.49 257.00 74.00 C 257.99 66.51 250.38 68.70 253.00 77.00
C 236.51 77.35 254.42 53.40 261.30 65.70 C 268.17 78.01 257.02 87.29 256.00 99.00
C 261.45 97.76 265.91 99.80 263.00 105.00
C 257.67 105.00 252.33 105.00 247.00 105.00
C 248.47 100.25 249.94 95.56 252.00 91.00
M 37.00 105.00 
C 33.95 102.97 36.02 87.85 36.00 84.00 C 35.98 80.15 34.01 65.09 37.00 63.00
C 49.84 54.01 60.04 77.01 50.00 83.00
C 56.12 87.71 51.62 97.94 53.00 105.00
C 39.59 107.97 53.62 85.76 43.00 85.00
C 43.00 91.67 43.00 98.33 43.00 105.00
C 41.00 105.00 39.00 105.00 37.00 105.00
M 69.00 64.00 
C 71.79 66.79 68.90 68.58 68.00 69.00
C 66.27 69.82 64.01 70.04 62.00 70.00
C 62.00 73.00 62.00 76.00 62.00 79.00
C 66.78 77.97 70.57 79.49 69.00 85.00
C 59.10 81.98 62.49 93.03 62.00 99.00
C 66.78 97.97 70.57 99.49 69.00 105.00
C 64.67 105.00 60.33 105.00 56.00 105.00
C 56.00 91.00 56.00 77.00 56.00 63.00
C 60.17 63.64 65.66 61.71 69.00 64.00
M 96.00 105.00 
C 85.78 108.31 90.30 97.39 89.00 92.00 C 87.70 86.61 91.93 78.12 89.00 73.00 C 86.07 67.88 95.63 55.00 95.99 67.01 C 96.35 79.01 95.46 92.87 96.00 105.00
M 98.00 105.00 
C 98.35 91.47 97.78 77.11 98.00 63.00
C 115.44 58.37 115.06 71.28 115.00 84.00 C 114.94 96.72 115.33 109.64 98.00 105.00
M 131.00 69.00 
C 129.65 71.03 126.12 69.51 124.00 70.00
C 121.03 74.24 125.42 82.20 131.00 79.00
C 133.18 85.52 127.60 84.53 124.00 86.00
C 121.96 88.91 125.53 95.74 124.00 99.00
C 128.78 97.97 132.57 99.49 131.00 105.00
C 126.33 105.00 121.67 105.00 117.00 105.00
C 116.47 103.72 117.97 103.14 118.00 102.00
C 116.85 97.67 115.95 87.76 117.00 83.00 C 118.05 78.24 114.19 65.67 118.00 63.00
C 120.91 60.96 127.74 64.53 131.00 63.00
C 131.00 65.00 131.00 67.00 131.00 69.00
M 147.00 82.00 
C 147.02 81.50 147.00 80.50 147.00 80.00
C 147.00 74.33 147.00 68.67 147.00 63.00
C 149.46 63.12 153.98 61.92 153.00 66.00
C 155.10 70.19 154.45 80.06 154.00 85.00 C 153.55 89.94 156.30 100.70 153.00 104.00
C 146.93 110.07 141.02 87.22 141.00 83.00
C 138.71 89.42 140.64 97.82 140.00 105.00
C 130.14 106.49 134.79 94.03 134.00 87.00 C 133.21 79.97 134.59 70.27 134.00 63.00
C 144.36 62.22 142.68 77.80 146.00 85.00
C 147.39 84.74 146.78 82.95 147.00 82.00
M 160.00 105.00 
C 156.32 102.54 160.16 92.47 159.00 88.00 C 157.84 83.53 159.87 74.86 159.00 70.00
C 157.72 69.72 155.50 70.76 155.00 69.00
C 154.33 67.26 155.51 64.80 155.00 63.00
C 159.71 63.84 164.78 62.53 170.00 63.00
C 170.06 66.23 171.05 71.43 166.00 70.00
C 166.00 81.67 166.00 93.33 166.00 105.00
C 164.00 105.00 162.00 105.00 160.00 105.00
M 193.00 63.00 
C 195.00 64.40 193.54 67.84 194.00 70.00
C 191.33 70.00 188.67 70.00 186.00 70.00
C 183.03 74.24 187.42 82.20 193.00 79.00
C 194.67 84.50 190.75 85.96 186.00 85.00
C 186.00 89.67 186.00 94.33 186.00 99.00
C 188.00 99.00 190.00 99.00 192.00 99.00
C 193.57 99.97 195.74 103.11 193.00 105.00
C 190.06 107.03 183.29 103.48 180.00 105.00
C 180.00 91.00 180.00 77.00 180.00 63.00
C 184.15 63.91 188.38 62.54 193.00 63.00
M 205.00 91.00 
C 210.07 83.05 202.79 62.62 216.00 63.00
C 213.56 70.28 214.11 79.75 212.00 87.00 C 209.89 94.25 211.77 107.30 201.00 105.00
C 200.30 90.68 196.71 77.09 195.00 63.00
C 207.69 62.73 201.77 82.23 205.00 91.00
M 224.00 105.00 
C 213.94 107.11 217.39 95.31 217.00 88.00 C 216.61 80.69 217.55 71.37 217.00 63.00
C 227.40 61.27 223.53 72.68 224.00 80.00 C 224.47 87.32 223.65 97.43 224.00 105.00
M 232.00 74.00 
C 232.00 75.00 231.99 76.00 232.00 77.00
C 232.72 80.27 232.31 82.44 232.00 86.00
C 231.62 90.30 232.28 94.69 232.00 99.00
C 236.82 98.27 241.88 98.77 240.00 105.00
C 235.33 105.00 230.67 105.00 226.00 105.00
C 225.62 95.01 226.55 84.25 226.00 75.00
C 225.86 71.00 226.10 67.00 226.00 63.00
C 228.00 63.00 230.00 63.00 232.00 63.00
C 234.76 64.85 232.45 71.95 232.00 74.00
M 244.00 102.00 
C 245.05 107.89 238.11 102.01 244.00 102.00 Z"/>
</g>
<g fill="None" fill-opacity="0.0" stroke="#E8E8E8" stroke-opacity="1.00" stroke-width="0.3"><path d="
M 81.00 76.00 
C 82.40 75.49 84.68 76.68 86.00 76.00
C 88.85 70.84 86.68 60.33 78.07 62.07 C 69.47 63.81 71.15 70.98 71.01 78.99 C 70.86 87.00 81.69 83.48 81.00 93.00 C 80.31 102.52 77.32 91.99 71.00 92.00
C 70.52 96.46 70.56 102.36 74.77 104.23 C 78.98 106.10 81.90 107.27 85.23 103.23 C 88.55 99.19 85.46 97.00 87.00 92.00 C 88.53 87.00 84.00 84.97 81.25 81.75 C 78.50 78.53 74.05 77.66 77.03 71.03 C 80.00 64.40 79.43 73.95 81.00 76.00 Z"/>
</g>
<g fill="None" fill-opacity="0.0" stroke="#C3C3C3" stroke-opacity="1.00" stroke-width="0.3"><path d="
M 253.00 88.00 
C 251.19 89.62 255.55 88.36 256.00 89.00
C 255.51 90.83 253.65 91.18 252.00 91.00
C 249.94 95.56 248.47 100.25 247.00 105.00
C 252.33 105.00 257.67 105.00 263.00 105.00
C 265.91 99.80 261.45 97.76 256.00 99.00
C 257.02 87.29 268.17 78.01 261.30 65.70 C 254.42 53.40 236.51 77.35 253.00 77.00
C 250.38 68.70 257.99 66.51 257.00 74.00 C 256.01 81.49 255.37 81.66 253.00 88.00
M 261.00 68.00 
C 259.03 70.85 263.25 71.19 261.00 74.00
C 257.30 74.10 257.26 68.37 261.00 68.00 Z"/>
</g>
<g fill="None" fill-opacity="0.0" stroke="#7B0317" stroke-opacity="1.00" stroke-width="0.3"><path d="
M 37.00 105.00 
C 35.83 101.75 43.27 98.54 37.00 100.00
C 37.00 87.67 37.00 75.33 37.00 63.00
C 34.01 65.09 35.98 80.15 36.00 84.00 C 36.02 87.85 33.95 102.97 37.00 105.00 Z"/>
</g>
<g fill="None" fill-opacity="0.0" stroke="#D80226" stroke-opacity="1.00" stroke-width="0.3"><path d="
M 37.00 105.00 
C 39.00 105.00 41.00 105.00 43.00 105.00
C 43.00 98.33 43.00 91.67 43.00 85.00
C 53.62 85.76 39.59 107.97 53.00 105.00
C 51.62 97.94 56.12 87.71 50.00 83.00
C 60.04 77.01 49.84 54.01 37.00 63.00
C 37.00 75.33 37.00 87.67 37.00 100.00
C 43.27 98.54 35.83 101.75 37.00 105.00
M 43.00 79.00 
C 43.00 75.67 43.00 72.33 43.00 69.00
C 48.83 67.58 48.89 80.41 43.00 79.00 Z"/>
</g>
<g fill="None" fill-opacity="0.0" stroke="#F2F2F2" stroke-opacity="1.00" stroke-width="0.3"><path d="
M 68.00 69.00 
C 68.81 68.14 69.76 65.38 69.00 64.00
C 65.66 61.71 60.17 63.64 56.00 63.00
C 56.00 77.00 56.00 91.00 56.00 105.00
C 60.33 105.00 64.67 105.00 69.00 105.00
C 70.57 99.49 66.78 97.97 62.00 99.00
C 62.49 93.03 59.10 81.98 69.00 85.00
C 70.57 79.49 66.78 77.97 62.00 79.00
C 62.00 76.00 62.00 73.00 62.00 70.00
C 64.01 70.04 66.27 69.82 68.00 69.00 Z"/>
</g>
<g fill="None" fill-opacity="0.0" stroke="#DBDBDB" stroke-opacity="1.00" stroke-width="0.3"><path d="
M 96.00 105.00 
C 95.46 92.87 96.35 79.01 95.99 67.01 C 95.63 55.00 86.07 67.88 89.00 73.00 C 91.93 78.12 87.70 86.61 89.00 92.00 C 90.30 97.39 85.78 108.31 96.00 105.00 Z"/>
</g>
<g fill="None" fill-opacity="0.0" stroke="#E2E2E2" stroke-opacity="1.00" stroke-width="0.3"><path d="
M 98.00 105.00 
C 115.33 109.64 114.94 96.72 115.00 84.00 C 115.06 71.28 115.44 58.37 98.00 63.00
C 97.78 77.11 98.35 91.47 98.00 105.00
M 108.00 69.00 
C 108.00 79.00 108.00 89.00 108.00 99.00
C 102.40 98.70 105.04 89.72 105.00 85.00 C 104.96 80.28 102.85 69.79 108.00 69.00 Z"/>
</g>
<g fill="None" fill-opacity="0.0" stroke="#858585" stroke-opacity="1.00" stroke-width="0.3"><path d="
M 118.00 102.00 
C 117.78 99.72 118.00 97.30 118.00 95.00
C 118.00 94.50 118.00 94.00 118.00 94.00
C 118.00 83.67 118.00 73.33 118.00 63.00
C 114.19 65.67 118.05 78.24 117.00 83.00 C 115.95 87.76 116.85 97.67 118.00 102.00 Z"/>
</g>
<g fill="None" fill-opacity="0.0" stroke="#EEEEEE" stroke-opacity="1.00" stroke-width="0.3"><path d="
M 118.00 94.00 
C 119.62 94.29 121.37 93.78 123.00 94.00
C 123.56 91.48 121.81 87.70 124.00 86.00
C 127.60 84.53 133.18 85.52 131.00 79.00
C 125.42 82.20 121.03 74.24 124.00 70.00
C 125.40 68.00 128.84 69.46 131.00 69.00
C 131.00 67.00 131.00 65.00 131.00 63.00
C 127.74 64.53 120.91 60.96 118.00 63.00
C 118.00 73.33 118.00 83.67 118.00 94.00 Z"/>
</g>
<g fill="None" fill-opacity="0.0" stroke="#EAEAEA" stroke-opacity="1.00" stroke-width="0.3"><path d="
M 153.00 104.00 
C 154.61 101.63 152.40 95.99 153.00 93.00 C 153.60 90.01 153.00 85.16 153.00 82.00
C 152.67 82.28 147.33 82.28 147.00 82.00
C 146.78 82.95 147.39 84.74 146.00 85.00
C 142.68 77.80 144.36 62.22 134.00 63.00
C 134.59 70.27 133.21 79.97 134.00 87.00 C 134.79 94.03 130.14 106.49 140.00 105.00
C 140.64 97.82 138.71 89.42 141.00 83.00
C 141.02 87.22 146.93 110.07 153.00 104.00
M 151.00 90.00 
C 151.92 93.88 149.46 97.72 151.00 101.00
C 147.36 100.43 148.80 96.11 146.00 94.00
C 150.17 97.39 149.49 91.85 151.00 90.00 Z"/>
</g>
<g fill="None" fill-opacity="0.0" stroke="#EFEFEF" stroke-opacity="1.00" stroke-width="0.3"><path d="
M 147.00 80.00 
C 149.13 80.10 150.85 80.10 153.00 80.00
C 153.00 76.01 154.22 69.76 153.00 66.00
C 153.98 61.92 149.46 63.12 147.00 63.00
C 147.00 68.67 147.00 74.33 147.00 80.00 Z"/>
</g>
<g fill="None" fill-opacity="0.0" stroke="#DFDFDF" stroke-opacity="1.00" stroke-width="0.3"><path d="
M 155.00 69.00 
C 161.83 69.12 160.83 78.54 160.86 82.92 C 160.89 87.31 159.05 99.48 160.00 105.00
C 162.00 105.00 164.00 105.00 166.00 105.00
C 166.00 93.33 166.00 81.67 166.00 70.00
C 171.05 71.43 170.06 66.23 170.00 63.00
C 164.78 62.53 159.71 63.84 155.00 63.00
C 155.51 64.80 154.33 67.26 155.00 69.00 Z"/>
</g>
<g fill="None" fill-opacity="0.0" stroke="#D00225" stroke-opacity="1.00" stroke-width="0.3"><path d="
M 193.00 105.00 
C 192.80 103.18 193.56 100.40 192.00 99.00
C 190.00 99.00 188.00 99.00 186.00 99.00
C 186.00 94.33 186.00 89.67 186.00 85.00
C 190.75 85.96 194.67 84.50 193.00 79.00
C 187.42 82.20 183.03 74.24 186.00 70.00
C 187.40 68.00 190.84 69.46 193.00 69.00
C 193.00 67.00 193.00 65.00 193.00 63.00
C 188.38 62.54 184.15 63.91 180.00 63.00
C 180.00 77.00 180.00 91.00 180.00 105.00
C 183.29 103.48 190.06 107.03 193.00 105.00 Z"/>
</g>
<g fill="None" fill-opacity="0.0" stroke="#5E0412" stroke-opacity="1.00" stroke-width="0.3"><path d="
M 186.00 70.00 
C 188.67 70.00 191.33 70.00 194.00 70.00
C 193.54 67.84 195.00 64.40 193.00 63.00
C 193.00 65.00 193.00 67.00 193.00 69.00
C 190.84 69.46 187.40 68.00 186.00 70.00 Z"/>
</g>
<g fill="None" fill-opacity="0.0" stroke="#DDDDDD" stroke-opacity="1.00" stroke-width="0.3"><path d="
M 205.00 91.00 
C 201.77 82.23 207.69 62.73 195.00 63.00
C 196.71 77.09 200.30 90.68 201.00 105.00
C 211.77 107.30 209.89 94.25 212.00 87.00 C 214.11 79.75 213.56 70.28 216.00 63.00
C 202.79 62.62 210.07 83.05 205.00 91.00 Z"/>
</g>
<g fill="None" fill-opacity="0.0" stroke="#CACACA" stroke-opacity="1.00" stroke-width="0.3"><path d="
M 224.00 105.00 
C 223.65 97.43 224.47 87.32 224.00 80.00 C 223.53 72.68 227.40 61.27 217.00 63.00
C 217.55 71.37 216.61 80.69 217.00 88.00 C 217.39 95.31 213.94 107.11 224.00 105.00 Z"/>
</g>
<g fill="None" fill-opacity="0.0" stroke="#B4B4B4" stroke-opacity="1.00" stroke-width="0.3"><path d="
M 226.00 75.00 
C 226.38 74.26 228.38 73.51 229.00 73.00
C 229.50 77.18 228.18 79.05 231.00 83.00
C 231.33 80.96 232.02 79.33 232.00 77.00
C 231.99 76.00 232.00 75.00 232.00 74.00
C 232.00 70.33 232.00 66.67 232.00 63.00
C 230.00 63.00 228.00 63.00 226.00 63.00
C 226.10 67.00 225.86 71.00 226.00 75.00
M 230.00 66.00 
C 229.48 73.33 223.98 66.03 230.00 66.00 Z"/>
</g>
<g fill="None" fill-opacity="0.0" stroke="#4C4C4C" stroke-opacity="1.00" stroke-width="0.3"><path d="
M 232.00 74.00 
C 232.45 71.95 234.76 64.85 232.00 63.00
C 232.00 66.67 232.00 70.33 232.00 74.00 Z"/>
</g>
<g fill="None" fill-opacity="0.0" stroke="#676767" stroke-opacity="1.00" stroke-width="0.3"><path d="
M 68.00 69.00 
C 68.90 68.58 71.79 66.79 69.00 64.00
C 69.76 65.38 68.81 68.14 68.00 69.00 Z"/>
</g>
<g fill="None" fill-opacity="0.0" stroke="#676767" stroke-opacity="1.00" stroke-width="0.3"><path d="
M 153.00 80.00 
C 153.00 80.50 153.00 81.50 153.00 82.00
C 153.00 85.16 153.60 90.01 153.00 93.00 C 152.40 95.99 154.61 101.63 153.00 104.00
C 156.30 100.70 153.55 89.94 154.00 85.00 C 154.45 80.06 155.10 70.19 153.00 66.00
C 154.22 69.76 153.00 76.01 153.00 80.00 Z"/>
</g>
<g fill="None" fill-opacity="0.0" stroke="#F3F3F3" stroke-opacity="1.00" stroke-width="0.3"><path d="
M 230.00 66.00 
C 223.98 66.03 229.48 73.33 230.00 66.00 Z"/>
</g>
<g fill="None" fill-opacity="0.0" stroke="#7B7B7B" stroke-opacity="1.00" stroke-width="0.3"><path d="
M 261.00 68.00 
C 257.26 68.37 257.30 74.10 261.00 74.00
C 263.25 71.19 259.03 70.85 261.00 68.00 Z"/>
</g>
<g fill="None" fill-opacity="0.0" stroke="#000000" stroke-opacity="1.00" stroke-width="0.3"><path d="
M 43.00 79.00 
C 48.89 80.41 48.83 67.58 43.00 69.00
C 43.00 72.33 43.00 75.67 43.00 79.00 Z"/>
</g>
<g fill="None" fill-opacity="0.0" stroke="#000000" stroke-opacity="1.00" stroke-width="0.3"><path d="
M 108.00 69.00 
C 102.85 69.79 104.96 80.28 105.00 85.00 C 105.04 89.72 102.40 98.70 108.00 99.00
C 108.00 89.00 108.00 79.00 108.00 69.00 Z"/>
</g>
<g fill="None" fill-opacity="0.0" stroke="#797979" stroke-opacity="1.00" stroke-width="0.3"><path d="
M 124.00 70.00 
C 126.12 69.51 129.65 71.03 131.00 69.00
C 128.84 69.46 125.40 68.00 124.00 70.00 Z"/>
</g>
<g fill="None" fill-opacity="0.0" stroke="#787878" stroke-opacity="1.00" stroke-width="0.3"><path d="
M 160.00 105.00 
C 159.05 99.48 160.89 87.31 160.86 82.92 C 160.83 78.54 161.83 69.12 155.00 69.00
C 155.50 70.76 157.72 69.72 159.00 70.00
C 159.87 74.86 157.84 83.53 159.00 88.00 C 160.16 92.47 156.32 102.54 160.00 105.00 Z"/>
</g>
<g fill="None" fill-opacity="0.0" stroke="#D9D9D9" stroke-opacity="1.00" stroke-width="0.3"><path d="
M 226.00 75.00 
C 226.55 84.25 225.62 95.01 226.00 105.00
C 230.67 105.00 235.33 105.00 240.00 105.00
C 241.88 98.77 236.82 98.27 232.00 99.00
C 232.28 94.69 231.62 90.30 232.00 86.00
C 231.98 85.82 230.80 84.22 231.00 83.00
C 228.18 79.05 229.50 77.18 229.00 73.00
C 228.38 73.51 226.38 74.26 226.00 75.00 Z"/>
</g>
<g fill="None" fill-opacity="0.0" stroke="#6A6A6A" stroke-opacity="1.00" stroke-width="0.3"><path d="
M 86.00 76.00 
C 84.68 76.68 82.40 75.49 81.00 76.00
C 82.25 77.62 84.70 77.26 86.00 76.00 Z"/>
</g>
<g fill="None" fill-opacity="0.0" stroke="#626262" stroke-opacity="1.00" stroke-width="0.3"><path d="
M 231.00 83.00 
C 230.80 84.22 231.98 85.82 232.00 86.00
C 232.31 82.44 232.72 80.27 232.00 77.00
C 232.02 79.33 231.33 80.96 231.00 83.00 Z"/>
</g>
<g fill="None" fill-opacity="0.0" stroke="#ABABAB" stroke-opacity="1.00" stroke-width="0.3"><path d="
M 147.00 82.00 
C 147.33 82.28 152.67 82.28 153.00 82.00
C 153.00 81.50 153.00 80.50 153.00 80.00
C 150.85 80.10 149.13 80.10 147.00 80.00
C 147.00 80.50 147.02 81.50 147.00 82.00 Z"/>
</g>
<g fill="None" fill-opacity="0.0" stroke="#B8B8B8" stroke-opacity="1.00" stroke-width="0.3"><path d="
M 118.00 94.00 
C 118.00 94.00 118.00 94.50 118.00 95.00
C 119.62 94.71 121.37 95.22 123.00 95.00
C 123.28 96.28 122.24 98.50 124.00 99.00
C 125.53 95.74 121.96 88.91 124.00 86.00
C 121.81 87.70 123.56 91.48 123.00 94.00
C 121.37 93.78 119.62 94.29 118.00 94.00 Z"/>
</g>
<g fill="None" fill-opacity="0.0" stroke="#626262" stroke-opacity="1.00" stroke-width="0.3"><path d="
M 252.00 91.00 
C 253.65 91.18 255.51 90.83 256.00 89.00
C 255.55 88.36 251.19 89.62 253.00 88.00
C 252.66 88.91 252.32 89.77 252.00 91.00 Z"/>
</g>
<g fill="None" fill-opacity="0.0" stroke="#ACACAC" stroke-opacity="1.00" stroke-width="0.3"><path d="
M 151.00 90.00 
C 149.49 91.85 150.17 97.39 146.00 94.00
C 148.80 96.11 147.36 100.43 151.00 101.00
C 149.46 97.72 151.92 93.88 151.00 90.00 Z"/>
</g>
<g fill="None" fill-opacity="0.0" stroke="#EDEDED" stroke-opacity="1.00" stroke-width="0.3"><path d="
M 118.00 102.00 
C 117.97 103.14 116.47 103.72 117.00 105.00
C 121.67 105.00 126.33 105.00 131.00 105.00
C 132.57 99.49 128.78 97.97 124.00 99.00
C 122.24 98.50 123.28 96.28 123.00 95.00
C 121.37 95.22 119.62 94.71 118.00 95.00
C 118.00 97.30 117.78 99.72 118.00 102.00 Z"/>
</g>
<g fill="None" fill-opacity="0.0" stroke="#5D0412" stroke-opacity="1.00" stroke-width="0.3"><path d="
M 193.00 105.00 
C 195.74 103.11 193.57 99.97 192.00 99.00
C 193.56 100.40 192.80 103.18 193.00 105.00 Z"/>
</g>
<g fill="None" fill-opacity="0.0" stroke="#8D8D8D" stroke-opacity="1.00" stroke-width="0.3"><path d="
M 244.00 102.00 
C 238.11 102.01 245.05 107.89 244.00 102.00 Z"/>
</g>
<g fill="#000000" fill-opacity="1.00" stroke="None">
<path d="
M 0.00 168.00 
L 300.00 168.00
L 300.00 0.00
L 0.00 0.00
L 0.00 168.00
M 86.00 76.00 
C 84.70 77.26 82.25 77.62 81.00 76.00
C 79.43 73.95 80.00 64.40 77.03 71.03 C 74.05 77.66 78.50 78.53 81.25 81.75 C 84.00 84.97 88.53 87.00 87.00 92.00 C 85.46 97.00 88.55 99.19 85.23 103.23 C 81.90 107.27 78.98 106.10 74.77 104.23 C 70.56 102.36 70.52 96.46 71.00 92.00
C 77.32 91.99 80.31 102.52 81.00 93.00 C 81.69 83.48 70.86 87.00 71.01 78.99 C 71.15 70.98 69.47 63.81 78.07 62.07 C 86.68 60.33 88.85 70.84 86.00 76.00
M 252.00 91.00 
C 252.32 89.77 252.66 88.91 253.00 88.00
C 255.37 81.66 256.01 81.49 257.00 74.00 C 257.99 66.51 250.38 68.70 253.00 77.00
C 236.51 77.35 254.42 53.40 261.30 65.70 C 268.17 78.01 257.02 87.29 256.00 99.00
C 261.45 97.76 265.91 99.80 263.00 105.00
C 257.67 105.00 252.33 105.00 247.00 105.00
C 248.47 100.25 249.94 95.56 252.00 91.00
M 37.00 105.00 
C 33.95 102.97 36.02 87.85 36.00 84.00 C 35.98 80.15 34.01 65.09 37.00 63.00
C 49.84 54.01 60.04 77.01 50.00 83.00
C 56.12 87.71 51.62 97.94 53.00 105.00
C 39.59 107.97 53.62 85.76 43.00 85.00
C 43.00 91.67 43.00 98.33 43.00 105.00
C 41.00 105.00 39.00 105.00 37.00 105.00
M 69.00 64.00 
C 71.79 66.79 68.90 68.58 68.00 69.00
C 66.27 69.82 64.01 70.04 62.00 70.00
C 62.00 73.00 62.00 76.00 62.00 79.00
C 66.78 77.97 70.57 79.49 69.00 85.00
C 59.10 81.98 62.49 93.03 62.00 99.00
C 66.78 97.97 70.57 99.49 69.00 105.00
C 64.67 105.00 60.33 105.00 56.00 105.00
C 56.00 91.00 56.00 77.00 56.00 63.00
C 60.17 63.64 65.66 61.71 69.00 64.00
M 96.00 105.00 
C 85.78 108.31 90.30 97.39 89.00 92.00 C 87.70 86.61 91.93 78.12 89.00 73.00 C 86.07 67.88 95.63 55.00 95.99 67.01 C 96.35 79.01 95.46 92.87 96.00 105.00
M 98.00 105.00 
C 98.35 91.47 97.78 77.11 98.00 63.00
C 115.44 58.37 115.06 71.28 115.00 84.00 C 114.94 96.72 115.33 109.64 98.00 105.00
M 131.00 69.00 
C 129.65 71.03 126.12 69.51 124.00 70.00
C 121.03 74.24 125.42 82.20 131.00 79.00
C 133.18 85.52 127.60 84.53 124.00 86.00
C 121.96 88.91 125.53 95.74 124.00 99.00
C 128.78 97.97 132.57 99.49 131.00 105.00
C 126.33 105.00 121.67 105.00 117.00 105.00
C 116.47 103.72 117.97 103.14 118.00 102.00
C 116.85 97.67 115.95 87.76 117.00 83.00 C 118.05 78.24 114.19 65.67 118.00 63.00
C 120.91 60.96 127.74 64.53 131.00 63.00
C 131.00 65.00 131.00 67.00 131.00 69.00
M 147.00 82.00 
C 147.02 81.50 147.00 80.50 147.00 80.00
C 147.00 74.33 147.00 68.67 147.00 63.00
C 149.46 63.12 153.98 61.92 153.00 66.00
C 155.10 70.19 154.45 80.06 154.00 85.00 C 153.55 89.94 156.30 100.70 153.00 104.00
C 146.93 110.07 141.02 87.22 141.00 83.00
C 138.71 89.42 140.64 97.82 140.00 105.00
C 130.14 106.49 134.79 94.03 134.00 87.00 C 133.21 79.97 134.59 70.27 134.00 63.00
C 144.36 62.22 142.68 77.80 146.00 85.00
C 147.39 84.74 146.78 82.95 147.00 82.00
M 160.00 105.00 
C 156.32 102.54 160.16 92.47 159.00 88.00 C 157.84 83.53 159.87 74.86 159.00 70.00
C 157.72 69.72 155.50 70.76 155.00 69.00
C 154.33 67.26 155.51 64.80 155.00 63.00
C 159.71 63.84 164.78 62.53 170.00 63.00
C 170.06 66.23 171.05 71.43 166.00 70.00
C 166.00 81.67 166.00 93.33 166.00 105.00
C 164.00 105.00 162.00 105.00 160.00 105.00
M 193.00 63.00 
C 195.00 64.40 193.54 67.84 194.00 70.00
C 191.33 70.00 188.67 70.00 186.00 70.00
C 183.03 74.24 187.42 82.20 193.00 79.00
C 194.67 84.50 190.75 85.96 186.00 85.00
C 186.00 89.67 186.00 94.33 186.00 99.00
C 188.00 99.00 190.00 99.00 192.00 99.00
C 193.57 99.97 195.74 103.11 193.00 105.00
C 190.06 107.03 183.29 103.48 180.00 105.00
C 180.00 91.00 180.00 77.00 180.00 63.00
C 184.15 63.91 188.38 62.54 193.00 63.00
M 205.00 91.00 
C 210.07 83.05 202.79 62.62 216.00 63.00
C 213.56 70.28 214.11 79.75 212.00 87.00 C 209.89 94.25 211.77 107.30 201.00 105.00
C 200.30 90.68 196.71 77.09 195.00 63.00
C 207.69 62.73 201.77 82.23 205.00 91.00
M 224.00 105.00 
C 213.94 107.11 217.39 95.31 217.00 88.00 C 216.61 80.69 217.55 71.37 217.00 63.00
C 227.40 61.27 223.53 72.68 224.00 80.00 C 224.47 87.32 223.65 97.43 224.00 105.00
M 232.00 74.00 
C 232.00 75.00 231.99 76.00 232.00 77.00
C 232.72 80.27 232.31 82.44 232.00 86.00
C 231.62 90.30 232.28 94.69 232.00 99.00
C 236.82 98.27 241.88 98.77 240.00 105.00
C 235.33 105.00 230.67 105.00 226.00 105.00
C 225.62 95.01 226.55 84.25 226.00 75.00
C 225.86 71.00 226.10 67.00 226.00 63.00
C 228.00 63.00 230.00 63.00 232.00 63.00
C 234.76 64.85 232.45 71.95 232.00 74.00
M 244.00 102.00 
C 245.05 107.89 238.11 102.01 244.00 102.00 Z"/>
</g>
<g fill="#E8E8E8" fill-opacity="1.00" stroke="None">
<path d="
M 81.00 76.00 
C 82.40 75.49 84.68 76.68 86.00 76.00
C 88.85 70.84 86.68 60.33 78.07 62.07 C 69.47 63.81 71.15 70.98 71.01 78.99 C 70.86 87.00 81.69 83.48 81.00 93.00 C 80.31 102.52 77.32 91.99 71.00 92.00
C 70.52 96.46 70.56 102.36 74.77 104.23 C 78.98 106.10 81.90 107.27 85.23 103.23 C 88.55 99.19 85.46 97.00 87.00 92.00 C 88.53 87.00 84.00 84.97 81.25 81.75 C 78.50 78.53 74.05 77.66 77.03 71.03 C 80.00 64.40 79.43 73.95 81.00 76.00 Z"/>
</g>
<g fill="#C3C3C3" fill-opacity="1.00" stroke="None">
<path d="
M 253.00 88.00 
C 251.19 89.62 255.55 88.36 256.00 89.00
C 255.51 90.83 253.65 91.18 252.00 91.00
C 249.94 95.56 248.47 100.25 247.00 105.00
C 252.33 105.00 257.67 105.00 263.00 105.00
C 265.91 99.80 261.45 97.76 256.00 99.00
C 257.02 87.29 268.17 78.01 261.30 65.70 C 254.42 53.40 236.51 77.35 253.00 77.00
C 250.38 68.70 257.99 66.51 257.00 74.00 C 256.01 81.49 255.37 81.66 253.00 88.00
M 261.00 68.00 
C 259.03 70.85 263.25 71.19 261.00 74.00
C 257.30 74.10 257.26 68.37 261.00 68.00 Z"/>
</g>
<g fill="#7B0317" fill-opacity="1.00" stroke="None">
<path d="
M 37.00 105.00 
C 35.83 101.75 43.27 98.54 37.00 100.00
C 37.00 87.67 37.00 75.33 37.00 63.00
C 34.01 65.09 35.98 80.15 36.00 84.00 C 36.02 87.85 33.95 102.97 37.00 105.00 Z"/>
</g>
<g fill="#D80226" fill-opacity="1.00" stroke="None">
<path d="
M 37.00 105.00 
C 39.00 105.00 41.00 105.00 43.00 105.00
C 43.00 98.33 43.00 91.67 43.00 85.00
C 53.62 85.76 39.59 107.97 53.00 105.00
C 51.62 97.94 56.12 87.71 50.00 83.00
C 60.04 77.01 49.84 54.01 37.00 63.00
C 37.00 75.33 37.00 87.67 37.00 100.00
C 43.27 98.54 35.83 101.75 37.00 105.00
M 43.00 79.00 
C 43.00 75.67 43.00 72.33 43.00 69.00
C 48.83 67.58 48.89 80.41 43.00 79.00 Z"/>
</g>
<g fill="#F2F2F2" fill-opacity="1.00" stroke="None">
<path d="
M 68.00 69.00 
C 68.81 68.14 69.76 65.38 69.00 64.00
C 65.66 61.71 60.17 63.64 56.00 63.00
C 56.00 77.00 56.00 91.00 56.00 105.00
C 60.33 105.00 64.67 105.00 69.00 105.00
C 70.57 99.49 66.78 97.97 62.00 99.00
C 62.49 93.03 59.10 81.98 69.00 85.00
C 70.57 79.49 66.78 77.97 62.00 79.00
C 62.00 76.00 62.00 73.00 62.00 70.00
C 64.01 70.04 66.27 69.82 68.00 69.00 Z"/>
</g>
<g fill="#DBDBDB" fill-opacity="1.00" stroke="None">
<path d="
M 96.00 105.00 
C 95.46 92.87 96.35 79.01 95.99 67.01 C 95.63 55.00 86.07 67.88 89.00 73.00 C 91.93 78.12 87.70 86.61 89.00 92.00 C 90.30 97.39 85.78 108.31 96.00 105.00 Z"/>
</g>
<g fill="#E2E2E2" fill-opacity="1.00" stroke="None">
<path d="
M 98.00 105.00 
C 115.33 109.64 114.94 96.72 115.00 84.00 C 115.06 71.28 115.44 58.37 98.00 63.00
C 97.78 77.11 98.35 91.47 98.00 105.00
M 108.00 69.00 
C 108.00 79.00 108.00 89.00 108.00 99.00
C 102.40 98.70 105.04 89.72 105.00 85.00 C 104.96 80.28 102.85 69.79 108.00 69.00 Z"/>
</g>
<g fill="#858585" fill-opacity="1.00" stroke="None">
<path d="
M 118.00 102.00 
C 117.78 99.72 118.00 97.30 118.00 95.00
C 118.00 94.50 118.00 94.00 118.00 94.00
C 118.00 83.67 118.00 73.33 118.00 63.00
C 114.19 65.67 118.05 78.24 117.00 83.00 C 115.95 87.76 116.85 97.67 118.00 102.00 Z"/>
</g>
<g fill="#EEEEEE" fill-opacity="1.00" stroke="None">
<path d="
M 118.00 94.00 
C 119.62 94.29 121.37 93.78 123.00 94.00
C 123.56 91.48 121.81 87.70 124.00 86.00
C 127.60 84.53 133.18 85.52 131.00 79.00
C 125.42 82.20 121.03 74.24 124.00 70.00
C 125.40 68.00 128.84 69.46 131.00 69.00
C 131.00 67.00 131.00 65.00 131.00 63.00
C 127.74 64.53 120.91 60.96 118.00 63.00
C 118.00 73.33 118.00 83.67 118.00 94.00 Z"/>
</g>
<g fill="#EAEAEA" fill-opacity="1.00" stroke="None">
<path d="
M 153.00 104.00 
C 154.61 101.63 152.40 95.99 153.00 93.00 C 153.60 90.01 153.00 85.16 153.00 82.00
C 152.67 82.28 147.33 82.28 147.00 82.00
C 146.78 82.95 147.39 84.74 146.00 85.00
C 142.68 77.80 144.36 62.22 134.00 63.00
C 134.59 70.27 133.21 79.97 134.00 87.00 C 134.79 94.03 130.14 106.49 140.00 105.00
C 140.64 97.82 138.71 89.42 141.00 83.00
C 141.02 87.22 146.93 110.07 153.00 104.00
M 151.00 90.00 
C 151.92 93.88 149.46 97.72 151.00 101.00
C 147.36 100.43 148.80 96.11 146.00 94.00
C 150.17 97.39 149.49 91.85 151.00 90.00 Z"/>
</g>
<g fill="#EFEFEF" fill-opacity="1.00" stroke="None">
<path d="
M 147.00 80.00 
C 149.13 80.10 150.85 80.10 153.00 80.00
C 153.00 76.01 154.22 69.76 153.00 66.00
C 153.98 61.92 149.46 63.12 147.00 63.00
C 147.00 68.67 147.00 74.33 147.00 80.00 Z"/>
</g>
<g fill="#DFDFDF" fill-opacity="1.00" stroke="None">
<path d="
M 155.00 69.00 
C 161.83 69.12 160.83 78.54 160.86 82.92 C 160.89 87.31 159.05 99.48 160.00 105.00
C 162.00 105.00 164.00 105.00 166.00 105.00
C 166.00 93.33 166.00 81.67 166.00 70.00
C 171.05 71.43 170.06 66.23 170.00 63.00
C 164.78 62.53 159.71 63.84 155.00 63.00
C 155.51 64.80 154.33 67.26 155.00 69.00 Z"/>
</g>
<g fill="#D00225" fill-opacity="1.00" stroke="None">
<path d="
M 193.00 105.00 
C 192.80 103.18 193.56 100.40 192.00 99.00
C 190.00 99.00 188.00 99.00 186.00 99.00
C 186.00 94.33 186.00 89.67 186.00 85.00
C 190.75 85.96 194.67 84.50 193.00 79.00
C 187.42 82.20 183.03 74.24 186.00 70.00
C 187.40 68.00 190.84 69.46 193.00 69.00
C 193.00 67.00 193.00 65.00 193.00 63.00
C 188.38 62.54 184.15 63.91 180.00 63.00
C 180.00 77.00 180.00 91.00 180.00 105.00
C 183.29 103.48 190.06 107.03 193.00 105.00 Z"/>
</g>
<g fill="#5E0412" fill-opacity="1.00" stroke="None">
<path d="
M 186.00 70.00 
C 188.67 70.00 191.33 70.00 194.00 70.00
C 193.54 67.84 195.00 64.40 193.00 63.00
C 193.00 65.00 193.00 67.00 193.00 69.00
C 190.84 69.46 187.40 68.00 186.00 70.00 Z"/>
</g>
<g fill="#DDDDDD" fill-opacity="1.00" stroke="None">
<path d="
M 205.00 91.00 
C 201.77 82.23 207.69 62.73 195.00 63.00
C 196.71 77.09 200.30 90.68 201.00 105.00
C 211.77 107.30 209.89 94.25 212.00 87.00 C 214.11 79.75 213.56 70.28 216.00 63.00
C 202.79 62.62 210.07 83.05 205.00 91.00 Z"/>
</g>
<g fill="#CACACA" fill-opacity="1.00" stroke="None">
<path d="
M 224.00 105.00 
C 223.65 97.43 224.47 87.32 224.00 80.00 C 223.53 72.68 227.40 61.27 217.00 63.00
C 217.55 71.37 216.61 80.69 217.00 88.00 C 217.39 95.31 213.94 107.11 224.00 105.00 Z"/>
</g>
<g fill="#B4B4B4" fill-opacity="1.00" stroke="None">
<path d="
M 226.00 75.00 
C 226.38 74.26 228.38 73.51 229.00 73.00
C 229.50 77.18 228.18 79.05 231.00 83.00
C 231.33 80.96 232.02 79.33 232.00 77.00
C 231.99 76.00 232.00 75.00 232.00 74.00
C 232.00 70.33 232.00 66.67 232.00 63.00
C 230.00 63.00 228.00 63.00 226.00 63.00
C 226.10 67.00 225.86 71.00 226.00 75.00
M 230.00 66.00 
C 229.48 73.33 223.98 66.03 230.00 66.00 Z"/>
</g>
<g fill="#4C4C4C" fill-opacity="1.00" stroke="None">
<path d="
M 232.00 74.00 
C 232.45 71.95 234.76 64.85 232.00 63.00
C 232.00 66.67 232.00 70.33 232.00 74.00 Z"/>
</g>
<g fill="#676767" fill-opacity="1.00" stroke="None">
<path d="
M 68.00 69.00 
C 68.90 68.58 71.79 66.79 69.00 64.00
C 69.76 65.38 68.81 68.14 68.00 69.00 Z"/>
</g>
<g fill="#676767" fill-opacity="1.00" stroke="None">
<path d="
M 153.00 80.00 
C 153.00 80.50 153.00 81.50 153.00 82.00
C 153.00 85.16 153.60 90.01 153.00 93.00 C 152.40 95.99 154.61 101.63 153.00 104.00
C 156.30 100.70 153.55 89.94 154.00 85.00 C 154.45 80.06 155.10 70.19 153.00 66.00
C 154.22 69.76 153.00 76.01 153.00 80.00 Z"/>
</g>
<g fill="#F3F3F3" fill-opacity="1.00" stroke="None">
<path d="
M 230.00 66.00 
C 223.98 66.03 229.48 73.33 230.00 66.00 Z"/>
</g>
<g fill="#7B7B7B" fill-opacity="1.00" stroke="None">
<path d="
M 261.00 68.00 
C 257.26 68.37 257.30 74.10 261.00 74.00
C 263.25 71.19 259.03 70.85 261.00 68.00 Z"/>
</g>
<g fill="#000000" fill-opacity="1.00" stroke="None">
<path d="
M 43.00 79.00 
C 48.89 80.41 48.83 67.58 43.00 69.00
C 43.00 72.33 43.00 75.67 43.00 79.00 Z"/>
</g>
<g fill="#000000" fill-opacity="1.00" stroke="None">
<path d="
M 108.00 69.00 
C 102.85 69.79 104.96 80.28 105.00 85.00 C 105.04 89.72 102.40 98.70 108.00 99.00
C 108.00 89.00 108.00 79.00 108.00 69.00 Z"/>
</g>
<g fill="#797979" fill-opacity="1.00" stroke="None">
<path d="
M 124.00 70.00 
C 126.12 69.51 129.65 71.03 131.00 69.00
C 128.84 69.46 125.40 68.00 124.00 70.00 Z"/>
</g>
<g fill="#787878" fill-opacity="1.00" stroke="None">
<path d="
M 160.00 105.00 
C 159.05 99.48 160.89 87.31 160.86 82.92 C 160.83 78.54 161.83 69.12 155.00 69.00
C 155.50 70.76 157.72 69.72 159.00 70.00
C 159.87 74.86 157.84 83.53 159.00 88.00 C 160.16 92.47 156.32 102.54 160.00 105.00 Z"/>
</g>
<g fill="#D9D9D9" fill-opacity="1.00" stroke="None">
<path d="
M 226.00 75.00 
C 226.55 84.25 225.62 95.01 226.00 105.00
C 230.67 105.00 235.33 105.00 240.00 105.00
C 241.88 98.77 236.82 98.27 232.00 99.00
C 232.28 94.69 231.62 90.30 232.00 86.00
C 231.98 85.82 230.80 84.22 231.00 83.00
C 228.18 79.05 229.50 77.18 229.00 73.00
C 228.38 73.51 226.38 74.26 226.00 75.00 Z"/>
</g>
<g fill="#6A6A6A" fill-opacity="1.00" stroke="None">
<path d="
M 86.00 76.00 
C 84.68 76.68 82.40 75.49 81.00 76.00
C 82.25 77.62 84.70 77.26 86.00 76.00 Z"/>
</g>
<g fill="#626262" fill-opacity="1.00" stroke="None">
<path d="
M 231.00 83.00 
C 230.80 84.22 231.98 85.82 232.00 86.00
C 232.31 82.44 232.72 80.27 232.00 77.00
C 232.02 79.33 231.33 80.96 231.00 83.00 Z"/>
</g>
<g fill="#ABABAB" fill-opacity="1.00" stroke="None">
<path d="
M 147.00 82.00 
C 147.33 82.28 152.67 82.28 153.00 82.00
C 153.00 81.50 153.00 80.50 153.00 80.00
C 150.85 80.10 149.13 80.10 147.00 80.00
C 147.00 80.50 147.02 81.50 147.00 82.00 Z"/>
</g>
<g fill="#B8B8B8" fill-opacity="1.00" stroke="None">
<path d="
M 118.00 94.00 
C 118.00 94.00 118.00 94.50 118.00 95.00
C 119.62 94.71 121.37 95.22 123.00 95.00
C 123.28 96.28 122.24 98.50 124.00 99.00
C 125.53 95.74 121.96 88.91 124.00 86.00
C 121.81 87.70 123.56 91.48 123.00 94.00
C 121.37 93.78 119.62 94.29 118.00 94.00 Z"/>
</g>
<g fill="#626262" fill-opacity="1.00" stroke="None">
<path d="
M 252.00 91.00 
C 253.65 91.18 255.51 90.83 256.00 89.00
C 255.55 88.36 251.19 89.62 253.00 88.00
C 252.66 88.91 252.32 89.77 252.00 91.00 Z"/>
</g>
<g fill="#ACACAC" fill-opacity="1.00" stroke="None">
<path d="
M 151.00 90.00 
C 149.49 91.85 150.17 97.39 146.00 94.00
C 148.80 96.11 147.36 100.43 151.00 101.00
C 149.46 97.72 151.92 93.88 151.00 90.00 Z"/>
</g>
<g fill="#EDEDED" fill-opacity="1.00" stroke="None">
<path d="
M 118.00 102.00 
C 117.97 103.14 116.47 103.72 117.00 105.00
C 121.67 105.00 126.33 105.00 131.00 105.00
C 132.57 99.49 128.78 97.97 124.00 99.00
C 122.24 98.50 123.28 96.28 123.00 95.00
C 121.37 95.22 119.62 94.71 118.00 95.00
C 118.00 97.30 117.78 99.72 118.00 102.00 Z"/>
</g>
<g fill="#5D0412" fill-opacity="1.00" stroke="None">
<path d="
M 193.00 105.00 
C 195.74 103.11 193.57 99.97 192.00 99.00
C 193.56 100.40 192.80 103.18 193.00 105.00 Z"/>
</g>
<g fill="#8D8D8D" fill-opacity="1.00" stroke="None">
<path d="
M 244.00 102.00 
C 238.11 102.01 245.05 107.89 244.00 102.00 Z"/>
</g>
</svg>